<svg id="Capa_1" enable-background="new 0 0 512 512" height="512" viewBox="0 0 512 512" width="512" xmlns="http://www.w3.org/2000/svg"><g><g><path d="m435.759 484.5v-413.746c0-11.046-8.954-20-20-20h-322.353c-11.046 0-20 8.954-20 20v413.746c0 11.046 8.954 20 20 20h322.353c11.046 0 20-8.954 20-20z" fill="#e28086"/><path d="m418.594 50.754h-30c11.046 0 20 8.954 20 20v413.746c0 11.046-8.954 20-20 20h30c11.046 0 20-8.954 20-20v-413.746c0-11.046-8.954-20-20-20z" fill="#dd636e"/><path d="m118.406 80.754c-8.284 0-15 6.716-15 15v363.746c0 8.284 6.716 15 15 15h275.188c8.284 0 15-6.716 15-15v-363.746c0-8.284-6.716-15-15-15-2.948 0-277.153 0-275.188 0z" fill="#e7ecf6"/><path d="m393.594 80.754h-20c2.761 0 5 2.239 5 5v383.746c0 2.761-2.239 5-5 5h20c8.284 0 15-6.716 15-15v-363.746c0-8.284-6.716-15-15-15z" fill="#d8e2f1"/><path d="m276.818 7.5h-44.471c-11.79 0-21.347 9.558-21.347 21.347v39.653h87.165v-39.653c0-11.789-9.557-21.347-21.347-21.347z" fill="#365e7d"/><path d="m279.653 7.5h-28.346c11.79 0 21.347 9.558 21.347 21.347v39.653h28.346v-39.653c0-11.789-9.557-21.347-21.347-21.347z" fill="#2b4d66"/><path d="m351.273 106.505v-59.505c0-4.971-4.029-9-9-9h-175.38c-4.971 0-9 4.029-9 9v59.505c0 4.97 4.029 9 9 9h175.38c4.97 0 9-4.03 9-9z" fill="#407093"/><path d="m345.107 38h-28.346c4.971 0 9 4.029 9 9v59.505c0 4.97-4.029 9-9 9h28.346c4.971 0 9-4.03 9-9v-59.505c0-4.971-4.029-9-9-9z" fill="#365e7d"/></g><g><path d="m146 214.659h220c4.142 0 7.5-3.358 7.5-7.5s-3.358-7.5-7.5-7.5h-220c-4.142 0-7.5 3.358-7.5 7.5s3.358 7.5 7.5 7.5z"/><path d="m146 268.659h220c4.142 0 7.5-3.358 7.5-7.5s-3.358-7.5-7.5-7.5h-220c-4.142 0-7.5 3.358-7.5 7.5s3.358 7.5 7.5 7.5z"/><path d="m146 322.659h220c4.142 0 7.5-3.358 7.5-7.5s-3.358-7.5-7.5-7.5h-220c-4.142 0-7.5 3.358-7.5 7.5s3.358 7.5 7.5 7.5z"/><path d="m146 376.659h220c4.142 0 7.5-3.358 7.5-7.5s-3.358-7.5-7.5-7.5h-220c-4.142 0-7.5 3.358-7.5 7.5s3.358 7.5 7.5 7.5z"/><path d="m418.594 43.254h-57.432c-1.703-7.297-8.247-12.754-16.055-12.754h-36.607c0-19.108-13.963-30.5-28.847-30.5h-47.306c-14.751 0-28.847 11.241-28.847 30.5h-36.607c-7.808 0-14.352 5.457-16.055 12.754h-57.432c-15.164 0-27.5 12.336-27.5 27.5v71.597c0 4.142 3.358 7.5 7.5 7.5s7.5-3.358 7.5-7.5v-71.597c0-6.893 5.607-12.5 12.5-12.5h56.986v15h-31.986c-12.407 0-22.5 10.093-22.5 22.5v363.746c0 12.407 10.093 22.5 22.5 22.5h204.136c4.142 0 7.5-3.358 7.5-7.5s-3.358-7.5-7.5-7.5h-204.136c-4.136 0-7.5-3.365-7.5-7.5v-363.746c0-4.135 3.364-7.5 7.5-7.5h31.986v18.251c0 9.098 7.402 16.5 16.5 16.5h178.215c9.098 0 16.5-7.402 16.5-16.5v-18.251h31.986c4.136 0 7.5 3.365 7.5 7.5v363.746c0 4.135-3.364 7.5-7.5 7.5h-36.052c-4.142 0-7.5 3.358-7.5 7.5s3.358 7.5 7.5 7.5h36.052c12.407 0 22.5-10.093 22.5-22.5v-363.746c0-12.407-10.093-22.5-22.5-22.5h-31.986v-15h56.986c6.893 0 12.5 5.607 12.5 12.5v413.746c0 6.893-5.607 12.5-12.5 12.5h-325.187c-6.893 0-12.5-5.607-12.5-12.5v-307.149c0-4.142-3.358-7.5-7.5-7.5s-7.5 3.358-7.5 7.5v307.149c0 15.164 12.336 27.5 27.5 27.5h325.188c15.164 0 27.5-12.336 27.5-27.5v-413.746c0-15.164-12.337-27.5-27.5-27.5zm-71.987 63.251c0 .827-.673 1.5-1.5 1.5h-178.214c-.827 0-1.5-.673-1.5-1.5 0-24.736 0-29.663 0-59.505 0-.827.673-1.5 1.5-1.5h44.107c4.142 0 7.5-3.358 7.5-7.5v-9.153c0-7.635 6.212-13.847 13.847-13.847h47.306c7.635 0 13.847 6.212 13.847 13.847v9.153c0 4.142 3.358 7.5 7.5 7.5h44.107c.827 0 1.5.673 1.5 1.5z"/></g></g></svg>