<svg id="Capa_1" enable-background="new 0 0 512 512" height="512" viewBox="0 0 512 512" width="512" xmlns="http://www.w3.org/2000/svg"><g><g><path d="m417.579 482.5v-392.623h-377.165v392.623c0 12.15 9.85 22 22 22h333.165c12.15 0 22-9.85 22-22z" fill="#e7ecf6"/><path d="m392.067 89.877v392.623c0 12.15-9.85 22-22 22h28.346c12.15 0 22-9.85 22-22v-392.623z" fill="#d8e2f1"/><path d="m399.579 50.754h-337.165c-12.15 0-22 9.85-22 22v56.246h377.165v-60.246c0-9.941-8.059-18-18-18z" fill="#407093"/><path d="m402.414 50.754h-28.346c9.941 0 18 8.059 18 18v60.246h28.346v-60.246c0-9.941-8.059-18-18-18z" fill="#365e7d"/><path d="m421.229 199.298-24.676-14.247 49.389-85.545c2.003-3.469 6.439-4.658 9.908-2.655l12.114 6.994c3.469 2.003 4.658 6.439 2.655 9.908z" fill="#ecbe6b"/><path d="m315.102 411.61-49.353-28.494-2.572 54.075c-.16 3.364 3.547 5.504 6.38 3.684z" fill="#bed8fb"/><path d="m467.963 103.845c-13.112-7.57-13.025-7.803-15.279-7.944l3.941 2.275c3.469 2.003 4.658 6.439 2.655 9.908l-49.009 84.888 10.959 6.327 49.389-85.545c2.002-3.471.813-7.906-2.656-9.909z" fill="#eab14d"/><path d="m300.665 403.275-37.006 23.779-.482 10.138c-.16 3.364 3.547 5.504 6.38 3.684l45.545-29.265z" fill="#9dc6fb"/><path d="m315.102 411.61-49.353-28.494 146.095-253.046c1.431-2.478 4.599-3.327 7.077-1.896l40.38 23.313c2.478 1.431 3.327 4.599 1.896 7.077z" fill="#e28086"/><path d="m459.301 151.487-9.826-5.673c-.213.37-148.483 257.159-148.668 257.543l14.294 8.252 146.095-253.046c1.432-2.477.583-5.646-1.895-7.076z" fill="#dd636e"/><g fill="#bed8fb"><path d="m166.559 11.5v67.848c0 9.739 7.53 17.702 17.083 18.428 9.553-.726 17.083-8.689 17.083-18.428v-67.848c0-2.209-1.791-4-4-4h-26.165c-2.21 0-4.001 1.791-4.001 4z"/><path d="m75.851 11.5v67.848c0 9.739 7.53 17.702 17.083 18.428 9.553-.726 17.083-8.689 17.083-18.428v-67.848c0-2.209-1.791-4-4-4h-26.166c-2.21 0-4 1.791-4 4z"/><path d="m257.268 11.5v67.848c0 9.739 7.53 17.702 17.083 18.428 9.553-.726 17.083-8.689 17.083-18.428v-67.848c0-2.209-1.791-4-4-4h-26.165c-2.21 0-4.001 1.791-4.001 4z"/><path d="m347.977 11.5v67.848c0 9.739 7.53 17.702 17.083 18.428 9.553-.726 17.083-8.689 17.083-18.428v-67.848c0-2.209-1.791-4-4-4h-26.165c-2.211 0-4.001 1.791-4.001 4z"/></g><path d="m199.559 7.5h-19.843c2.209 0 4 1.791 4 4v67.848c0 6.563-3.427 12.313-8.579 15.597 2.869 1.829 6.267 2.903 9.921 2.903 10.217 0 18.5-8.283 18.5-18.5v-67.848c.001-2.209-1.79-4-3.999-4z" fill="#9dc6fb"/><path d="m108.851 7.5h-19.843c2.209 0 4 1.791 4 4v67.848c0 6.563-3.427 12.313-8.579 15.597 2.869 1.829 6.266 2.903 9.921 2.903 10.217 0 18.5-8.283 18.5-18.5v-67.848c.001-2.209-1.79-4-3.999-4z" fill="#9dc6fb"/><path d="m290.268 7.5h-19.842c2.209 0 4 1.791 4 4v67.848c0 6.563-3.427 12.313-8.579 15.597 2.869 1.829 6.267 2.903 9.921 2.903 10.217 0 18.5-8.283 18.5-18.5v-67.848c0-2.209-1.791-4-4-4z" fill="#9dc6fb"/><path d="m380.977 7.5h-19.843c2.209 0 4 1.791 4 4v67.848c0 6.563-3.427 12.313-8.579 15.597 2.869 1.829 6.266 2.903 9.921 2.903 10.217 0 18.5-8.283 18.5-18.5v-67.848c.001-2.209-1.79-4-3.999-4z" fill="#9dc6fb"/></g><path d="m471.714 97.35-12.114-6.994c-7.064-4.079-16.077-1.661-20.153 5.4l-11.533 19.976v-46.978c0-14.061-11.439-25.5-25.5-25.5h-17.437c-4.142 0-7.5 3.358-7.5 7.5v28.594c0 6.065-4.934 11-11 11-6.065 0-11-4.935-11-11 0-6.927 0-57.398 0-64.348h22v4.009c0 4.142 3.358 7.5 7.5 7.5s7.5-3.358 7.5-7.5v-7.509c0-6.341-5.159-11.5-11.5-11.5h-29c-6.341 0-11.5 5.159-11.5 11.5v31.754h-38.709v-31.754c0-6.341-5.159-11.5-11.5-11.5h-29c-6.341 0-11.5 5.159-11.5 11.5v31.754h-38.708v-31.754c0-6.341-5.159-11.5-11.5-11.5h-29c-6.341 0-11.5 5.159-11.5 11.5v31.754h-38.709v-31.754c0-6.341-5.159-11.5-11.5-11.5h-29c-6.341 0-11.5 5.159-11.5 11.5v31.754h-5.938c-16.266 0-29.5 13.234-29.5 29.5v56.246 353.5c0 16.266 13.234 29.5 29.5 29.5h59.086c4.142 0 7.5-3.358 7.5-7.5s-3.358-7.5-7.5-7.5h-59.086c-7.995 0-14.5-6.505-14.5-14.5v-346h351.559c-8.131 14.083-24.186 41.892-27.648 47.887-.457-.087-.928-.137-1.411-.137h-280c-4.142 0-7.5 3.358-7.5 7.5s3.358 7.5 7.5 7.5h272.829l-27.424 47.5h-245.404c-4.142 0-7.5 3.358-7.5 7.5s3.358 7.5 7.5 7.5h236.745l-27.424 47.5h-209.321c-4.142 0-7.5 3.358-7.5 7.5s3.358 7.5 7.5 7.5h200.661l-27.424 47.5h-173.237c-4.142 0-7.5 3.358-7.5 7.5s3.358 7.5 7.5 7.5h167.653l-2.259 47.5h-165.394c-4.142 0-7.5 3.358-7.5 7.5s3.358 7.5 7.5 7.5h176.828c1.623 0 4.514-.873 6.37-2.065l45.544-29.265c.941-.603 1.829-1.499 2.441-2.56l91.316-158.166v22.498l-15.262 26.434c-2.071 3.587-.842 8.174 2.745 10.245 3.587 2.072 8.174.842 10.245-2.745l2.271-3.934v172.808c0 7.995-6.505 14.5-14.5 14.5h-241.913c-4.142 0-7.5 3.358-7.5 7.5s3.358 7.5 7.5 7.5h241.914c16.266 0 29.5-13.234 29.5-29.5v-198.789l43.688-75.67c5.401-9.354 2.185-21.358-7.169-26.759l-5.768-3.33 9.029-15.638c1.693-2.933 2.144-6.351 1.267-9.622-.876-3.272-2.975-6.007-5.908-7.7l-1.357-.783 15.419-26.706c4.066-7.045 1.644-16.086-5.4-20.153zm-53.37 39.15c7.718 4.456 28.688 16.563 35.199 20.322l-7.869 13.63-36.362-20.993 7.482-12.959zm-153.576-121.5h22v64.348c0 6.065-4.935 11-11 11s-11-4.935-11-11c0-6.927 0-57.398 0-64.348zm-90.709 0h22v64.348c0 6.065-4.935 11-11 11s-11-4.935-11-11c0-6.927 0-57.398 0-64.348zm-90.708 0h22v64.348c0 6.065-4.935 11-11 11-6.066 0-11-4.935-11-11 0-6.927 0-57.398 0-64.348zm-35.438 106.5v-48.746c0-7.995 6.505-14.5 14.5-14.5h5.938v21.094c0 14.336 11.664 26 26 26s26-11.664 26-26v-21.094h38.709v21.094c0 14.336 11.664 26 26 26s26-11.664 26-26v-21.094h38.708v21.094c0 14.336 11.664 26 26 26s26-11.664 26-26v-21.094h38.709v21.094c0 14.336 11.664 26 26 26s26-11.664 26-26v-21.094h9.937c5.79 0 10.5 4.71 10.5 10.5v52.746c-3.723 0-362.977 0-365.001 0zm223.065 309.547 1.678-35.283 28.039 16.188zm41.379-29.682c-13.285-7.67-22.985-13.27-35.703-20.613.099-.485.151-.987.151-1.501 0-.088-.01-.173-.013-.26 3.108-5.383 119.684-207.3 125.019-216.541l36.362 20.994zm146.254-200.824-30.698 53.17v-22.498l23.25-40.271 5.768 3.33c2.192 1.266 2.945 4.078 1.68 6.269zm-9.907-63.833c-10.614-6.128-7.669-4.428-11.687-6.747l15.296-26.492 11.686 6.747z"/></g></svg>