<svg id="Capa_1" enable-background="new 0 0 512 512" height="512" viewBox="0 0 512 512" width="512" xmlns="http://www.w3.org/2000/svg"><g><g><path d="m459.298 373.506v-326.478c0-10.358-8.397-18.754-18.754-18.754h-414.289c-10.358-.001-18.755 8.396-18.755 18.754v326.478c0 10.358 8.397 18.754 18.754 18.754h414.289c10.358 0 18.755-8.396 18.755-18.754z" fill="#407093"/><path d="m443.378 28.274h-28.347c10.358 0 18.755 8.396 18.755 18.754v326.478c0 10.357-8.397 18.754-18.755 18.754h28.347c10.358 0 18.754-8.397 18.754-18.754v-326.478c.001-10.358-8.396-18.754-18.754-18.754z" fill="#365e7d"/><path d="m45.944 76.368c-10.358 0-18.754 8.396-18.754 18.754v297.138h416.188c10.358 0 18.754-8.397 18.754-18.754v-297.138z" fill="#365e7d"/><path d="m501.665 421.6v-326.478c0-10.358-8.397-18.754-18.754-18.754h-414.289c-10.358 0-18.754 8.397-18.754 18.754v326.478c0 10.358 8.397 18.754 18.754 18.754h414.289c10.358.001 18.754-8.396 18.754-18.754z" fill="#b1e4f9"/><path d="m485.745 76.368h-28.346c10.358 0 18.755 8.396 18.755 18.754v326.478c0 10.358-8.397 18.754-18.755 18.754h28.346c10.358 0 18.755-8.396 18.755-18.754v-326.478c0-10.358-8.397-18.754-18.755-18.754z" fill="#90d8f9"/><path d="m128.643 476.727v-299.516c0-3.866 3.134-7 7-7h53.026c3.866 0 7 3.134 7 7v299.516c0 3.866-3.134 7-7 7h-53.026c-3.866 0-7-3.134-7-7z" fill="#e28086"/><path d="m188.669 170.211h-26.169c3.866 0 7 3.134 7 7v299.516c0 3.866-3.134 7-7 7h26.169c3.866 0 7-3.134 7-7v-299.516c0-3.866-3.134-7-7-7z" fill="#dd636e"/><path d="m278.046 293.929-35.633-35.633-6.394 22.365-5.641 19.729c-1.005 3.514 2.06 6.578 5.574 5.574l18.86-5.392-1.363.39z" fill="#e7ecf6"/><path d="m421.119 150.856c5.348-5.348 5.348-14.018 0-19.366l-16.267-16.267c-5.348-5.348-14.018-5.348-19.366 0l-12.742 12.742 35.633 35.633z" fill="#e28086"/><path d="m233.237 185.75h184.317v50.392h-184.317z" fill="#ecbe6b" transform="matrix(.707 -.707 .707 .707 -53.856 291.874)"/><path d="m230.795 298.931-.417 1.459c-1.005 3.514 2.06 6.579 5.574 5.574 19.667-5.623 7.832-2.239 42.095-12.035l-11.339-11.339-8.504 8.504-24.598 7.033z" fill="#d8e2f1"/><path d="m421.119 131.49-16.267-16.267c-4.948-4.948-12.735-5.308-18.108-1.1l14.533 14.533c5.348 5.348 5.348 14.018 0 19.366l-4.238 4.237 11.339 11.339 12.742-12.742c5.347-5.348 5.347-14.019-.001-19.366z" fill="#dd636e"/><path d="m397.039 152.258c-4.888 4.888-125.447 125.447-130.332 130.332l11.339 11.339 130.332-130.332z" fill="#eab14d"/></g><g><path d="m280.107 301.14c.006-.002.011-.004.017-.006 1.229-.353 2.383-1.06 3.225-1.902 6.258-6.258 136.762-136.763 143.073-143.074 5.595-5.595 7.388-13.565 5.406-20.695h25.574c4.143 0 7.5-3.358 7.5-7.5s-3.357-7.5-7.5-7.5h-36.702l-10.545-10.544c-8.264-8.264-21.709-8.264-29.973 0l-10.544 10.544h-139.452c-4.142 0-7.5 3.358-7.5 7.5 0 .164.007 173.765.007 173.765.004 3.144 1.221 6.194 3.474 8.446 3.07 3.071 7.615 4.211 11.846 3zm-2.061-17.818-25.026-25.026 119.726-119.726 25.026 25.026zm76.592-147.858-116.952 116.953v-116.953zm-115.569 161.808 7.051-24.662 17.61 17.61c-9.202 2.633-15.571 4.453-24.661 7.052zm176.746-151.72-7.438 7.438-25.026-25.026 7.438-7.438c2.418-2.42 6.339-2.421 8.758 0 16.091 16.091 9.532 9.531 16.268 16.267 2.422 2.421 2.421 6.338 0 8.759z"/><path d="m504.5 336.526c4.143 0 7.5-3.358 7.5-7.5v-233.904c0-14.477-11.778-26.254-26.255-26.254h-16.112v-21.84c0-14.477-11.777-26.254-26.254-26.254h-417.125c-14.668-.001-26.255 11.959-26.254 26.254v54.613c0 4.142 3.358 7.5 7.5 7.5s7.5-3.358 7.5-7.5v-54.614c-.001-6.365 5.162-11.254 11.254-11.254h417.125c6.205 0 11.254 5.049 11.254 11.254v21.84c-47.515 0-337.164 0-386.011 0-14.477 0-26.254 11.778-26.254 26.254v289.639h-16.114c-6.206 0-11.254-5.049-11.254-11.254v-236.865c0-4.142-3.358-7.5-7.5-7.5s-7.5 3.358-7.5 7.5v236.865c0 14.477 11.778 26.254 26.254 26.254h16.113v21.84c0 14.477 11.778 26.254 26.254 26.254h52.521v28.872c0 7.995 6.505 14.5 14.5 14.5h53.026c7.995 0 14.5-6.505 14.5-14.5v-28.872h282.576c14.477 0 26.255-11.778 26.255-26.254v-57.574c0-4.142-3.357-7.5-7.5-7.5s-7.5 3.358-7.5 7.5v57.574c0 6.206-5.049 11.254-11.255 11.254h-282.575v-255.643c0-7.995-6.505-14.5-14.5-14.5h-53.026c-7.995 0-14.5 6.505-14.5 14.5v255.644h-52.521c-6.206 0-11.254-5.049-11.254-11.254 0-6.766 0-319.697 0-326.478 0-6.206 5.049-11.254 11.254-11.254h417.124c6.206 0 11.255 5.049 11.255 11.254v233.904c-.001 4.141 3.356 7.499 7.499 7.499zm-368.357-158.815h52.026v28.372h-11.169c-4.142 0-7.5 3.358-7.5 7.5s3.358 7.5 7.5 7.5h11.169v41.693h-11.169c-4.142 0-7.5 3.358-7.5 7.5s3.358 7.5 7.5 7.5h11.169v41.693h-11.169c-4.142 0-7.5 3.358-7.5 7.5s3.358 7.5 7.5 7.5h11.169v41.693h-11.169c-4.142 0-7.5 3.358-7.5 7.5s3.358 7.5 7.5 7.5h11.169v41.693h-11.169c-4.142 0-7.5 3.358-7.5 7.5s3.358 7.5 7.5 7.5h11.169v28.372h-52.026v-35.872c0-9.486 0-251.398 0-262.644z"/></g></g></svg>