<svg id="Capa_1" enable-background="new 0 0 512 512" height="512" viewBox="0 0 512 512" width="512" xmlns="http://www.w3.org/2000/svg"><g><g><path d="m435.165 7.5h-351.165c-8.284 0-15 6.716-15 15v400.446h381.165v-400.446c0-8.284-6.715-15-15-15z" fill="#e7ecf6"/><path d="m438 7.5h-31.181c8.284 0 15 6.716 15 15v400.446h31.181v-400.446c0-8.284-6.716-15-15-15z" fill="#d8e2f1"/><path d="m483.165 492.5v-289.516c0-6.627-5.373-12-12-12-15.405 0-243.83 0-255.688 0l-42.711-52.567c-2.279-2.804-5.7-4.433-9.313-4.433h-125.453c-6.627 0-12 5.373-12 12v45 301.516c0 6.627 5.373 12 12 12h433.165c6.628 0 12-5.373 12-12z" fill="#eab14d"/><path d="m399.985 422.454h-276.985c-5.523 0-10-4.477-10-10v-86.962c0-5.523 4.477-10 10-10h276.985c5.523 0 10 4.477 10 10v86.962c0 5.523-4.477 10-10 10z" fill="#ffd064"/><g><path d="m474 190.984h-31.181c6.627 0 12 5.373 12 12v289.516c0 6.627-5.373 12-12 12h31.181c6.627 0 12-5.373 12-12v-289.516c0-6.627-5.373-12-12-12z" fill="#e7a52e"/></g></g><g><path d="m474 183.484h-13.5v-89.418c0-4.142-3.357-7.5-7.5-7.5s-7.5 3.358-7.5 7.5v89.418h-223.618l-40.459-49.797c-3.72-4.578-9.236-7.203-15.135-7.203h-89.788v-103.984c0-4.136 3.364-7.5 7.5-7.5h354c4.136 0 7.5 3.364 7.5 7.5v36.566c0 4.142 3.357 7.5 7.5 7.5s7.5-3.358 7.5-7.5v-36.566c0-12.407-10.094-22.5-22.5-22.5h-354c-12.406 0-22.5 10.093-22.5 22.5v103.984h-23.5c-10.752 0-19.5 8.748-19.5 19.5v249.552c0 4.142 3.357 7.5 7.5 7.5s7.5-3.358 7.5-7.5v-249.552c0-2.481 2.019-4.5 4.5-4.5h128.288c1.361 0 2.635.606 3.492 1.662l42.711 52.567c1.425 1.753 3.563 2.771 5.821 2.771h255.688c2.481 0 4.5 2.019 4.5 4.5v289.516c0 2.481-2.019 4.5-4.5 4.5h-436c-2.481 0-4.5-2.019-4.5-4.5v-61.871c0-4.142-3.357-7.5-7.5-7.5s-7.5 3.358-7.5 7.5v61.871c0 10.752 8.748 19.5 19.5 19.5h436c10.752 0 19.5-8.748 19.5-19.5v-289.516c0-10.752-8.748-19.5-19.5-19.5z"/><path d="m399.984 429.954c9.649 0 17.5-7.851 17.5-17.5v-86.961c0-9.649-7.851-17.5-17.5-17.5h-276.984c-9.649 0-17.5 7.851-17.5 17.5v86.961c0 9.649 7.851 17.5 17.5 17.5zm-279.484-17.5v-86.961c0-1.378 1.121-2.5 2.5-2.5h276.984c1.379 0 2.5 1.122 2.5 2.5v86.961c0 1.378-1.121 2.5-2.5 2.5h-276.984c-1.379 0-2.5-1.122-2.5-2.5z"/></g></g></svg>