<svg id="Capa_1" enable-background="new 0 0 512 512" height="512" viewBox="0 0 512 512" width="512" xmlns="http://www.w3.org/2000/svg"><g><g><path d="m473.909 188.834 27.756-17.844v-77.823c0-16.569-13.431-30-30-30h-434.165c-16.569 0-30 13.431-30 30v76l19.666 19.667z" fill="#e28086"/><path d="m473.319 93.167v95.667h.591l30.591-19.667v-76c0-16.569-13.431-30-30-30h-31.181c16.567 0 29.999 13.432 29.999 30z" fill="#dd636e"/><path d="m501.665 470.667v-301.5h-494.165v301.5c0 16.568 13.431 30 30 30h434.165c16.569 0 30-13.431 30-30z" fill="#e7ecf6"/><path d="m200.456 116.333c-11.874 0-21.5-9.626-21.5-21.5v-78.852c0-2.567 2.081-4.649 4.649-4.649h33.703c2.567 0 4.649 2.081 4.649 4.649v78.851c-.001 11.875-9.627 21.501-21.501 21.501z" fill="#bed8fb"/><path d="m89.368 116.333c-11.874 0-21.5-9.626-21.5-21.5v-78.852c0-2.567 2.081-4.649 4.649-4.649h33.703c2.567 0 4.649 2.081 4.649 4.649v78.851c-.001 11.875-9.627 21.501-21.501 21.501z" fill="#bed8fb"/><path d="m311.544 116.333c-11.874 0-21.5-9.626-21.5-21.5v-78.852c0-2.567 2.081-4.649 4.649-4.649h33.703c2.567 0 4.649 2.081 4.649 4.649v78.851c-.001 11.875-9.627 21.501-21.501 21.501z" fill="#bed8fb"/><path d="m422.632 116.333c-11.874 0-21.5-9.626-21.5-21.5v-78.852c0-2.567 2.081-4.649 4.649-4.649h33.703c2.567 0 4.649 2.081 4.649 4.649v78.851c0 11.875-9.626 21.501-21.501 21.501z" fill="#bed8fb"/><path d="m217.307 11.333h-22.677c2.567 0 4.649 2.082 4.649 4.649v78.851c0 7.707-4.068 14.447-10.162 18.243 3.295 2.052 7.171 3.257 11.339 3.257 11.874 0 21.5-9.626 21.5-21.5v-78.852c0-2.567-2.081-4.648-4.649-4.648z" fill="#9dc6fb"/><path d="m106.219 11.333h-22.677c2.567 0 4.649 2.082 4.649 4.649v78.851c0 7.707-4.069 14.447-10.162 18.243 3.294 2.052 7.171 3.257 11.339 3.257 11.874 0 21.5-9.626 21.5-21.5v-78.852c0-2.567-2.081-4.648-4.649-4.648z" fill="#9dc6fb"/><path d="m328.396 11.333h-22.677c2.567 0 4.649 2.082 4.649 4.649v78.851c0 7.707-4.069 14.447-10.162 18.243 3.294 2.052 7.171 3.257 11.338 3.257 11.874 0 21.5-9.626 21.5-21.5v-78.852c0-2.567-2.081-4.648-4.648-4.648z" fill="#9dc6fb"/><path d="m439.484 11.333h-22.677c2.567 0 4.649 2.082 4.649 4.649v78.851c0 7.707-4.069 14.447-10.162 18.243 3.295 2.052 7.171 3.257 11.339 3.257 11.874 0 21.5-9.626 21.5-21.5v-78.852c0-2.567-2.082-4.648-4.649-4.648z" fill="#9dc6fb"/><g fill="#407093"><path d="m223.754 269.884h-41.648c-3.866 0-7-3.134-7-7v-41.648c0-3.866 3.134-7 7-7h41.648c3.866 0 7 3.134 7 7v41.648c0 3.866-3.134 7-7 7z"/><path d="m329.893 269.884h-41.648c-3.866 0-7-3.134-7-7v-41.648c0-3.866 3.134-7 7-7h41.648c3.866 0 7 3.134 7 7v41.648c0 3.866-3.134 7-7 7z"/><path d="m436.033 269.884h-41.648c-3.866 0-7-3.134-7-7v-41.648c0-3.866 3.134-7 7-7h41.648c3.866 0 7 3.134 7 7v41.648c0 3.866-3.134 7-7 7z"/><path d="m117.615 455.598h-41.648c-3.866 0-7-3.134-7-7v-41.648c0-3.866 3.134-7 7-7h41.648c3.866 0 7 3.134 7 7v41.648c0 3.866-3.134 7-7 7z"/><path d="m223.754 455.598h-41.648c-3.866 0-7-3.134-7-7v-41.648c0-3.866 3.134-7 7-7h41.648c3.866 0 7 3.134 7 7v41.648c0 3.866-3.134 7-7 7z"/><path d="m329.893 455.598h-41.648c-3.866 0-7-3.134-7-7v-41.648c0-3.866 3.134-7 7-7h41.648c3.866 0 7 3.134 7 7v41.648c0 3.866-3.134 7-7 7z"/><path d="m436.033 455.598h-41.648c-3.866 0-7-3.134-7-7v-41.648c0-3.866 3.134-7 7-7h41.648c3.866 0 7 3.134 7 7v41.648c0 3.866-3.134 7-7 7z"/><path d="m117.615 362.741h-41.648c-3.866 0-7-3.134-7-7v-41.648c0-3.866 3.134-7 7-7h41.648c3.866 0 7 3.134 7 7v41.648c0 3.866-3.134 7-7 7z"/><path d="m223.754 362.741h-41.648c-3.866 0-7-3.134-7-7v-41.648c0-3.866 3.134-7 7-7h41.648c3.866 0 7 3.134 7 7v41.648c0 3.866-3.134 7-7 7z"/><path d="m329.893 362.741h-41.648c-3.866 0-7-3.134-7-7v-41.648c0-3.866 3.134-7 7-7h41.648c3.866 0 7 3.134 7 7v41.648c0 3.866-3.134 7-7 7z"/><path d="m436.033 362.741h-41.648c-3.866 0-7-3.134-7-7v-41.648c0-3.866 3.134-7 7-7h41.648c3.866 0 7 3.134 7 7v41.648c0 3.866-3.134 7-7 7z"/></g><path d="m473.319 169.167v301.5c0 16.568-13.431 30-30 30h31.181c16.569 0 30-13.432 30-30v-301.5c-18.191 0-9.957 0-31.181 0z" fill="#d8e2f1"/></g><g><path d="m182.106 277.384h41.647c7.995 0 14.5-6.505 14.5-14.5v-41.647c0-7.995-6.505-14.5-14.5-14.5h-41.647c-7.995 0-14.5 6.505-14.5 14.5v41.647c0 7.995 6.505 14.5 14.5 14.5zm.5-55.647h40.647v40.647h-40.647z"/><path d="m288.246 277.384h41.647c7.995 0 14.5-6.505 14.5-14.5v-41.647c0-7.995-6.505-14.5-14.5-14.5h-41.647c-7.995 0-14.5 6.505-14.5 14.5v41.647c0 7.995 6.505 14.5 14.5 14.5zm.5-55.647h40.647v40.647h-40.647z"/><path d="m394.385 277.384h41.647c7.995 0 14.5-6.505 14.5-14.5v-41.647c0-7.995-6.505-14.5-14.5-14.5h-41.647c-7.995 0-14.5 6.505-14.5 14.5v41.647c0 7.995 6.505 14.5 14.5 14.5zm.5-55.647h40.647v40.647h-40.647z"/><path d="m61.468 448.598c0 7.995 6.505 14.5 14.5 14.5h41.647c7.995 0 14.5-6.505 14.5-14.5v-41.648c0-7.995-6.505-14.5-14.5-14.5h-41.647c-7.995 0-14.5 6.505-14.5 14.5zm15-41.148h40.647v40.648h-40.647z"/><path d="m167.606 448.598c0 7.995 6.505 14.5 14.5 14.5h41.647c7.995 0 14.5-6.505 14.5-14.5v-41.648c0-7.995-6.505-14.5-14.5-14.5h-41.647c-7.995 0-14.5 6.505-14.5 14.5zm15-41.148h40.647v40.648h-40.647z"/><path d="m273.746 448.598c0 7.995 6.505 14.5 14.5 14.5h41.647c7.995 0 14.5-6.505 14.5-14.5v-41.648c0-7.995-6.505-14.5-14.5-14.5h-41.647c-7.995 0-14.5 6.505-14.5 14.5zm15-41.148h40.647v40.648h-40.647z"/><path d="m379.885 448.598c0 7.995 6.505 14.5 14.5 14.5h41.647c7.995 0 14.5-6.505 14.5-14.5v-41.648c0-7.995-6.505-14.5-14.5-14.5h-41.647c-7.995 0-14.5 6.505-14.5 14.5zm15-41.148h40.647v40.648h-40.647z"/><path d="m75.968 370.241h41.647c7.995 0 14.5-6.505 14.5-14.5v-41.648c0-7.995-6.505-14.5-14.5-14.5h-41.647c-7.995 0-14.5 6.505-14.5 14.5v41.648c0 7.995 6.505 14.5 14.5 14.5zm.5-55.648h40.647v40.648h-40.647z"/><path d="m167.606 355.741c0 7.995 6.505 14.5 14.5 14.5h41.647c7.995 0 14.5-6.505 14.5-14.5v-41.648c0-7.995-6.505-14.5-14.5-14.5h-41.647c-7.995 0-14.5 6.505-14.5 14.5zm15-41.148h40.647v40.648h-40.647z"/><path d="m273.746 355.741c0 7.995 6.505 14.5 14.5 14.5h41.647c7.995 0 14.5-6.505 14.5-14.5v-41.648c0-7.995-6.505-14.5-14.5-14.5h-41.647c-7.995 0-14.5 6.505-14.5 14.5zm15-41.148h40.647v40.648h-40.647z"/><path d="m379.885 355.741c0 7.995 6.505 14.5 14.5 14.5h41.647c7.995 0 14.5-6.505 14.5-14.5v-41.648c0-7.995-6.505-14.5-14.5-14.5h-41.647c-7.995 0-14.5 6.505-14.5 14.5zm15-41.148h40.647v40.648h-40.647z"/><path d="m504.5 117.416c4.143 0 7.5-3.358 7.5-7.5v-16.749c0-20.678-16.822-37.5-37.5-37.5h-22.867v-39.686c0-6.699-5.45-12.149-12.149-12.149h-33.702c-6.699 0-12.149 5.45-12.149 12.149v39.686h-53.088v-39.686c0-6.699-5.45-12.149-12.148-12.149h-33.703c-6.698 0-12.148 5.45-12.148 12.149v39.686h-53.088v-39.686c0-6.699-5.45-12.149-12.148-12.149h-33.703c-6.698 0-12.148 5.45-12.148 12.149v39.686h-53.088v-39.686c0-6.699-5.45-12.149-12.149-12.149h-33.705c-6.699 0-12.149 5.45-12.149 12.149v39.686h-22.868c-20.678 0-37.5 16.823-37.5 37.5v281.643c0 4.142 3.357 7.5 7.5 7.5s7.5-3.358 7.5-7.5v-198.143h482v294c0 12.407-10.094 22.5-22.5 22.5h-437c-12.406 0-22.5-10.093-22.5-22.5v-60.857c0-4.142-3.357-7.5-7.5-7.5s-7.5 3.358-7.5 7.5v60.857c0 20.678 16.822 37.5 37.5 37.5h437c20.678 0 37.5-16.822 37.5-37.5 0-12.057 0-314.78 0-325.752 0-4.142-3.357-7.5-7.5-7.5s-7.5 3.358-7.5 7.5v16.752h-482v-68.5c0-12.407 10.094-22.5 22.5-22.5h22.867v24.165c0 15.99 13.009 29 29 29s0 0 0 0c15.991 0 29-13.01 29-29v-24.165h53.088v24.165c0 15.991 13.01 29 29 29s29-13.009 29-29v-24.165h53.088v24.165c0 15.986 13.017 29 29 29 15.99 0 29-13.009 29-29v-24.165h53.088v24.165c0 15.991 13.01 29 29.001 29 15.99 0 29-13.009 29-29v-24.165h22.868c12.406 0 22.5 10.093 22.5 22.5v16.748c0 4.143 3.357 7.501 7.5 7.501zm-429.133-98.583h28.001v76c0 7.72-6.281 14-14.001 14s-14-6.28-14-14c0-13.952 0-61.727 0-76zm139.089 76c0 7.72-6.28 14-14 14s-14-6.28-14-14c0-13.952 0-61.726 0-76h28zm111.088 0c0 7.72-6.28 14-14 14-7.738 0-14-6.303-14-14 0-51.423 0-23.081 0-76h28zm111.089 0c0 7.72-6.28 14-14 14s-14-6.28-14-14c0-7.298-.001-44.92-.001-76h28.001z"/></g></g></svg>