<svg id="Capa_1" enable-background="new 0 0 512 512" height="512" viewBox="0 0 512 512" width="512" xmlns="http://www.w3.org/2000/svg"><g><g><path d="m437.673 80.414c0-14.53-11.779-26.308-26.308-26.308h-377.557c-14.529-.001-26.308 11.778-26.308 26.308v66.648l21.443 21.443h377.549l31.181-21.443z" fill="#e28086"/><path d="m412.161 80.414v88.091l31.181-21.443v-66.648c0-14.53-11.779-26.308-26.308-26.308h-31.181c14.529-.001 26.308 11.778 26.308 26.308z" fill="#dd636e"/><path d="m440.507 411.461v-264.399h-433.007v264.399c0 14.53 11.779 26.308 26.308 26.308h380.391c14.53 0 26.308-11.779 26.308-26.308z" fill="#e7ecf6"/><path d="m412.161 147.062v264.399c0 14.53-11.779 26.308-26.308 26.308h31.181c14.53 0 26.308-11.779 26.308-26.308v-264.399z" fill="#d8e2f1"/><path d="m176.712 100.728c-10.413 0-18.854-8.441-18.854-18.854v-69.148c0-2.251 1.825-4.077 4.077-4.077h29.556c2.251 0 4.077 1.825 4.077 4.077v69.148c-.002 10.413-8.443 18.854-18.856 18.854z" fill="#bed8fb"/><path d="m79.294 100.728c-10.413 0-18.854-8.441-18.854-18.854v-69.148c0-2.251 1.825-4.077 4.077-4.077h29.556c2.251 0 4.077 1.825 4.077 4.077v69.148c-.002 10.413-8.443 18.854-18.856 18.854z" fill="#bed8fb"/><path d="m274.13 100.728c-10.413 0-18.855-8.441-18.855-18.854v-69.148c0-2.251 1.825-4.077 4.077-4.077h29.556c2.251 0 4.077 1.825 4.077 4.077v69.148c0 10.413-8.442 18.854-18.855 18.854z" fill="#bed8fb"/><path d="m371.548 100.728c-10.413 0-18.854-8.441-18.854-18.854v-69.148c0-2.251 1.825-4.077 4.077-4.077h29.556c2.251 0 4.077 1.825 4.077 4.077v69.148c-.001 10.413-8.442 18.854-18.856 18.854z" fill="#bed8fb"/><g fill="#407093"><path d="m194.216 235.385h-36.523c-3.39 0-6.139-2.748-6.139-6.139v-36.523c0-3.39 2.748-6.139 6.139-6.139h36.523c3.39 0 6.139 2.748 6.139 6.139v36.523c0 3.391-2.748 6.139-6.139 6.139z"/><path d="m290.222 235.385h-36.523c-3.39 0-6.139-2.748-6.139-6.139v-36.523c0-3.39 2.748-6.139 6.139-6.139h36.523c3.39 0 6.139 2.748 6.139 6.139v36.523c-.001 3.391-2.749 6.139-6.139 6.139z"/><path d="m98.211 398.246h-36.523c-3.39 0-6.139-2.748-6.139-6.139v-36.523c0-3.39 2.748-6.139 6.139-6.139h36.523c3.39 0 6.139 2.748 6.139 6.139v36.523c0 3.39-2.748 6.139-6.139 6.139z"/><path d="m194.216 398.246h-36.523c-3.39 0-6.139-2.748-6.139-6.139v-36.523c0-3.39 2.748-6.139 6.139-6.139h36.523c3.39 0 6.139 2.748 6.139 6.139v36.523c0 3.39-2.748 6.139-6.139 6.139z"/><path d="m290.222 398.246h-36.523c-3.39 0-6.139-2.748-6.139-6.139v-36.523c0-3.39 2.748-6.139 6.139-6.139h36.523c3.39 0 6.139 2.748 6.139 6.139v36.523c-.001 3.39-2.749 6.139-6.139 6.139z"/><path d="m98.211 316.815h-36.523c-3.39 0-6.139-2.748-6.139-6.139v-36.523c0-3.39 2.748-6.139 6.139-6.139h36.523c3.39 0 6.139 2.748 6.139 6.139v36.523c0 3.391-2.748 6.139-6.139 6.139z"/></g><path d="m194.216 316.815h-36.523c-3.39 0-6.139-2.748-6.139-6.139v-36.523c0-3.39 2.748-6.139 6.139-6.139h36.523c3.39 0 6.139 2.748 6.139 6.139v36.523c0 3.391-2.748 6.139-6.139 6.139z" fill="#dd636e"/><path d="m290.222 316.815h-36.523c-3.39 0-6.139-2.748-6.139-6.139v-36.523c0-3.39 2.748-6.139 6.139-6.139h36.523c3.39 0 6.139 2.748 6.139 6.139v36.523c-.001 3.391-2.749 6.139-6.139 6.139z" fill="#407093"/><path d="m98.211 235.385h-36.523c-3.39 0-6.139-2.748-6.139-6.139v-36.523c0-3.39 2.748-6.139 6.139-6.139h36.523c3.39 0 6.139 2.748 6.139 6.139v36.523c0 3.391-2.748 6.139-6.139 6.139z" fill="#407093"/><path d="m416.715 345.52c-38.706 0-70.083-31.377-70.083-70.083v-70.516h140.166v70.516c0 38.706-31.377 70.083-70.083 70.083z" fill="#bed8fb"/><path d="m416.715 345.52c38.706 0 70.083 31.377 70.083 70.083v70.516h-140.166v-70.516c0-38.706 31.378-70.083 70.083-70.083z" fill="#bed8fb"/><path d="m191.49 8.649h-19.843c2.251 0 4.077 1.825 4.077 4.077v69.148c0 6.768-3.578 12.686-8.933 16.011 2.884 1.791 6.276 2.843 9.921 2.843 10.413 0 18.854-8.441 18.854-18.854v-69.148c0-2.252-1.825-4.077-4.076-4.077z" fill="#9dc6fb"/><path d="m94.071 8.649h-19.842c2.251 0 4.077 1.825 4.077 4.077v69.148c0 6.768-3.578 12.686-8.933 16.011 2.884 1.791 6.276 2.843 9.921 2.843 10.413 0 18.854-8.441 18.854-18.854v-69.148c0-2.252-1.825-4.077-4.077-4.077z" fill="#9dc6fb"/><path d="m288.908 8.649h-19.843c2.251 0 4.077 1.825 4.077 4.077v69.148c0 6.768-3.578 12.686-8.933 16.011 2.884 1.791 6.276 2.843 9.921 2.843 10.413 0 18.854-8.441 18.854-18.854v-69.148c.001-2.252-1.825-4.077-4.076-4.077z" fill="#9dc6fb"/><path d="m386.326 8.649h-19.843c2.251 0 4.077 1.825 4.077 4.077v69.148c0 6.768-3.578 12.686-8.933 16.011 2.884 1.791 6.276 2.843 9.921 2.843 10.413 0 18.854-8.441 18.854-18.854v-69.148c.001-2.252-1.824-4.077-4.076-4.077z" fill="#9dc6fb"/><path d="m464.121 204.921v70.516c0 34.844-25.433 63.735-58.744 69.156 3.692.601 7.477.927 11.339.927 38.706 0 70.083-31.377 70.083-70.083v-70.516z" fill="#9dc6fb"/><path d="m416.715 345.52c-3.862 0-7.646.325-11.339.927 33.312 5.421 58.744 34.313 58.744 69.156v70.516h22.677v-70.516c.001-38.706-31.376-70.083-70.082-70.083z" fill="#9dc6fb"/><path d="m501.665 488.177v-.46c0-8.38-6.793-15.174-15.174-15.174h-142.387c-8.38 0-15.174 6.793-15.174 15.174v.46c0 8.38 6.793 15.174 15.174 15.174h142.388c8.38 0 15.173-6.794 15.173-15.174z" fill="#365e7d"/><path d="m501.665 201.758c0-8.38-6.793-15.173-15.174-15.173h-142.387c-8.38 0-15.174 6.793-15.174 15.173v.46c0 8.38 6.793 15.174 15.174 15.174h142.388c7.884 0 15.173-6.133 15.173-15.634z" fill="#365e7d"/><path d="m489.326 472.544h-28.346c8.38 0 15.173 6.793 15.173 15.174v.46c0 8.38-6.793 15.174-15.174 15.174h28.346c8.38 0 15.174-6.793 15.174-15.174v-.46c.001-8.381-6.792-15.174-15.173-15.174z" fill="#2b4d66"/><path d="m489.326 186.585h-28.346c8.38 0 15.174 6.793 15.174 15.173v.46c0 8.38-6.793 15.174-15.174 15.174h28.346c8.38 0 15.174-6.793 15.174-15.174v-.46c0-8.38-6.793-15.173-15.174-15.173z" fill="#2b4d66"/><path d="m376.632 256v19.437c0 22.102 17.981 40.083 40.083 40.083s40.083-17.981 40.083-40.083v-19.437z" fill="#eab14d"/><path d="m456.798 447.032v-2.436c0-22.102-17.981-40.083-40.083-40.083s-40.083 17.981-40.083 40.083v2.436z" fill="#eab14d"/></g><g><path d="m157.693 242.885h36.523c7.521 0 13.639-6.118 13.639-13.638v-36.523c0-7.521-6.118-13.639-13.639-13.639h-36.523c-7.521 0-13.639 6.118-13.639 13.639v36.523c.001 7.52 6.119 13.638 13.639 13.638zm1.362-48.8h33.8v33.8h-33.8z"/><path d="m253.699 242.885h36.523c7.521 0 13.639-6.118 13.639-13.638v-36.523c0-7.521-6.118-13.639-13.639-13.639h-36.523c-7.521 0-13.639 6.118-13.639 13.639v36.523c0 7.52 6.118 13.638 13.639 13.638zm1.361-48.8h33.8v33.8h-33.8z"/><path d="m98.211 341.945h-36.523c-7.521 0-13.639 6.118-13.639 13.639v36.523c0 7.521 6.118 13.639 13.639 13.639h36.523c7.521 0 13.639-6.118 13.639-13.639v-36.523c0-7.521-6.118-13.639-13.639-13.639zm-1.361 48.801h-33.8v-33.8h33.8z"/><path d="m144.055 392.107c0 7.521 6.118 13.639 13.639 13.639h36.523c7.521 0 13.639-6.118 13.639-13.639v-36.523c0-7.521-6.118-13.639-13.639-13.639h-36.523c-7.521 0-13.639 6.118-13.639 13.639zm15-35.162h33.8v33.8h-33.8z"/><path d="m240.06 392.107c0 7.521 6.118 13.639 13.639 13.639h36.523c7.521 0 13.639-6.118 13.639-13.639v-36.523c0-7.521-6.118-13.639-13.639-13.639h-36.523c-7.521 0-13.639 6.118-13.639 13.639zm15-35.162h33.8v33.8h-33.8z"/><path d="m98.211 260.515h-36.523c-7.521 0-13.639 6.118-13.639 13.639v36.523c0 7.521 6.118 13.639 13.639 13.639h36.523c7.521 0 13.639-6.118 13.639-13.639v-36.523c0-7.521-6.118-13.639-13.639-13.639zm-1.361 48.8h-33.8v-33.8h33.8z"/><path d="m144.055 310.677c0 7.521 6.118 13.639 13.639 13.639h36.523c7.521 0 13.639-6.118 13.639-13.639v-36.523c0-7.521-6.118-13.639-13.639-13.639h-36.523c-7.521 0-13.639 6.118-13.639 13.639zm15-35.162h33.8v33.8h-33.8z"/><path d="m240.06 310.677c0 7.521 6.118 13.639 13.639 13.639h36.523c7.521 0 13.639-6.118 13.639-13.639v-36.523c0-7.521-6.118-13.639-13.639-13.639h-36.523c-7.521 0-13.639 6.118-13.639 13.639zm15-35.162h33.8v33.8h-33.8z"/><path d="m98.211 179.085h-36.523c-7.521 0-13.639 6.118-13.639 13.639v36.523c0 7.52 6.118 13.638 13.639 13.638h36.523c7.521 0 13.639-6.118 13.639-13.638v-36.523c0-7.521-6.118-13.639-13.639-13.639zm-1.361 48.8h-33.8v-33.8h33.8z"/><path d="m486.798 242.242c4.142 0 7.5-3.358 7.5-7.5v-10.406c10.118-2.273 17.702-11.324 17.702-22.117v-.46c0-12.502-10.171-22.673-22.673-22.673h-38.485c0-15.624 0-88.32 0-98.671 0-18.642-15.166-33.808-33.808-33.808h-19.131v-33.88c0-6.383-5.193-11.577-11.577-11.577h-29.556c-6.383 0-11.577 5.193-11.577 11.577v33.88h-44.709v-33.88c0-6.383-5.193-11.577-11.577-11.577h-29.556c-6.383 0-11.577 5.193-11.577 11.577v33.88h-44.709v-33.88c0-6.383-5.193-11.577-11.577-11.577h-29.556c-6.383 0-11.577 5.193-11.577 11.577v33.88h-44.709v-33.88c0-6.383-5.193-11.577-11.577-11.577h-29.553c-6.383 0-11.577 5.193-11.577 11.577v33.88h-19.13c-18.642-.002-33.809 15.164-33.809 33.807v331.047c0 18.642 15.167 33.809 33.809 33.809h69.675c4.142 0 7.5-3.358 7.5-7.5s-3.358-7.5-7.5-7.5h-69.675c-10.371-.001-18.809-8.438-18.809-18.81v-256.898h420.842v24.523c-10.127 0-80.726 0-91.738 0-12.502 0-22.673 10.171-22.673 22.673v.46c0 10.64 7.448 19.816 17.702 22.124v51.094c0 29.917 17.294 57.21 44.315 70.083-26.523 12.655-44.315 39.64-44.315 70.083v14.667h-200.649c-4.142 0-7.5 3.358-7.5 7.5s3.358 7.5 7.5 7.5h200.648v20.33c-9.63 2.164-17.702 10.678-17.702 22.578 0 12.502 10.171 22.674 22.673 22.674h145.223c12.502 0 22.673-10.171 22.673-22.674 0-11.827-8.006-20.399-17.702-22.578v-49.997c0-30.887-18.147-57.609-44.336-70.083 26.188-12.474 44.336-39.196 44.336-70.083v-5.695c0-4.142-3.358-7.5-7.5-7.5s-7.5 3.358-7.5 7.5v5.695c0 34.508-28.075 62.583-62.583 62.583s-62.583-28.074-62.583-62.583v-50.545h125.166v9.85c.001 4.143 3.359 7.501 7.501 7.501zm-126.604-226.093h22.709v37.957 27.769c0 6.261-5.094 11.354-11.354 11.354s-11.354-5.094-11.354-11.354v-27.77-37.956zm-97.418 0h22.709v37.947.01 27.769c0 6.261-5.094 11.354-11.354 11.354-5.478 0-10.063-3.9-11.123-9.069-.151-.739-.231-1.503-.231-2.285v-27.77-37.956zm-97.419 0h22.709v37.957 27.769c0 6.261-5.094 11.354-11.354 11.354s-11.354-5.094-11.354-11.354v-27.77-37.956zm-97.418 0h22.709v37.957 27.769c0 6.261-5.094 11.354-11.354 11.354s-11.354-5.094-11.354-11.354v-27.77-37.956zm-52.939 123.413v-59.148c0-10.371 8.438-18.808 18.809-18.808h19.13v20.269c0 14.532 11.823 26.354 26.354 26.354s26.354-11.823 26.354-26.354v-20.27h44.709v20.269c0 14.532 11.823 26.354 26.354 26.354s26.354-11.823 26.354-26.354v-20.269h44.709v20.269c0 14.532 11.823 26.354 26.354 26.354 2.271 0 4.475-.289 6.579-.831 11.359-2.93 19.776-13.262 19.776-25.523v-20.269h44.709v20.269c0 14.532 11.823 26.354 26.354 26.354s26.354-11.823 26.354-26.354v-20.269h19.131c10.371 0 18.808 8.438 18.808 18.808v59.148h-420.838zm482 348.615c0 4.231-3.442 7.674-7.673 7.674h-145.223c-4.231 0-7.673-3.442-7.673-7.674 0-5.111 3.716-8.134 7.673-8.134h145.223c3.932 0 7.673 2.992 7.673 8.134zm-17.702-72.574v49.441h-125.166v-27.274-22.167c0-34.508 28.075-62.583 62.583-62.583s62.583 28.074 62.583 62.583zm-135.194-205.711c-4.231 0-7.673-3.442-7.673-7.673v-.46c0-4.231 3.442-7.673 7.673-7.673h145.223c4.231 0 7.673 3.442 7.673 7.673v.46c0 4.231-3.442 7.673-7.673 7.673-2.55 0-143.91 0-145.223 0z"/><path d="m376.632 248.5c-4.142 0-7.5 3.358-7.5 7.5v19.437c0 26.237 21.346 47.583 47.583 47.583s47.583-21.346 47.583-47.583v-19.437c0-4.142-3.358-7.5-7.5-7.5zm72.666 26.937c0 17.966-14.617 32.583-32.583 32.583s-32.583-14.617-32.583-32.583v-11.937h65.166z"/><path d="m369.132 447.032c0 4.142 3.358 7.5 7.5 7.5h80.166c4.142 0 7.5-3.358 7.5-7.5 0-31.462-23.343-50.018-47.583-50.018-24.341 0-47.583 18.626-47.583 50.018zm47.583-35.018c16.244 0 29.75 11.949 32.19 27.518h-64.38c2.441-15.569 15.947-27.518 32.19-27.518z"/></g></g></svg>