<svg id="Capa_1" enable-background="new 0 0 512 512" height="512" viewBox="0 0 512 512" width="512" xmlns="http://www.w3.org/2000/svg"><g><g><path d="m364.862 16.279-29.125 13.852c-13.294 0-298.387 0-311.78 0l-13.903-14.9c-.625 1.09-2.554 3.902-2.554 8.445v440.93c0 8.421 6.826 15.247 15.247 15.247h209.333l10.451-13.288h124.112z" fill="#eab14d"/><path d="m333.587 96.82 30.64-81.589c-2.733-4.1-7.395-6.803-12.692-6.803h-328.788c-5.297 0-9.959 2.704-12.692 6.803l30.64 81.589c1.815 4.832 6.436 8.033 11.597 8.033h269.698c5.162 0 9.783-3.201 11.597-8.033z" fill="#ffd064"/><path d="m367.065 15.231-28.654 13.629v435.746c0 8.421-6.826 15.247-15.247 15.247h31.209c8.421 0 15.247-6.826 15.247-15.247v-440.93c0-3.124-.943-6.027-2.555-8.445z" fill="#e7a52e"/><circle cx="188.56" cy="185.534" fill="#407093" r="27.826"/><circle cx="188.56" cy="56.641" fill="#407093" r="23.221"/><path d="m354.373 8.428h-31.209c5.297 0 9.959 2.704 12.692 6.803l-30.64 81.589c-1.815 4.832-6.436 8.033-11.597 8.033h31.209c5.162 0 9.783-3.201 11.597-8.033l30.64-81.589c-2.733-4.099-7.395-6.803-12.692-6.803z" fill="#ecbe6b"/><path d="m243.289 163.904c-6.191 0-11.209 5.018-11.209 11.209v304.74h122.293c8.421 0 15.247-6.826 15.247-15.247v-300.702z" fill="#e7a52e"/><path d="m501.663 492.363v-317.25c0-6.191-5.019-11.209-11.209-11.209h-218.793c-6.191 0-11.209 5.018-11.209 11.209v317.25c0 6.191 5.019 11.209 11.209 11.209h218.793c6.19 0 11.209-5.019 11.209-11.209z" fill="#e7ecf6"/><path d="m504.5 492.363v-317.25c0-6.191-5.019-11.209-11.209-11.209h-30.889c6.191 0 11.209 5.018 11.209 11.209v317.25c0 6.191-5.019 11.209-11.209 11.209h30.889c6.19 0 11.209-5.019 11.209-11.209z" fill="#d8e2f1"/></g><g><path d="m466.05 235.293h-166.834c-4.107 0-7.688 3.164-7.811 7.269-.128 4.247 3.278 7.731 7.497 7.731h166.834c4.107 0 7.688-3.164 7.811-7.269.127-4.247-3.278-7.731-7.497-7.731z"/><path d="m466.05 300.043h-166.834c-4.107 0-7.688 3.164-7.811 7.269-.128 4.247 3.278 7.731 7.497 7.731h166.834c4.107 0 7.688-3.164 7.811-7.269.127-4.247-3.278-7.731-7.497-7.731z"/><path d="m466.05 360.168h-166.834c-4.107 0-7.688 3.164-7.811 7.269-.128 4.247 3.278 7.731 7.497 7.731h166.834c4.107 0 7.688-3.164 7.811-7.269.127-4.247-3.278-7.731-7.497-7.731z"/><path d="m466.05 420.293h-166.834c-4.107 0-7.688 3.164-7.811 7.269-.128 4.247 3.278 7.731 7.497 7.731h166.834c4.107 0 7.688-3.164 7.811-7.269.127-4.247-3.278-7.731-7.497-7.731z"/><path d="m504.731 227.366c4.105-.123 7.269-3.704 7.269-7.811v-44.442c0-10.333-8.376-18.709-18.709-18.709h-116.171v-132.729c0-12.51-10.182-22.747-22.748-22.747h-331.625c-.029 0-.057.003-.086.003-12.463.045-22.661 10.191-22.661 22.744v440.931c0 12.563 10.184 22.747 22.747 22.747h49.449c4.107 0 7.688-3.164 7.811-7.269.128-4.247-3.278-7.731-7.497-7.731h-49.763c-4.279 0-7.747-3.468-7.747-7.747v-414.874l18.674 49.726c2.897 7.713 10.379 12.896 18.618 12.896h113.754v45.981c-8.243 6.834-13.342 17.334-12.769 28.976.872 17.704 15.077 32.228 32.76 33.463 20.615 1.439 37.848-14.925 37.848-35.238 0-10.93-4.991-20.716-12.813-27.201v-45.98h113.754c8.287 0 15.705-5.138 18.619-12.896l18.674-49.725v106.672h-90.459c-10.45 0-18.709 8.601-18.709 18.709v297.24h-145.126c-4.107 0-7.688 3.164-7.811 7.269-.128 4.247 3.278 7.731 7.497 7.731h145.441v5.009c0 10.333 8.377 18.709 18.709 18.709h221.63c10.333 0 18.709-8.376 18.709-18.709v-237.18c0-4.107-3.164-7.688-7.269-7.811-4.247-.128-7.731 3.278-7.731 7.497v237.494c0 2.048-1.661 3.709-3.709 3.709h-221.63c-2.049 0-3.709-1.661-3.709-3.709v-317.251c0-1.911 1.583-3.709 3.709-3.709h221.63c2.045 0 3.709 1.664 3.709 3.709v44.756c0 4.219 3.483 7.624 7.731 7.497zm-317.348-21.539c-10.264-.582-18.637-9.033-19.126-19.302-.557-11.696 8.805-21.316 20.303-21.316 11.138 0 20.326 9.048 20.326 20.326 0 11.597-9.763 20.957-21.503 20.292zm8.69-54.813c-2.382-.514-4.967-.805-7.513-.805-2.584 0-5.188.3-7.514.805v-38.661h15.027zm-7.513-78.652c-8.699 0-15.978-7.205-15.715-16.193.236-8.049 6.767-14.769 14.807-15.223 9.079-.513 16.629 6.726 16.629 15.695 0 8.8-7.212 15.721-15.721 15.721zm-7.514 14.067c2.365.597 5.051.933 7.514.933 2.334 0 5.032-.307 7.513-.933v10.924h-15.027zm148.358 7.754c-.712 1.896-2.551 3.17-4.577 3.17h-113.754v-19.838c5.417-5.838 8.602-13.773 8.169-22.44-.772-15.446-13.255-28.113-28.689-29.092-17.838-1.132-32.714 13.058-32.714 30.658 0 8.054 3.119 15.389 8.208 20.874v19.839h-113.755c-2.025 0-3.864-1.274-4.576-3.169l-27.837-74.127c-.747-1.99.716-4.115 2.841-4.128.009 0 .018-.001.027-.001h331.626c.009 0 .017.001.025.001h.04c2.115.02 3.513 2.236 2.769 4.216z"/></g></g></svg>