<svg id="Capa_1" enable-background="new 0 0 512 512" height="512" viewBox="0 0 512 512" width="512" xmlns="http://www.w3.org/2000/svg"><g><g><path d="m469.244 488.936v-465.872c0-8.596-6.968-15.564-15.564-15.564h-340.604v497h340.604c8.596 0 15.564-6.968 15.564-15.564z" fill="#e7ecf6"/><path d="m153.023 504.5h-64.33c-8.596 0-15.564-6.968-15.564-15.564v-465.872c0-8.596 6.968-15.564 15.564-15.564h64.33z" fill="#95d6a4"/><g fill="#407093"><path d="m122.521 78.844v-1.741c0-10.121-8.204-18.325-18.325-18.325h-45.08c-10.601 0-19.195 8.594-19.195 19.195s8.594 19.195 19.195 19.195h45.08c10.121.001 18.325-8.203 18.325-18.324z"/><path d="m122.521 167.079v-1.741c0-10.12-8.204-18.325-18.325-18.325h-45.08c-10.601 0-19.195 8.594-19.195 19.195s8.594 19.195 19.195 19.195h45.08c10.121.001 18.325-8.204 18.325-18.324z"/><path d="m122.521 255.314v-1.741c0-10.121-8.204-18.325-18.325-18.325h-45.08c-10.601 0-19.195 8.594-19.195 19.195 0 10.601 8.594 19.195 19.195 19.195h45.08c10.121.001 18.325-8.203 18.325-18.324z"/><path d="m122.521 343.549v-1.741c0-10.12-8.204-18.325-18.325-18.325h-45.08c-10.601 0-19.195 8.594-19.195 19.195 0 10.601 8.594 19.195 19.195 19.195h45.08c10.121.001 18.325-8.204 18.325-18.324z"/><path d="m122.521 431.784v-1.741c0-10.12-8.204-18.325-18.325-18.325h-45.08c-10.601 0-19.195 8.594-19.195 19.195s8.594 19.195 19.195 19.195h45.08c10.121.001 18.325-8.203 18.325-18.324z"/></g><path d="m456.515 7.5h-31.181c8.595 0 15.564 6.968 15.564 15.564v465.873c0 8.596-6.968 15.564-15.564 15.564h31.181c8.596 0 15.564-6.968 15.564-15.564v-465.873c-.001-8.596-6.969-15.564-15.564-15.564z" fill="#d8e2f1"/><path d="m107.031 58.778h-31.181c10.12 0 18.325 8.204 18.325 18.325v1.741c0 10.121-8.204 18.325-18.325 18.325h31.181c10.12 0 18.325-8.204 18.325-18.325v-1.741c0-10.12-8.205-18.325-18.325-18.325z" fill="#365e7d"/><path d="m107.031 147.013h-31.181c10.12 0 18.325 8.204 18.325 18.325v1.741c0 10.12-8.204 18.325-18.325 18.325h31.181c10.12 0 18.325-8.204 18.325-18.325v-1.741c0-10.12-8.205-18.325-18.325-18.325z" fill="#365e7d"/><path d="m107.031 235.249h-31.181c10.12 0 18.325 8.204 18.325 18.325v1.741c0 10.121-8.204 18.325-18.325 18.325h31.181c10.12 0 18.325-8.204 18.325-18.325v-1.741c0-10.121-8.205-18.325-18.325-18.325z" fill="#365e7d"/><path d="m107.031 323.483h-31.181c10.12 0 18.325 8.204 18.325 18.325v1.741c0 10.12-8.204 18.325-18.325 18.325h31.181c10.12 0 18.325-8.204 18.325-18.325v-1.741c0-10.12-8.205-18.325-18.325-18.325z" fill="#365e7d"/><path d="m107.031 411.719h-31.181c10.12 0 18.325 8.204 18.325 18.325v1.741c0 10.12-8.204 18.325-18.325 18.325h31.181c10.12 0 18.325-8.204 18.325-18.325v-1.741c0-10.121-8.205-18.325-18.325-18.325z" fill="#365e7d"/></g><g><path d="m427.051 91h-229c-4.142 0-7.5 3.358-7.5 7.5s3.358 7.5 7.5 7.5h229c4.143 0 7.5-3.358 7.5-7.5s-3.358-7.5-7.5-7.5z"/><path d="m427.051 169.75h-229c-4.142 0-7.5 3.358-7.5 7.5s3.358 7.5 7.5 7.5h229c4.143 0 7.5-3.358 7.5-7.5s-3.358-7.5-7.5-7.5z"/><path d="m427.051 248.5h-229c-4.142 0-7.5 3.358-7.5 7.5s3.358 7.5 7.5 7.5h229c4.143 0 7.5-3.358 7.5-7.5s-3.358-7.5-7.5-7.5z"/><path d="m427.051 327.25h-229c-4.142 0-7.5 3.358-7.5 7.5s3.358 7.5 7.5 7.5h229c4.143 0 7.5-3.358 7.5-7.5s-3.358-7.5-7.5-7.5z"/><path d="m427.051 406h-229c-4.142 0-7.5 3.358-7.5 7.5s3.358 7.5 7.5 7.5h229c4.143 0 7.5-3.358 7.5-7.5s-3.358-7.5-7.5-7.5z"/><path d="m472.079 80.876c4.143 0 7.5-3.358 7.5-7.5v-50.313c0-12.717-10.347-23.063-23.065-23.063-14.056 0-350.207 0-367.821 0-12.717 0-23.063 10.346-23.063 23.063v28.215h-6.513c-14.72 0-26.695 11.976-26.695 26.695s11.976 26.695 26.695 26.695h6.513v34.845h-6.513c-14.72 0-26.695 11.975-26.695 26.695s11.976 26.695 26.695 26.695h6.513v34.845h-6.513c-14.72 0-26.695 11.976-26.695 26.695s11.976 26.695 26.695 26.695h6.513v34.845h-6.513c-14.72 0-26.695 11.976-26.695 26.695s11.976 26.695 26.695 26.695h6.513v34.844h-6.513c-14.72 0-26.695 11.976-26.695 26.695s11.976 26.695 26.695 26.695h6.513v31.328c0 12.719 10.346 23.065 23.063 23.065h6.489c4.142 0 7.5-3.358 7.5-7.5s-3.358-7.5-7.5-7.5h-6.489c-4.446 0-8.063-3.617-8.063-8.063v-31.328h26.401c12.905 0 25.825-9.668 25.825-27.565 0-14.24-11.585-25.825-25.825-25.825h-26.401v-34.844h26.401c14.24 0 25.825-11.586 25.825-25.825 0-17.502-12.55-27.565-25.825-27.565h-26.401v-34.845h26.401c12.905 0 25.825-9.668 25.825-27.565 0-14.239-11.584-25.825-25.825-25.825h-26.401v-34.845h26.401c9.79 0 18.325-5.476 22.703-13.525 9.258-17.02-1.878-39.865-22.703-39.865h-26.401v-34.845h26.401c20.9 0 31.918-22.925 22.703-39.865-4.378-8.049-12.913-13.525-22.703-13.525h-26.401v-28.217c0-4.446 3.617-8.063 8.063-8.063h56.83v482h-15.341c-4.142 0-7.5 3.358-7.5 7.5s3.358 7.5 7.5 7.5h326.333c12.718 0 23.064-10.346 23.064-23.063v-380.56c0-4.142-3.357-7.5-7.5-7.5s-7.5 3.358-7.5 7.5v380.56c0 4.446-3.618 8.063-8.064 8.063h-295.992c0-7.008 0-473.967 0-482h295.991c4.446 0 8.064 3.617 8.064 8.063v50.313c.001 4.143 3.358 7.5 7.501 7.5zm-365.048 338.342c14.498 0 14.586 23.391 0 23.391-11.288 0-38.122 0-47.914 0-6.449 0-11.695-5.247-11.695-11.695s5.247-11.695 11.695-11.695c9.799-.001 36.591-.001 47.914-.001zm0-88.235c14.446 0 14.495 23.391 0 23.391-11.288 0-38.122 0-47.914 0-6.449 0-11.695-5.247-11.695-11.695s5.247-11.695 11.695-11.695c9.799-.001 36.591-.001 47.914-.001zm0-88.234c14.501 0 14.584 23.39 0 23.39-11.288 0-38.122 0-47.914 0-6.449 0-11.695-5.246-11.695-11.695s5.247-11.695 11.695-11.695zm0-88.235c14.447 0 14.493 23.39 0 23.39h-33.901-14.014c-6.449 0-11.695-5.247-11.695-11.695s5.247-11.695 11.695-11.695h14.014zm0-88.236c14.519 0 14.471 23.391 0 23.391-11.288 0-38.122 0-47.914 0-6.449 0-11.695-5.247-11.695-11.695s5.247-11.695 11.695-11.695c9.799-.001 36.591-.001 47.914-.001z"/></g></g></svg>