<svg id="Capa_1" enable-background="new 0 0 512 512" height="512" viewBox="0 0 512 512" width="512" xmlns="http://www.w3.org/2000/svg"><g><g><path d="m435.759 484.5v-413.746c0-11.046-8.954-20-20-20h-322.353c-11.046 0-20 8.954-20 20v413.746c0 11.046 8.954 20 20 20h322.353c11.046 0 20-8.954 20-20z" fill="#e28086"/><path d="m405.759 469.5v-383.746c0-2.761-2.239-5-5-5h-292.353c-2.761 0-5 2.239-5 5v383.746c0 2.761 2.239 5 5 5h292.353c2.762 0 5-2.239 5-5z" fill="#e7ecf6"/><g fill="#b3e59f"><path d="m207.673 224.742h-60.983c-5.412 0-9.8-4.388-9.8-9.8v-60.982c0-5.412 4.388-9.8 9.8-9.8h60.982c5.412 0 9.8 4.388 9.8 9.8v60.982c.001 5.413-4.387 9.8-9.799 9.8z"/><path d="m207.673 335.294h-60.983c-5.412 0-9.8-4.388-9.8-9.8v-60.982c0-5.412 4.388-9.8 9.8-9.8h60.982c5.412 0 9.8 4.388 9.8 9.8v60.982c.001 5.412-4.387 9.8-9.799 9.8z"/><path d="m207.673 445.845h-60.983c-5.412 0-9.8-4.388-9.8-9.8v-60.982c0-5.412 4.388-9.8 9.8-9.8h60.982c5.412 0 9.8 4.388 9.8 9.8v60.982c.001 5.412-4.387 9.8-9.799 9.8z"/></g><path d="m418.594 50.754h-30c11.046 0 20 8.954 20 20v413.746c0 11.046-8.954 20-20 20h30c11.046 0 20-8.954 20-20v-413.746c0-11.046-8.954-20-20-20z" fill="#dd636e"/><path d="m403.594 80.754h-25.26c2.761 0 5 2.239 5 5v383.746c0 2.761-2.239 5-5 5h25.26c2.761 0 5-2.239 5-5v-383.746c0-2.761-2.239-5-5-5z" fill="#d8e2f1"/><path d="m276.818 7.5h-44.471c-11.79 0-21.347 9.557-21.347 21.347v39.653h87.165v-39.653c0-11.79-9.557-21.347-21.347-21.347z" fill="#365e7d"/><path d="m282.917 7.5h-28.776c11.79 0 21.347 9.557 21.347 21.347v39.653h25.512v-42.917c0-9.987-8.096-18.083-18.083-18.083z" fill="#2b4d66"/><path d="m351.273 106.505v-59.505c0-4.971-4.029-9-9-9h-175.38c-4.971 0-9 4.029-9 9v59.505c0 4.97 4.029 9 9 9h175.38c4.97 0 9-4.03 9-9z" fill="#407093"/><path d="m345.107 38h-25.512c4.97 0 9 4.029 9 9v59.505c0 4.97-4.03 9-9 9h25.512c4.971 0 9-4.03 9-9v-59.505c0-4.971-4.029-9-9-9z" fill="#365e7d"/></g><g><path d="m245.932 190.794h130c4.143 0 7.5-3.358 7.5-7.5s-3.357-7.5-7.5-7.5h-130c-4.143 0-7.5 3.358-7.5 7.5s3.357 7.5 7.5 7.5z"/><path d="m186.991 167.276-16.099 15.492-1.979-4c-1.837-3.713-6.335-5.234-10.048-3.396-3.713 1.837-5.233 6.336-3.396 10.048l6.521 13.18c2.253 4.557 8.284 5.579 11.922 2.078l23.479-22.594c2.985-2.872 3.076-7.62.204-10.605-2.872-2.983-7.619-3.074-10.604-.203z"/><path d="m224.973 153.96c0-9.539-7.761-17.3-17.3-17.3h-60.983c-9.539 0-17.3 7.761-17.3 17.3v60.982c0 9.539 7.761 17.3 17.3 17.3h60.982c9.539 0 17.3-7.761 17.3-17.3v-60.982zm-15 60.982c0 1.268-1.031 2.3-2.3 2.3h-60.983c-1.269 0-2.3-1.032-2.3-2.3v-60.982c0-1.268 1.031-2.3 2.3-2.3h60.982c1.269 0 2.3 1.032 2.3 2.3v60.982z"/><path d="m245.932 301.345h130c4.143 0 7.5-3.358 7.5-7.5s-3.357-7.5-7.5-7.5h-130c-4.143 0-7.5 3.358-7.5 7.5s3.357 7.5 7.5 7.5z"/><path d="m186.991 277.828-16.099 15.492-1.979-4c-1.837-3.713-6.335-5.234-10.048-3.396-3.713 1.837-5.233 6.336-3.396 10.048l6.521 13.18c2.238 4.527 8.258 5.605 11.922 2.078l23.479-22.594c2.985-2.872 3.076-7.62.204-10.605-2.872-2.984-7.619-3.074-10.604-.203z"/><path d="m224.973 264.511c0-9.54-7.761-17.3-17.3-17.3h-60.983c-9.539 0-17.3 7.761-17.3 17.3v60.982c0 9.539 7.761 17.3 17.3 17.3h60.982c9.539 0 17.3-7.761 17.3-17.3v-60.982zm-15 60.983c0 1.268-1.031 2.3-2.3 2.3h-60.983c-1.269 0-2.3-1.032-2.3-2.3v-60.982c0-1.269 1.031-2.3 2.3-2.3h60.982c1.269 0 2.3 1.032 2.3 2.3v60.982z"/><path d="m245.932 411.896h130c4.143 0 7.5-3.358 7.5-7.5s-3.357-7.5-7.5-7.5h-130c-4.143 0-7.5 3.358-7.5 7.5s3.357 7.5 7.5 7.5z"/><path d="m186.991 388.378-16.099 15.492-1.979-4c-1.837-3.713-6.335-5.233-10.048-3.396s-5.233 6.336-3.396 10.048l6.521 13.18c2.238 4.527 8.258 5.605 11.922 2.078l23.479-22.594c2.985-2.872 3.076-7.62.204-10.605-2.872-2.983-7.619-3.074-10.604-.203z"/><path d="m207.673 357.762h-60.983c-9.539 0-17.3 7.761-17.3 17.3v60.982c0 9.539 7.761 17.3 17.3 17.3h60.982c9.539 0 17.3-7.761 17.3-17.3v-60.982c.001-9.539-7.76-17.3-17.299-17.3zm2.3 78.283c0 1.268-1.031 2.3-2.3 2.3h-60.983c-1.269 0-2.3-1.032-2.3-2.3v-60.982c0-1.269 1.031-2.3 2.3-2.3h60.982c1.269 0 2.3 1.032 2.3 2.3v60.982z"/><path d="m418.594 43.254h-57.432c-1.703-7.297-8.247-12.754-16.055-12.754h-36.607v-1.653c0-15.906-12.94-28.847-28.847-28.847h-47.307c-15.906 0-28.846 12.941-28.846 28.847v1.653h-36.607c-7.808 0-14.351 5.457-16.055 12.754h-57.432c-15.163 0-27.5 12.336-27.5 27.5v71.596c0 4.142 3.357 7.5 7.5 7.5s7.5-3.358 7.5-7.5v-71.596c0-6.893 5.607-12.5 12.5-12.5h56.986v15h-41.986c-6.893 0-12.5 5.607-12.5 12.5v383.746c0 6.893 5.607 12.5 12.5 12.5h243.564c4.143 0 7.5-3.358 7.5-7.5s-3.357-7.5-7.5-7.5h-241.064v-378.746h39.486v18.251c0 9.098 7.402 16.5 16.5 16.5h178.215c9.098 0 16.5-7.402 16.5-16.5v-18.251h39.486v378.746h-14.123c-4.143 0-7.5 3.358-7.5 7.5s3.357 7.5 7.5 7.5h16.623c6.893 0 12.5-5.607 12.5-12.5v-383.746c0-6.893-5.607-12.5-12.5-12.5h-41.986v-15h56.986c6.893 0 12.5 5.607 12.5 12.5v413.746c0 6.893-5.607 12.5-12.5 12.5h-325.187c-6.893 0-12.5-5.607-12.5-12.5v-307.15c0-4.142-3.357-7.5-7.5-7.5s-7.5 3.358-7.5 7.5v307.15c0 15.164 12.337 27.5 27.5 27.5h325.188c15.163 0 27.5-12.336 27.5-27.5v-413.746c0-15.164-12.337-27.5-27.5-27.5zm-71.987 63.251c0 .827-.673 1.5-1.5 1.5h-178.214c-.827 0-1.5-.673-1.5-1.5 0-24.736 0-29.663 0-59.505 0-.827.673-1.5 1.5-1.5h44.107c4.143 0 7.5-3.358 7.5-7.5v-9.153c0-7.635 6.212-13.847 13.847-13.847h47.307c7.635 0 13.847 6.212 13.847 13.847v9.153c0 4.142 3.357 7.5 7.5 7.5h44.107c.827 0 1.5.673 1.5 1.5-.001 8.679-.001 51.016-.001 59.505z"/></g></g></svg>