<svg id="Capa_1" enable-background="new 0 0 512 512" height="512" viewBox="0 0 512 512" width="512" xmlns="http://www.w3.org/2000/svg"><g><g><path d="m276.818 7.5h-44.471c-11.79 0-21.347 9.557-21.347 21.347v39.653h87.165v-39.653c0-11.79-9.557-21.347-21.347-21.347z" fill="#eab14d"/><path d="m279.653 7.5h-25.512c11.79 0 21.347 9.557 21.347 21.347v39.653h25.512v-39.653c0-11.79-9.557-21.347-21.347-21.347z" fill="#e7a52e"/><path d="m435.759 484.5v-413.746c0-11.046-8.954-20-20-20h-322.353c-11.046 0-20 8.954-20 20v413.746c0 11.046 8.954 20 20 20h322.353c11.046 0 20-8.954 20-20z" fill="#407093"/><path d="m405.759 469.5v-383.746c0-2.761-2.239-5-5-5h-292.353c-2.761 0-5 2.239-5 5v383.746c0 2.761 2.239 5 5 5h292.353c2.762 0 5-2.239 5-5z" fill="#e7ecf6"/><path d="m418.594 50.754h-30c11.046 0 20 8.954 20 20v413.746c0 11.046-8.954 20-20 20h30c11.046 0 20-8.954 20-20v-413.746c0-11.046-8.954-20-20-20z" fill="#365e7d"/><path d="m403.594 80.754h-30c2.761 0 5 2.239 5 5v383.746c0 2.761-2.239 5-5 5h30c2.761 0 5-2.239 5-5v-383.746c0-2.761-2.239-5-5-5z" fill="#d8e2f1"/><circle cx="256" cy="286.494" fill="#d8e2f1" r="94.185"/><circle cx="256" cy="286.494" fill="#78c2a4" r="49.5"/><path d="m351.272 106.505v-59.505c0-4.971-4.029-9-9-9h-175.38c-4.971 0-9 4.029-9 9v59.505c0 4.97 4.029 9 9 9h175.38c4.971 0 9-4.03 9-9z" fill="#ecbe6b"/><path d="m345.107 38h-25.512c4.97 0 9 4.029 9 9v59.505c0 4.97-4.03 9-9 9h25.512c4.971 0 9-4.03 9-9v-59.505c0-4.971-4.029-9-9-9z" fill="#eab14d"/></g><g><path d="m313 286.494c0-31.43-25.57-57-57-57s-57 25.57-57 57 25.57 57 57 57 57-25.571 57-57zm-99 0c0-23.159 18.841-42 42-42s42 18.841 42 42-18.841 42-42 42-42-18.842-42-42z"/><path d="m256 416.606c4.143 0 7.5-3.358 7.5-7.5v-21.205c50.104-3.67 90.237-43.804 93.907-93.908h21.205c4.143 0 7.5-3.358 7.5-7.5s-3.357-7.5-7.5-7.5h-21.205c-3.67-50.103-43.804-90.237-93.907-93.907v-21.205c0-4.142-3.357-7.5-7.5-7.5s-7.5 3.358-7.5 7.5v21.205c-50.104 3.67-90.237 43.804-93.907 93.907h-21.206c-4.143 0-7.5 3.358-7.5 7.5s3.357 7.5 7.5 7.5h21.206c3.67 50.104 43.804 90.237 93.907 93.908v21.205c0 4.143 3.357 7.5 7.5 7.5zm-86.356-122.612h5.856c4.143 0 7.5-3.358 7.5-7.5s-3.357-7.5-7.5-7.5h-5.856c3.602-41.826 37.03-75.254 78.856-78.856v5.856c0 4.142 3.357 7.5 7.5 7.5s7.5-3.358 7.5-7.5v-5.856c41.826 3.602 75.254 37.03 78.856 78.856h-5.856c-4.143 0-7.5 3.358-7.5 7.5s3.357 7.5 7.5 7.5h5.856c-3.602 41.827-37.03 75.255-78.856 78.857v-5.857c0-4.142-3.357-7.5-7.5-7.5s-7.5 3.358-7.5 7.5v5.857c-41.826-3.602-75.255-37.031-78.856-78.857z"/><path d="m280.925 266.606c-2.872-2.984-7.621-3.074-10.604-.204l-23.174 22.301-3.945-7.972c-1.837-3.713-6.336-5.233-10.048-3.396-3.713 1.837-5.233 6.336-3.396 10.048l8.487 17.152c1.06 2.143 3.078 3.652 5.434 4.063.43.075.86.111 1.288.111 1.923 0 3.792-.74 5.2-2.096l30.554-29.403c2.985-2.872 3.076-7.619.204-10.604z"/><path d="m418.594 43.254h-57.432c-1.703-7.297-8.247-12.754-16.055-12.754h-36.607c0-19.108-13.963-30.5-28.848-30.5h-47.305c-14.751 0-28.847 11.241-28.847 30.5h-36.607c-7.808 0-14.351 5.457-16.055 12.754h-57.432c-15.163 0-27.5 12.336-27.5 27.5v71.596c0 4.142 3.357 7.5 7.5 7.5s7.5-3.358 7.5-7.5v-71.596c0-6.893 5.607-12.5 12.5-12.5h56.986v15h-41.986c-6.893 0-12.5 5.607-12.5 12.5v383.746c0 6.893 5.607 12.5 12.5 12.5h243.564c4.143 0 7.5-3.358 7.5-7.5s-3.357-7.5-7.5-7.5h-241.064v-378.746h39.486v18.251c0 9.098 7.402 16.5 16.5 16.5h178.215c9.098 0 16.5-7.402 16.5-16.5v-18.251h39.486v378.746h-14.123c-4.143 0-7.5 3.358-7.5 7.5s3.357 7.5 7.5 7.5h16.623c6.893 0 12.5-5.607 12.5-12.5v-383.746c0-6.893-5.607-12.5-12.5-12.5h-41.986v-15h56.986c6.893 0 12.5 5.607 12.5 12.5v413.746c0 6.893-5.607 12.5-12.5 12.5h-325.187c-6.893 0-12.5-5.607-12.5-12.5v-307.15c0-4.142-3.357-7.5-7.5-7.5s-7.5 3.358-7.5 7.5v307.15c0 15.164 12.337 27.5 27.5 27.5h325.188c15.163 0 27.5-12.336 27.5-27.5v-413.746c0-15.164-12.337-27.5-27.5-27.5zm-71.987 63.251c0 .827-.673 1.5-1.5 1.5h-178.214c-.827 0-1.5-.673-1.5-1.5 0-24.736 0-29.663 0-59.505 0-.827.673-1.5 1.5-1.5h44.107c4.143 0 7.5-3.358 7.5-7.5v-9.153c0-7.635 6.212-13.847 13.848-13.847h47.305c7.636 0 13.848 6.212 13.848 13.847v9.153c0 4.142 3.357 7.5 7.5 7.5h44.107c.827 0 1.5.673 1.5 1.5-.001 8.679-.001 51.016-.001 59.505z"/></g></g></svg>