<svg id="Capa_1" enable-background="new 0 0 512 512" height="512" viewBox="0 0 512 512" width="512" xmlns="http://www.w3.org/2000/svg"><g><g><path d="m473.418 165.66c0-2.727-2.211-4.939-4.938-4.939h-45.483c-2.727 0-4.939 2.211-4.939 4.939l.001 259.678h55.36z" fill="#e28086"/><path d="m418.059 425.338 25.336 42.817c.533.901 1.388 1.49 2.344 1.781.956-.292 1.811-.88 2.344-1.781l25.336-42.817z" fill="#bed8fb"/><path d="m458.87 126.607c0-3.565-3.316-6.454-7.407-6.454h-11.45c-4.09 0-7.406 2.89-7.406 6.454v34.114h26.263z" fill="#90d8f9"/><path d="m476.253 165.66c0-2.728-2.211-4.939-4.939-4.939h-22.677c2.727 0 4.938 2.211 4.938 4.939l.001 259.678h-35.518 58.195z" fill="#dd636e"/><path d="m113.54 55.547c0-26.495-21.47-48.047-48.047-48.047-26.535 0-53.984 10.95-53.984 37.486l-2.117 10.561v10.599 393.639c0 7.18 13.874 4.972 21.054 4.972h327.953v-409.21z" fill="#407093"/><path d="m365.101 103.594h-299.608.002-3.785v387.906c0 7.18 5.82 13 13 13h307.939c7.18 0 13-5.82 13-13v-396.735c-8.631 5.554-19.165 8.829-30.548 8.829z" fill="#e7ecf6"/><circle cx="180.376" cy="212.904" fill="#95d6a4" r="54.07"/><path d="m453.576 425.338-17.759 30.012 7.577 12.805c1.576 2.664 5.947 2.664 7.523 0l25.336-42.817z" fill="#9dc6fb"/><path d="m444.697 126.607v34.114h17.008v-34.115c0-3.565-3.316-6.454-7.407-6.454-15.392 0-14.646-.049-15.647.114 3.44.558 6.046 3.182 6.046 6.341z" fill="#75cef9"/><path d="m367.303 103.551v387.949c0 7.18-5.82 13-13 13h28.346c7.18 0 13-5.82 13-13v-396.735c-8.071 5.194-17.808 8.393-28.346 8.786z" fill="#d8e2f1"/><path d="m440.691 55.547c0-26.536-23.69-48.047-52.913-48.047-10.193 0-302.911 0-322.285 0 26.535 0 48.047 21.511 48.047 48.047 0 26.535-21.511 48.047-48.047 48.047h322.285c29.223 0 52.913-21.512 52.913-48.047z" fill="#9dc6fb"/><path d="m383.366 7.5c-10.451 0-18.054 0-28.346 0 29.223 0 52.913 21.511 52.913 48.047 0 26.535-23.69 48.047-52.913 48.047h28.346c29.223 0 52.913-21.511 52.913-48.047 0-26.536-23.69-48.047-52.913-48.047z" fill="#80b4fb"/></g><g><path d="m442.521 55.547c0-30.629-27.101-55.547-60.413-55.547h-325.119c-30.629 0-55.547 24.918-55.547 55.547v269.71c0 4.142 3.358 7.5 7.5 7.5s7.5-3.358 7.5-7.5v-269.71c0-22.358 18.189-40.547 40.547-40.547s40.547 18.189 40.547 40.547-18.19 40.547-40.547 40.547h-3.782c-4.142 0-7.5 3.358-7.5 7.5v353.663h-23.765c-3.033 0-5.5-2.467-5.5-5.5v-91.5c0-4.142-3.358-7.5-7.5-7.5s-7.5 3.358-7.5 7.5v91.5c0 11.304 9.196 20.5 20.5 20.5h23.765v19.243c0 11.304 9.196 20.5 20.5 20.5h307.939c11.304 0 20.5-9.196 20.5-20.5v-381.617c27.314-5.322 47.875-27.659 47.875-54.336zm-347.604-40.547h287.191c25.041 0 45.413 18.189 45.413 40.547 0 22.417-20.447 40.547-45.413 40.547h-287.191c10.895-10.197 17.619-24.777 17.619-40.547 0-15.591-6.613-30.245-17.619-40.547zm284.729 476.5c0 3.033-2.467 5.5-5.5 5.5h-307.939c-3.033 0-5.5-2.467-5.5-5.5 0-13.242 0-365.376 0-380.406h318.939z"/><path d="m180.376 274.474c33.95 0 61.57-27.62 61.57-61.57 0-10.714-2.756-20.794-7.588-29.578l26.371-16.992h70.449c4.142 0 7.5-3.358 7.5-7.5s-3.358-7.5-7.5-7.5h-72.656c-1.441 0-2.851.415-4.063 1.195l-28.891 18.616c-11.256-12.172-27.345-19.811-45.192-19.811-33.95 0-61.57 27.62-61.57 61.57s27.62 61.57 61.57 61.57zm0-108.141c12.55 0 23.947 4.999 32.33 13.099l-18.903 12.18c-3.482 2.244-4.486 6.885-2.242 10.367 2.244 3.481 6.885 4.486 10.367 2.242l19.776-12.743c3.341 6.419 5.242 13.702 5.242 21.425 0 25.679-20.891 46.57-46.57 46.57s-46.57-20.891-46.57-46.57 20.891-46.57 46.57-46.57z"/><path d="m121.446 333.5h226c4.142 0 7.5-3.358 7.5-7.5s-3.358-7.5-7.5-7.5h-226c-4.142 0-7.5 3.358-7.5 7.5s3.358 7.5 7.5 7.5z"/><path d="m121.446 390.193h226c4.142 0 7.5-3.358 7.5-7.5s-3.358-7.5-7.5-7.5h-226c-4.142 0-7.5 3.358-7.5 7.5s3.358 7.5 7.5 7.5z"/><path d="m121.446 446.886h226c4.142 0 7.5-3.358 7.5-7.5s-3.358-7.5-7.5-7.5h-226c-4.142 0-7.5 3.358-7.5 7.5s3.358 7.5 7.5 7.5z"/><path d="m331.178 248.5h-66.656c-4.142 0-7.5 3.358-7.5 7.5s3.358 7.5 7.5 7.5h66.656c4.142 0 7.5-3.358 7.5-7.5s-3.358-7.5-7.5-7.5z"/><path d="m510.558 198.831c0-10.067-8.902-18.257-19.844-18.257h-6.96v-14.914c0-6.859-5.58-12.439-12.438-12.439h-2.11v-26.614c0-7.694-6.687-13.954-14.907-13.954h-14.284c-8.219 0-14.906 6.26-14.906 13.955v26.614h-2.11c-6.858 0-12.438 5.58-12.438 12.438v259.679c0 1.351.403 2.735 1.046 3.819l25.335 42.816c4.472 7.558 15.959 7.562 20.433 0l25.335-42.816c.649-1.098 1.038-2.439 1.043-3.79 0-.01.001-.019.001-.029v-32.805c0-4.142-3.358-7.5-7.5-7.5s-7.5 3.358-7.5 7.5v25.305h-43.195v-222.264h43.195v156.959c0 4.142 3.358 7.5 7.5 7.5s7.5-3.358 7.5-7.5v-156.959h6.96c2.855 0 4.844 1.716 4.844 3.257v108.49c0 4.142 3.358 7.5 7.5 7.5s7.5-3.358 7.5-7.5zm-70.451-71.178h14.097v25.568h-14.097zm22.994 305.185-15.945 26.946-15.945-26.946zm-37.542-252.264v-12.353h43.195v12.353z"/></g></g></svg>