<svg id="Capa_1" enable-background="new 0 0 512 512" height="512" viewBox="0 0 512 512" width="512" xmlns="http://www.w3.org/2000/svg"><g><g><path d="m412.557 444.597v-421.097c0-8.837-7.163-16-16-16h-326.389c-8.837 0-16 7.163-16 16v421.097c0 8.837 7.163 16 16 16h326.389c8.837 0 16-7.164 16-16z" fill="#9dc6fb"/><path d="m399.392 7.5h-29.992c8.837 0 16 7.163 16 16v421.097c0 8.837-7.163 16-16 16h29.992c8.837 0 16-7.163 16-16v-421.097c0-8.837-7.164-16-16-16z" fill="#80b4fb"/><path d="m454.997 488.5v-421.097c0-8.837-7.163-16-16-16h-326.388c-8.837 0-16 7.163-16 16v421.097c0 8.837 7.163 16 16 16h326.389c8.836 0 15.999-7.163 15.999-16z" fill="#e7ecf6"/><path d="m307.738 173.085h-71.56v71.56c39.522 0 71.56-32.039 71.56-71.56z" fill="#e28086"/><path d="m307.738 173.085c0-39.521-32.038-71.56-71.56-71.56s-71.56 32.038-71.56 71.56 32.038 71.56 71.56 71.56v-71.56z" fill="#95d6a4"/><g fill="#ecbe6b"><path d="m199.858 460.597h-32.24c-1.657 0-3-1.343-3-3v-143.154c0-1.657 1.343-3 3-3h32.24c1.657 0 3 1.343 3 3v143.154c0 1.656-1.343 3-3 3z"/><path d="m269.221 460.597h-32.24c-1.657 0-3-1.343-3-3v-115.092c0-1.657 1.343-3 3-3h32.24c1.657 0 3 1.343 3 3v115.091c0 1.657-1.344 3.001-3 3.001z"/><path d="m338.583 460.597h-32.24c-1.657 0-3-1.343-3-3v-79.311c0-1.657 1.343-3 3-3h32.24c1.657 0 3 1.343 3 3v79.311c0 1.656-1.343 3-3 3z"/></g><path d="m441.832 51.403h-29.992c8.837 0 16 7.163 16 16v421.097c0 8.837-7.163 16-16 16h29.992c8.836 0 16-7.163 16-16v-421.097c0-8.836-7.164-16-16-16z" fill="#d8e2f1"/><path d="m68.196 67.403v393.07c1.451.173-.536.124 28.346.124v-393.194c0-8.836 7.163-16 16-16h-28.346c-8.837 0-16 7.164-16 16z" fill="#80b4fb"/></g><g><path d="m457.832 421.366c4.143 0 7.5-3.358 7.5-7.5v-346.463c0-12.958-10.542-23.5-23.5-23.5h-18.939v-20.403c0-12.958-10.542-23.5-23.5-23.5h-209.029c-4.142 0-7.5 3.358-7.5 7.5s3.358 7.5 7.5 7.5h209.028c4.687 0 8.5 3.813 8.5 8.5v20.403h-295.284c-12.958 0-23.5 10.542-23.5 23.5v385.693h-18.94c-4.687 0-8.5-3.813-8.5-8.5v-421.096c0-4.687 3.813-8.5 8.5-8.5h85.196c4.142 0 7.5-3.358 7.5-7.5s-3.358-7.5-7.5-7.5h-85.196c-12.958 0-23.5 10.542-23.5 23.5v421.097c0 12.958 10.542 23.5 23.5 23.5h18.94v20.403c0 12.958 10.542 23.5 23.5 23.5h329.223c12.958 0 23.5-10.542 23.5-23.5v-34.634c0-4.142-3.357-7.5-7.5-7.5s-7.5 3.358-7.5 7.5v34.634c0 4.687-3.813 8.5-8.5 8.5h-329.223c-4.687 0-8.5-3.813-8.5-8.5v-27.903-393.194c0-4.687 3.813-8.5 8.5-8.5h329.223c4.687 0 8.5 3.813 8.5 8.5v346.463c.001 4.142 3.358 7.5 7.501 7.5z"/><path d="m315.239 173.085c0-43.594-35.466-79.06-79.06-79.06s-79.06 35.466-79.06 79.06 35.466 79.06 79.06 79.06 79.06-35.466 79.06-79.06zm-86.56 0v63.623c-31.801-3.726-56.56-30.838-56.56-63.623 0-35.323 28.737-64.06 64.06-64.06 32.786 0 59.898 24.759 63.624 56.56h-63.624c-4.142 0-7.5 3.358-7.5 7.5zm15 63.623v-56.123h56.124c-3.438 29.339-26.785 52.686-56.124 56.123z"/><path d="m420.34 121.607h-67.35c-4.143 0-7.5 3.358-7.5 7.5s3.357 7.5 7.5 7.5h67.351c4.143 0 7.5-3.358 7.5-7.5s-3.358-7.5-7.501-7.5z"/><path d="m420.34 160.386h-67.35c-4.143 0-7.5 3.358-7.5 7.5s3.357 7.5 7.5 7.5h67.351c4.143 0 7.5-3.358 7.5-7.5s-3.358-7.5-7.501-7.5z"/><path d="m420.34 199.166h-67.35c-4.143 0-7.5 3.358-7.5 7.5s3.357 7.5 7.5 7.5h67.351c4.143 0 7.5-3.358 7.5-7.5s-3.358-7.5-7.501-7.5z"/><path d="m164.619 303.943c-4.142 0-7.5 3.358-7.5 7.5v149.154c0 4.142 3.358 7.5 7.5 7.5h38.24c4.142 0 7.5-3.358 7.5-7.5v-149.154c0-4.142-3.358-7.5-7.5-7.5zm30.739 149.154h-23.24v-134.154h23.24z"/><path d="m233.981 332.005c-4.142 0-7.5 3.358-7.5 7.5v121.091c0 4.142 3.358 7.5 7.5 7.5h38.239c4.143 0 7.5-3.358 7.5-7.5v-121.091c0-4.142-3.357-7.5-7.5-7.5zm30.739 121.092h-23.239v-106.092h23.239z"/><path d="m303.343 468.097h38.239c4.143 0 7.5-3.358 7.5-7.5v-85.311c0-4.142-3.357-7.5-7.5-7.5h-38.239c-4.143 0-7.5 3.358-7.5 7.5v85.311c0 4.142 3.358 7.5 7.5 7.5zm7.5-85.311h23.239v70.311h-23.239z"/><path d="m420.34 303.943h-97.877c-4.143 0-7.5 3.358-7.5 7.5s3.357 7.5 7.5 7.5h97.877c4.143 0 7.5-3.358 7.5-7.5s-3.357-7.5-7.5-7.5z"/><path d="m420.34 342.722h-30.706c-4.143 0-7.5 3.358-7.5 7.5s3.357 7.5 7.5 7.5h30.706c4.143 0 7.5-3.358 7.5-7.5s-3.357-7.5-7.5-7.5z"/><path d="m420.34 381.502h-30.706c-4.143 0-7.5 3.358-7.5 7.5s3.357 7.5 7.5 7.5h30.706c4.143 0 7.5-3.358 7.5-7.5s-3.357-7.5-7.5-7.5z"/><path d="m420.34 420.281h-30.706c-4.143 0-7.5 3.358-7.5 7.5s3.357 7.5 7.5 7.5h30.706c4.143 0 7.5-3.358 7.5-7.5s-3.357-7.5-7.5-7.5z"/></g></g></svg>