<svg id="Capa_1" enable-background="new 0 0 512 512" height="512" viewBox="0 0 512 512" width="512" xmlns="http://www.w3.org/2000/svg"><g><g><path d="m479.13 151h-51v-105h51c8.284 0 15 6.716 15 15v75c0 8.284-6.716 15-15 15z" fill="#bed8fb"/><path d="m479.13 256h-51v-105h51c8.284 0 15 6.716 15 15v75c0 8.284-6.716 15-15 15z" fill="#ffd064"/><path d="m479.13 361h-51v-105h51c8.284 0 15 6.716 15 15v75c0 8.284-6.716 15-15 15z" fill="#bed8fb"/><path d="m479.13 466h-51v-105h51c8.284 0 15 6.716 15 15v75c0 8.284-6.716 15-15 15z" fill="#ffd064"/><path d="m434.464 504.5h-343.439v-497h343.438c8.596 0 15.564 6.968 15.564 15.564v465.873c0 8.595-6.968 15.563-15.563 15.563z" fill="#e28086"/><path d="m376.026 184.972c5.973-12.368 9.343-26.229 9.397-40.872.19-51.793-41.796-94.556-93.585-95.269-53.038-.73-96.261 42.044-96.261 94.914 0 14.774 3.376 28.759 9.397 41.227l76.088 162.552c3.747 8.004 15.13 8.004 18.876 0z" fill="#365e7d"/><path d="m130.972 504.5h-64.33c-8.596 0-15.564-6.968-15.564-15.564v-465.872c0-8.596 6.968-15.564 15.564-15.564h64.33z" fill="#407093"/><g fill="#bed8fb"><path d="m103.305 77.103v1.741c0 10.12-8.204 18.325-18.325 18.325h-47.915c-10.601 0-19.195-8.594-19.195-19.195 0-10.601 8.594-19.195 19.195-19.195h47.915c10.12-.001 18.325 8.204 18.325 18.324z"/><path d="m103.305 165.338v1.741c0 10.12-8.204 18.325-18.325 18.325h-47.915c-10.601 0-19.195-8.594-19.195-19.195 0-10.601 8.594-19.195 19.195-19.195h47.915c10.12-.001 18.325 8.204 18.325 18.324z"/><path d="m103.305 253.573v1.741c0 10.12-8.204 18.325-18.325 18.325h-47.915c-10.601 0-19.195-8.594-19.195-19.195 0-10.601 8.594-19.195 19.195-19.195h47.915c10.12-.001 18.325 8.204 18.325 18.324z"/><path d="m103.305 341.808v1.741c0 10.12-8.204 18.325-18.325 18.325h-47.915c-10.601 0-19.195-8.594-19.195-19.195 0-10.601 8.594-19.195 19.195-19.195h47.915c10.12-.001 18.325 8.204 18.325 18.324z"/><path d="m103.305 430.043v1.741c0 10.121-8.204 18.325-18.325 18.325h-47.915c-10.601 0-19.195-8.594-19.195-19.195 0-10.601 8.594-19.195 19.195-19.195h47.915c10.12-.001 18.325 8.204 18.325 18.324z"/><path d="m290.5 195.247c-28.399 0-51.503-23.104-51.503-51.503s23.104-51.503 51.503-51.503 51.502 23.104 51.502 51.503-23.103 51.503-51.502 51.503z"/><path d="m400 459.844h-219c-4.418 0-8-3.582-8-8v-44c0-4.418 3.582-8 8-8h219c4.418 0 8 3.582 8 8v44c0 4.418-3.582 8-8 8z"/></g><path d="m84.98 58.778h-28.347c10.121 0 18.325 8.204 18.325 18.325v1.741c0 10.121-8.204 18.325-18.325 18.325h28.347c10.121 0 18.325-8.204 18.325-18.325v-1.741c0-10.12-8.205-18.325-18.325-18.325z" fill="#9dc6fb"/><path d="m84.98 147.013h-28.347c10.121 0 18.325 8.204 18.325 18.325v1.741c0 10.12-8.204 18.325-18.325 18.325h28.347c10.121 0 18.325-8.204 18.325-18.325v-1.741c0-10.12-8.205-18.325-18.325-18.325z" fill="#9dc6fb"/><path d="m84.98 235.248h-28.347c10.121 0 18.325 8.204 18.325 18.325v1.741c0 10.12-8.204 18.325-18.325 18.325h28.347c10.121 0 18.325-8.204 18.325-18.325v-1.741c0-10.12-8.205-18.325-18.325-18.325z" fill="#9dc6fb"/><path d="m84.98 323.483h-28.347c10.121 0 18.325 8.204 18.325 18.325v1.741c0 10.12-8.204 18.325-18.325 18.325h28.347c10.121 0 18.325-8.204 18.325-18.325v-1.741c0-10.12-8.205-18.325-18.325-18.325z" fill="#9dc6fb"/><path d="m84.98 411.719h-28.347c10.121 0 18.325 8.204 18.325 18.325v1.741c0 10.12-8.204 18.325-18.325 18.325h28.347c10.121 0 18.325-8.204 18.325-18.325v-1.741c0-10.121-8.205-18.325-18.325-18.325z" fill="#9dc6fb"/><path d="m434.464 7.5h-28.346c8.595 0 15.564 6.968 15.564 15.564v465.873c0 8.596-6.968 15.564-15.564 15.564h28.346c8.595 0 15.564-6.968 15.564-15.564v-465.873c0-8.596-6.969-15.564-15.564-15.564z" fill="#dd636e"/><path d="m479.13 46h-25.512c8.284 0 15 6.716 15 15v75c0 8.284-6.716 15-15 15h25.512c8.284 0 15-6.716 15-15v-75c0-8.284-6.716-15-15-15z" fill="#9dc6fb"/><path d="m479.13 151h-25.512c8.284 0 15 6.716 15 15v75c0 8.284-6.716 15-15 15h25.512c8.284 0 15-6.716 15-15v-75c0-8.284-6.716-15-15-15z" fill="#ecbe6b"/><path d="m479.13 361h-25.512c8.284 0 15 6.716 15 15v75c0 8.284-6.716 15-15 15h25.512c8.284 0 15-6.716 15-15v-75c0-8.284-6.716-15-15-15z" fill="#ecbe6b"/><path d="m479.13 256h-25.512c8.284 0 15 6.716 15 15v75c0 8.284-6.716 15-15 15h25.512c8.284 0 15-6.716 15-15v-75c0-8.284-6.716-15-15-15z" fill="#9dc6fb"/></g><g><path d="m231.497 143.745c0 32.534 26.469 59.002 59.003 59.002s59.002-26.468 59.002-59.002-26.468-59.003-59.002-59.003-59.003 26.468-59.003 59.003zm103.005 0c0 24.263-19.739 44.002-44.002 44.002-24.264 0-44.003-19.739-44.003-44.002s19.739-44.003 44.003-44.003c24.263 0 44.002 19.739 44.002 44.003z"/><path d="m290.5 41.32c-56.52 0-102.42 45.794-102.42 102.42-.02 14.816 3.187 30.044 10.09 44.4.01 0 .01.01.01.01l76.09 162.55c3.014 6.538 9.547 10.33 16.05 10.33h.36c6.492 0 13.007-3.781 16.05-10.32l76.09-162.56s0 0 0-.01c1.73-3.7.141-8.15-3.529-9.92-3.778-1.833-8.252-.165-10.01 3.48-.011 0-.011.01-.011.01l-76.12 162.63c-1.118 2.254-4.18 2.257-5.3 0-.059-.126-76.058-162.506-76.12-162.63-5.739-11.89-8.649-24.66-8.66-37.97.022-48.448 39.229-87.42 87.431-87.42 48.433 0 87.45 39.705 87.42 87.43v.32c-.01 2.25-.101 4.51-.28 6.72-.332 4.14 2.766 7.739 6.88 8.07 4.101.333 7.727-2.713 8.08-6.88.2-2.59.311-5.23.32-7.85v-.38c-.042-56.478-46.167-102.43-102.421-102.43z"/><path d="m165.5 407.844v44c0 8.547 6.953 15.5 15.5 15.5h219c8.547 0 15.5-6.953 15.5-15.5v-44c0-8.547-6.953-15.5-15.5-15.5h-219c-8.547 0-15.5 6.953-15.5 15.5zm235 0v44c0 .276-.225.5-.5.5h-219c-.275 0-.5-.224-.5-.5v-44c0-.276.225-.5.5-.5h219c.275 0 .5.224.5.5z"/><path d="m501.63 61c0-12.407-10.094-22.5-22.5-22.5h-21.603v-15.437c0-12.717-10.346-23.063-23.063-23.063h-200c-4.143 0-7.5 3.358-7.5 7.5s3.357 7.5 7.5 7.5h200c4.446 0 8.063 3.617 8.063 8.063v465.873c0 4.446-3.617 8.063-8.063 8.063h-295.991v-481.999h60.991c4.143 0 7.5-3.358 7.5-7.5s-3.357-7.5-7.5-7.5h-68.491-64.33c-12.718 0-23.065 10.346-23.065 23.063v28.215h-6.513c-14.72 0-26.695 11.976-26.695 26.695s11.976 26.695 26.695 26.695h6.513v34.845h-6.513c-14.72 0-26.695 11.975-26.695 26.695s11.976 26.695 26.695 26.695h6.513v34.845h-6.513c-14.72 0-26.695 11.976-26.695 26.695s11.976 26.695 26.695 26.695h6.513v34.845h-6.513c-14.72 0-26.695 11.976-26.695 26.695s11.976 26.695 26.695 26.695h6.513v34.844h-6.513c-14.72 0-26.695 11.976-26.695 26.695s11.976 26.695 26.695 26.695h6.513v31.328c0 12.717 10.347 23.063 23.064 23.063h367.821c12.717 0 23.063-10.346 23.063-23.063v-15.435h21.603c12.406 0 22.5-10.093 22.5-22.5v-75c0-5.758-2.177-11.016-5.748-15 3.571-3.984 5.748-9.242 5.748-15v-75c0-5.758-2.177-11.016-5.748-15 3.571-3.984 5.748-9.242 5.748-15v-75c0-5.758-2.177-11.016-5.748-15 3.571-3.984 5.748-9.242 5.748-15v-75zm-476.26 16.974c0-6.449 5.246-11.695 11.695-11.695 52.542 0 49.808-.466 53.07 1.308 3.374 1.835 5.67 5.413 5.67 9.517v1.74c0 4.104-2.295 7.682-5.67 9.517-3.263 1.775-.532 1.308-53.07 1.308-6.449 0-11.695-5.247-11.695-11.695zm0 88.234c0-6.449 5.246-11.695 11.695-11.695h47.914c14.414 0 14.52 23.39 0 23.39-11.283 0-38.126 0-47.914 0-6.449.001-11.695-5.246-11.695-11.695zm0 88.236c0-6.449 5.246-11.695 11.695-11.695h47.914c14.414 0 14.52 23.39 0 23.39-11.283 0-38.126 0-47.914 0-6.449 0-11.695-5.246-11.695-11.695zm0 88.235c0-6.449 5.246-11.695 11.695-11.695h47.914c14.414 0 14.52 23.391 0 23.391-11.283 0-38.126 0-47.914 0-6.449-.001-11.695-5.248-11.695-11.696zm0 88.235c0-6.449 5.246-11.695 11.695-11.695h47.914c14.414 0 14.52 23.39 0 23.39-11.283 0-38.126 0-47.914 0-6.449 0-11.695-5.247-11.695-11.695zm33.208 58.023v-31.328h26.401c14.24 0 25.825-11.585 25.825-25.825 0-5.282-.504-10.074-4.08-15.646-4.595-7.161-12.622-11.92-21.745-11.92h-26.401v-34.844h26.401c14.24 0 25.825-11.585 25.825-25.825v-1.741c0-14.24-11.585-25.825-25.825-25.825h-26.401v-34.845h26.401c12.871 0 25.825-9.637 25.825-27.565 0-14.24-11.585-25.825-25.825-25.825h-26.401v-34.845h26.401c12.871 0 25.825-9.637 25.825-27.565 0-14.238-11.583-25.824-25.825-25.824h-26.401v-34.845h26.401c12.844 0 25.825-9.61 25.825-27.566 0-14.24-11.586-25.825-25.825-25.825h-26.401v-28.215c0-4.446 3.618-8.063 8.064-8.063h56.83v482h-56.83c-4.446 0-8.064-3.617-8.064-8.063zm420.552-435.437c4.136 0 7.5 3.364 7.5 7.5v75c0 4.136-3.364 7.5-7.5 7.5h-21.603v-90zm7.5 112.5v75c0 4.136-3.364 7.5-7.5 7.5h-21.603v-1.124-88.876h21.603c4.136 0 7.5 3.364 7.5 7.5zm0 105v75c0 4.136-3.364 7.5-7.5 7.5h-21.603c0-9.346 0-79.668 0-90h21.603c4.136 0 7.5 3.364 7.5 7.5zm0 180c0 4.136-3.364 7.5-7.5 7.5h-21.603v-90h21.603c4.136 0 7.5 3.364 7.5 7.5z"/></g></g></svg>