<svg id="Capa_1" enable-background="new 0 0 512 512" height="512" viewBox="0 0 512 512" width="512" xmlns="http://www.w3.org/2000/svg"><g><g><path d="m473.665 461.75v-293.683c0-8.837-7.163-16-16-16h-406.165c-8.837 0-16 7.163-16 16v293.683c0 8.837 7.163 16 16 16h406.165c8.837 0 16-7.163 16-16z" fill="#365e7d"/><path d="m441.665 408.943v-214.983c0-3.866-3.134-7-7-7h-360.165c-3.866 0-7 3.134-7 7v214.983c0 3.866 3.134 7 7 7h360.165c3.866 0 7-3.134 7-7z" fill="#9dc6fb"/><path d="m370.665 312.746v-292.679c0-6.627-5.373-12-12-12h-208.165c-6.627 0-12 5.373-12 12v292.679c0 6.627 5.373 12 12 12h208.165c6.628 0 12-5.373 12-12z" fill="#f6e266"/><path d="m460.5 152.067h-31.833c8.837 0 16 7.163 16 16v293.683c0 8.837-7.163 16-16 16h31.833c8.837 0 16-7.163 16-16v-293.683c0-8.837-7.163-16-16-16z" fill="#2b4d66"/><path d="m361.5 8.067h-31.833c6.627 0 12 5.373 12 12v292.679c0 6.627-5.373 12-12 12h31.833c6.627 0 12-5.373 12-12v-292.679c0-6.627-5.373-12-12-12z" fill="#ffd064"/><path d="m437.5 186.96h-28.346c3.866 0 7 3.134 7 7v214.983c0 3.866-3.134 7-7 7h28.346c3.866 0 7-3.134 7-7v-214.983c0-3.866-3.134-7-7-7z" fill="#80b4fb"/><path d="m489.5 505h-467c-8.284 0-15-6.716-15-15v-32.5c0-3.866 3.134-7 7-7h483c3.866 0 7 3.134 7 7v32.5c0 8.284-6.716 15-15 15z" fill="#407093"/><path d="m497.5 450.5h-28.346c3.866 0 7 3.134 7 7v32.5c0 8.284-6.716 15-15 15h28.346c8.284 0 15-6.716 15-15v-32.5c0-3.866-3.134-7-7-7z" fill="#365e7d"/></g><g><path d="m497.5 442.467h-13.5v-274.934c0-12.958-10.542-23.5-23.5-23.5h-79.5v-124.5c0-10.752-8.748-19.5-19.5-19.5h-211c-10.752 0-19.5 8.748-19.5 19.5v25.143c0 4.142 3.358 7.5 7.5 7.5s7.5-3.358 7.5-7.5v-25.143c0-2.481 2.019-4.5 4.5-4.5h211c2.481 0 4.5 2.019 4.5 4.5v132 34.893 125.786c0 2.481-2.019 4.5-4.5 4.5h-211c-2.481 0-4.5-2.019-4.5-4.5v-125.786-34.893-66.856c0-4.142-3.358-7.5-7.5-7.5s-7.5 3.358-7.5 7.5v59.357h-79.5c-12.958 0-23.5 10.542-23.5 23.5v274.933h-13.5c-7.995 0-14.5 6.505-14.5 14.5v32.5c0 12.407 10.093 22.5 22.5 22.5h290c4.142 0 7.5-3.358 7.5-7.5s-3.358-7.5-7.5-7.5h-290c-4.136 0-7.5-3.364-7.5-7.5v-32h482v32c0 4.136-3.364 7.5-7.5 7.5h-137c-4.142 0-7.5 3.358-7.5 7.5s3.358 7.5 7.5 7.5h137c12.407 0 22.5-10.093 22.5-22.5v-32.5c0-7.996-6.505-14.5-14.5-14.5zm-347-110.755h211c10.752 0 19.5-8.748 19.5-19.5v-118.286h56v213.983h-362v-213.983h56v118.286c0 10.753 8.748 19.5 19.5 19.5zm-107.5 110.755v-274.934c0-4.687 3.813-8.5 8.5-8.5h79.5v19.893h-56.5c-7.995 0-14.5 6.505-14.5 14.5v214.983c0 7.995 6.505 14.5 14.5 14.5h363c7.995 0 14.5-6.505 14.5-14.5v-214.983c0-7.995-6.505-14.5-14.5-14.5h-56.5v-19.893h79.5c4.687 0 8.5 3.813 8.5 8.5v274.933h-426z"/><path d="m178.5 81.373h155c4.142 0 7.5-3.358 7.5-7.5s-3.358-7.5-7.5-7.5h-155c-4.142 0-7.5 3.358-7.5 7.5s3.358 7.5 7.5 7.5z"/><path d="m178.5 142.706h155c4.142 0 7.5-3.358 7.5-7.5s-3.358-7.5-7.5-7.5h-155c-4.142 0-7.5 3.358-7.5 7.5s3.358 7.5 7.5 7.5z"/><path d="m178.5 204.039h155c4.142 0 7.5-3.358 7.5-7.5s-3.358-7.5-7.5-7.5h-155c-4.142 0-7.5 3.358-7.5 7.5s3.358 7.5 7.5 7.5z"/><path d="m178.5 265.373h155c4.142 0 7.5-3.358 7.5-7.5s-3.358-7.5-7.5-7.5h-155c-4.142 0-7.5 3.358-7.5 7.5s3.358 7.5 7.5 7.5z"/></g></g></svg>