<svg id="Capa_1" enable-background="new 0 0 512 512" height="512" viewBox="0 0 512 512" width="512" xmlns="http://www.w3.org/2000/svg"><g><g><path d="m493.5 108.503h-451.285v338.118h451.285c6.075 0 11-4.925 11-11v-316.118c0-6.076-4.925-11-11-11z" fill="#d8e2f1"/><circle cx="42.215" cy="411.905" fill="#d8e2f1" r="34.715"/><path d="m301.622 222.506h-127.548c-2.049 0-3.711-1.661-3.711-3.711v-47.561c0-2.049 1.661-3.711 3.711-3.711h127.548c2.049 0 3.711 1.661 3.711 3.711v47.561c0 2.05-1.662 3.711-3.711 3.711z" fill="#e28086"/><path d="m42.215 65.379c-19.172 0-34.715 15.543-34.715 34.715v311.811c0-19.173 15.543-34.715 34.715-34.715 19.173 0 34.715 15.543 34.715 34.715v-311.811c.001-19.172-15.542-34.715-34.715-34.715z" fill="#9dc6fb"/><path d="m493.5 108.503h-30c6.075 0 11 4.925 11 11v316.118c0 6.075-4.925 11-11 11h30c6.075 0 11-4.925 11-11v-316.118c0-6.076-4.925-11-11-11z" fill="#bed8fb"/><g><path d="m42.215 65.379c-4.506 0-8.806.868-12.756 2.43 12.859 5.085 21.959 17.618 21.959 32.286v278.338c14.704 4.034 25.512 17.487 25.512 33.473v-311.812c.001-19.172-15.542-34.715-34.715-34.715z" fill="#80b4fb"/></g><path d="m27.343 411.905c0-15.724 10.457-28.999 24.794-33.269-3.144-.936-6.473-1.447-9.921-1.447-19.173 0-34.715 15.543-34.715 34.715 0 19.173 15.543 34.715 34.715 34.715 3.449 0 6.777-.51 9.921-1.447-14.337-4.267-24.794-17.542-24.794-33.267z" fill="#bed8fb"/><g fill="#e28086"><path d="m155.856 381.728h-36.315c-2.507 0-4.539-2.032-4.539-4.539v-36.315c0-2.507 2.032-4.539 4.539-4.539h36.315c2.507 0 4.539 2.032 4.539 4.539v36.315c0 2.506-2.032 4.539-4.539 4.539z"/><path d="m356.82 381.728h-36.315c-2.507 0-4.539-2.032-4.539-4.539v-36.315c0-2.507 2.032-4.539 4.539-4.539h36.315c2.507 0 4.539 2.032 4.539 4.539v36.315c0 2.506-2.032 4.539-4.539 4.539z"/><path d="m256.338 381.728h-36.315c-2.507 0-4.539-2.032-4.539-4.539v-36.315c0-2.507 2.032-4.539 4.539-4.539h36.315c2.507 0 4.539 2.032 4.539 4.539v36.315c0 2.506-2.032 4.539-4.539 4.539z"/></g></g><g><path d="m174.074 230.006h127.548c6.182 0 11.211-5.029 11.211-11.211v-47.562c0-6.182-5.029-11.21-11.211-11.21h-127.548c-6.182 0-11.211 5.029-11.211 11.21v47.562c0 6.182 5.029 11.211 11.211 11.211zm3.789-54.983h119.97v39.983h-119.97z"/><path d="m338.663 271.104h-92.982v-22.905c0-4.142-3.358-7.5-7.5-7.5s-7.5 3.358-7.5 7.5v22.905h-92.982c-4.142 0-7.5 3.358-7.5 7.5v28.156c0 4.142 3.358 7.5 7.5 7.5s7.5-3.358 7.5-7.5v-20.656h85.482v20.656c0 4.142 3.358 7.5 7.5 7.5s7.5-3.358 7.5-7.5v-20.656h85.482v20.656c0 4.142 3.358 7.5 7.5 7.5s7.5-3.358 7.5-7.5v-28.156c0-4.142-3.358-7.5-7.5-7.5z"/><path d="m119.541 328.834c-6.639 0-12.04 5.401-12.04 12.04v36.315c0 6.638 5.401 12.039 12.04 12.039h36.315c6.638 0 12.039-5.401 12.039-12.039v-36.315c0-6.639-5.401-12.04-12.039-12.04zm33.354 45.394h-30.394v-30.394h30.394z"/><path d="m308.466 340.874v36.315c0 6.638 5.401 12.039 12.04 12.039h36.314c6.639 0 12.04-5.401 12.04-12.039v-36.315c0-6.639-5.401-12.04-12.04-12.04h-36.314c-6.639 0-12.04 5.401-12.04 12.04zm15 2.96h30.394v30.394h-30.394z"/><path d="m220.023 328.834c-6.638 0-12.039 5.401-12.039 12.04v36.315c0 6.638 5.401 12.039 12.039 12.039h36.315c6.639 0 12.04-5.401 12.04-12.039v-36.315c0-6.639-5.401-12.04-12.04-12.04zm33.354 45.394h-30.394v-30.394h30.394z"/><path d="m403 173.093h64c4.142 0 7.5-3.358 7.5-7.5s-3.358-7.5-7.5-7.5h-64c-4.142 0-7.5 3.358-7.5 7.5s3.358 7.5 7.5 7.5z"/><path d="m403 209.944h64c4.142 0 7.5-3.358 7.5-7.5s-3.358-7.5-7.5-7.5h-64c-4.142 0-7.5 3.358-7.5 7.5s3.358 7.5 7.5 7.5z"/><path d="m403 246.794h64c4.142 0 7.5-3.358 7.5-7.5s-3.358-7.5-7.5-7.5h-64c-4.142 0-7.5 3.358-7.5 7.5s3.358 7.5 7.5 7.5z"/><path d="m403 323.329h64c4.142 0 7.5-3.358 7.5-7.5s-3.358-7.5-7.5-7.5h-64c-4.142 0-7.5 3.358-7.5 7.5s3.358 7.5 7.5 7.5z"/><path d="m403 360.18h64c4.142 0 7.5-3.358 7.5-7.5s-3.358-7.5-7.5-7.5h-64c-4.142 0-7.5 3.358-7.5 7.5s3.358 7.5 7.5 7.5z"/><path d="m403 397.03h64c4.142 0 7.5-3.358 7.5-7.5s-3.358-7.5-7.5-7.5h-64c-4.142 0-7.5 3.358-7.5 7.5s3.358 7.5 7.5 7.5z"/><path d="m493.5 101.003h-300c-4.142 0-7.5 3.358-7.5 7.5s3.358 7.5 7.5 7.5h300c1.93 0 3.5 1.57 3.5 3.5v188.318c0 4.142 3.358 7.5 7.5 7.5s7.5-3.358 7.5-7.5v-188.318c0-10.201-8.299-18.5-18.5-18.5z"/><path d="m504.5 340.321c-4.142 0-7.5 3.358-7.5 7.5v87.8c0 1.93-1.57 3.5-3.5 3.5h-451.285c-15.006 0-27.215-12.209-27.215-27.215s12.209-27.215 27.215-27.215 27.215 12.209 27.215 27.215c0 4.142 3.358 7.5 7.5 7.5s7.5-3.358 7.5-7.5v-295.903h69.07c4.142 0 7.5-3.358 7.5-7.5s-3.358-7.5-7.5-7.5h-69.069v-.908c0-23.277-18.938-42.215-42.215-42.215s-42.216 18.937-42.216 42.214v311.811c0 23.277 18.938 42.215 42.215 42.215h451.285c10.201 0 18.5-8.299 18.5-18.5v-87.8c0-4.141-3.358-7.499-7.5-7.499zm-489.5-240.227c0-15.006 12.209-27.215 27.215-27.215s27.215 12.209 27.215 27.215v279.563c-7.354-6.216-16.855-9.968-27.215-9.968-9.985 0-19.65 3.571-27.215 9.968z"/></g></g></svg>