<svg id="Capa_1" enable-background="new 0 0 512 512" height="512" viewBox="0 0 512 512" width="512" xmlns="http://www.w3.org/2000/svg"><g><g><path d="m58.286 67.403c0-8.836 7.163-16 16-16h302.783v-27.903c0-8.836-7.163-16-16-16h-329.223c-8.837 0-16 7.164-16 16v421.097c0 8.836 7.163 16 16 16h26.44z" fill="#9dc6fb"/><path d="m74.286 504.5h329.224c8.837 0 16-7.163 16-16v-421.097c0-8.837-7.163-16-16-16h-329.224c-8.837 0-16 7.163-16 16v421.097c0 8.837 7.164 16 16 16z" fill="#e7ecf6"/><path d="m403.51 51.403h-28.346c8.837 0 16 7.163 16 16v421.097c0 8.837-7.163 16-16 16h28.346c8.837 0 16-7.163 16-16v-421.097c0-8.836-7.164-16-16-16z" fill="#d8e2f1"/><g fill="#80b4fb"><path d="m361.069 7.5h-28.347c8.837 0 16 7.164 16 16v27.903h28.347v-27.903c0-8.836-7.163-16-16-16z"/><path d="m29.94 67.403v393.07c1.451.173-.536.124 28.346.124v-393.194c0-8.836 7.163-16 16-16h-28.346c-8.837 0-16 7.164-16 16z"/></g><path d="m489.376 316.879-66.749-66.75c-8.23 13.162-19.194 24.252-32.695 32.695l66.749 66.749c9.028 9.029 23.666 9.029 32.695 0 9.029-9.028 9.029-23.665 0-32.694z" fill="#407093"/><path d="m260.142 377.221h-78.262v78.262c43.223-.001 78.262-35.039 78.262-78.262z" fill="#e28086"/><path d="m260.142 377.221c0-43.223-35.039-78.261-78.262-78.261s-78.261 35.039-78.261 78.261 35.039 78.262 78.261 78.262v-78.262z" fill="#95d6a4"/><path d="m489.376 316.879-66.749-66.75c-2.487 3.976-5.263 7.823-8.338 11.504l55.245 55.245c9.029 9.028 9.029 23.666 0 32.695-1.921 1.921-4.105 3.408-6.426 4.512 8.587 4.083 19.161 2.596 26.269-4.512 9.028-9.028 9.028-23.665-.001-32.694z" fill="#365e7d"/><circle cx="335.636" cy="195.833" fill="#90d8f9" r="102.554"/><path d="m386.212 246.41c-27.887 27.887-73.265 27.887-101.153-.001s-27.887-73.264 0-101.152 73.264-27.888 101.152 0 27.888 73.265.001 101.153z" fill="#d8e2f1"/><path d="m408.152 123.317c-23.988-23.987-56.901-33.601-88.048-28.855 20.857 3.178 40.923 12.792 56.986 28.855 40.05 40.05 40.05 104.984 0 145.034-16.063 16.063-36.128 25.676-56.986 28.855 31.148 4.747 64.061-4.867 88.048-28.855 40.051-40.051 40.051-104.984 0-145.034z" fill="#75cef9"/></g><g><path d="m335.634 116.841c-43.717 0-78.991 35.266-78.991 78.992 0 43.719 35.267 78.991 78.992 78.992h.001c43.717 0 78.991-35.265 78.991-78.992-.001-43.718-35.266-78.992-78.993-78.992zm.001 142.984c-35.426 0-63.992-28.558-63.992-63.992 0-35.425 28.556-63.992 63.992-63.992 35.428 0 63.99 28.557 63.992 63.992.001 35.427-28.556 63.992-63.992 63.992z"/><path d="m494.679 311.576-15.556-15.556c-2.93-2.93-7.678-2.929-10.607 0s-2.929 7.678.001 10.606l15.556 15.556c6.104 6.107 6.104 15.987 0 22.088-6.106 6.104-15.981 6.106-22.088 0-13.041-13.041-48.693-48.693-60.36-60.361 8.324-6.245 15.806-13.717 22.098-22.078l20.045 20.045c2.93 2.929 7.678 2.929 10.607 0s2.929-7.678 0-10.606l-22.309-22.309c8.892-16.084 13.625-34.241 13.625-53.128 0-22.199-6.532-43.392-18.681-61.392v-67.038c0-12.958-10.542-23.5-23.5-23.5h-18.94v-20.403c0-12.958-10.542-23.5-23.5-23.5h-209.029c-4.142 0-7.5 3.358-7.5 7.5s3.358 7.5 7.5 7.5h209.028c4.687 0 8.5 3.813 8.5 8.5v20.403h-295.283c-12.958 0-23.5 10.542-23.5 23.5v385.693h-18.94c-4.687 0-8.5-3.813-8.5-8.5v-421.096c0-4.687 3.813-8.5 8.5-8.5h85.195c4.142 0 7.5-3.358 7.5-7.5s-3.358-7.5-7.5-7.5h-85.195c-12.958 0-23.5 10.542-23.5 23.5v421.097c0 12.958 10.542 23.5 23.5 23.5h18.94v20.403c0 12.958 10.542 23.5 23.5 23.5h329.223c12.958 0 23.5-10.542 23.5-23.5v-157.991l24.369 24.369c11.966 11.965 31.328 11.968 43.302 0 11.964-11.966 11.967-31.332-.001-43.302zm-222.92-45.357c-20.458-18.587-31.133-44.212-31.133-70.386 0-52.557 42.456-95.01 95.009-95.01 52.495 0 95.055 42.416 95.055 95.01 0 81.164-97.572 126.216-158.931 70.386zm140.25 222.281c0 4.687-3.813 8.5-8.5 8.5h-329.223c-4.687 0-8.5-3.813-8.5-8.5v-27.903-393.194c0-4.687 3.813-8.5 8.5-8.5h302.783 26.44c4.687 0 8.5 3.813 8.5 8.5v49.189c-20.096-19.39-46.982-30.813-76.374-30.813-94.97 0-145.444 113.219-81.717 183.774 17.822 19.731 42.558 32.753 69.871 35.685 21.571 2.314 44.575-1.791 64.949-13.002l23.272 23.272v172.992z"/><path d="m103.619 120.403h92.838c4.142 0 7.5-3.358 7.5-7.5s-3.358-7.5-7.5-7.5h-92.838c-4.142 0-7.5 3.358-7.5 7.5s3.358 7.5 7.5 7.5z"/><path d="m103.619 162.923h92.838c4.142 0 7.5-3.358 7.5-7.5s-3.358-7.5-7.5-7.5h-92.838c-4.142 0-7.5 3.358-7.5 7.5s3.358 7.5 7.5 7.5z"/><path d="m103.619 205.443h92.838c4.142 0 7.5-3.358 7.5-7.5s-3.358-7.5-7.5-7.5h-92.838c-4.142 0-7.5 3.358-7.5 7.5s3.358 7.5 7.5 7.5z"/><path d="m103.619 250.797h92.838c4.142 0 7.5-3.358 7.5-7.5s-3.358-7.5-7.5-7.5h-92.838c-4.142 0-7.5 3.358-7.5 7.5s3.358 7.5 7.5 7.5z"/><path d="m327.979 460.737h-79.118l-9.019-20.373c17.075-15.687 27.799-38.183 27.799-63.143 0-12.134-2.548-23.679-7.113-34.151h72.272c4.143 0 7.5-3.358 7.5-7.5s-3.357-7.5-7.5-7.5h-80.704c-15.527-22.115-41.203-36.61-70.217-36.61-47.289 0-85.761 38.472-85.761 85.761s38.472 85.762 85.761 85.762c16.795 0 32.464-4.872 45.707-13.248l9.535 21.539c1.201 2.714 3.89 4.464 6.858 4.464h84c4.143 0 7.5-3.358 7.5-7.5s-3.357-7.501-7.5-7.501zm-153.598-83.516v70.367c-35.504-3.759-63.261-33.883-63.261-70.367 0-39.018 31.743-70.761 70.761-70.761 19.936 0 37.96 8.3 50.834 21.61h-11.703c-4.142 0-7.5 3.358-7.5 7.5s3.358 7.5 7.5 7.5h22.811c4.462 8.06 7.411 17.069 8.425 26.651h-70.367c-4.143 0-7.5 3.358-7.5 7.5zm15 70.367v-62.867h62.867c-1.671 15.781-8.56 30.024-18.893 40.987l-5.486-12.392c-1.677-3.788-6.108-5.499-9.894-3.822-3.788 1.676-5.499 6.106-3.822 9.894l7.286 16.459c-9.347 6.327-20.272 10.493-32.058 11.741z"/><path d="m380.646 369.721h-47.845c-4.143 0-7.5 3.358-7.5 7.5s3.357 7.5 7.5 7.5h47.845c4.143 0 7.5-3.358 7.5-7.5s-3.357-7.5-7.5-7.5z"/><path d="m380.646 406.571h-47.845c-4.143 0-7.5 3.358-7.5 7.5s3.357 7.5 7.5 7.5h47.845c4.143 0 7.5-3.358 7.5-7.5s-3.357-7.5-7.5-7.5z"/><path d="m361.547 166.998-41.316 39.76-8.984-18.156c-1.837-3.713-6.335-5.233-10.048-3.396s-5.233 6.336-3.396 10.048l13.526 27.336c2.238 4.526 8.259 5.605 11.922 2.078l48.696-46.862c2.985-2.873 3.076-7.62.204-10.605-2.873-2.984-7.62-3.074-10.604-.203z"/></g></g></svg>