<svg id="Capa_1" enable-background="new 0 0 512 512" height="512" viewBox="0 0 512 512" width="512" xmlns="http://www.w3.org/2000/svg"><g><g><path d="m468 469.5v-427c0-19.33-15.67-35-35-35h-357c-19.33 0-35 15.67-35 35v427c0 19.33 15.67 35 35 35h357c19.33 0 35-15.67 35-35z" fill="#407093"/><path d="m78 459.5v-49.587c0-4.418 3.582-8 8-8h49.587c4.418 0 8 3.582 8 8v49.587c0 4.418-3.582 8-8 8h-49.587c-4.418 0-8-3.582-8-8z" fill="#bed8fb"/><path d="m78 168.594v-116.094c0-4.418 3.582-8 8-8h340c4.418 0 8 3.582 8 8v116.094c0 4.418-3.582 8-8 8h-340c-4.418 0-8-3.581-8-8z" fill="#e28086"/><path d="m373.689 459.5v-238.907c0-4.418 3.582-8 8-8h44.311c4.418 0 8 3.582 8 8v238.907c0 4.418-3.582 8-8 8h-44.311c-4.418 0-8-3.582-8-8z" fill="#bed8fb"/><path d="m176.373 459.5v-49.587c0-4.418 3.582-8 8-8h49.587c4.418 0 8 3.582 8 8v49.587c0 4.418-3.582 8-8 8h-49.587c-4.418 0-8-3.582-8-8z" fill="#bed8fb"/><path d="m274.746 459.5v-49.587c0-4.418 3.582-8 8-8h49.587c4.418 0 8 3.582 8 8v49.587c0 4.418-3.582 8-8 8h-49.587c-4.418 0-8-3.582-8-8z" fill="#bed8fb"/><path d="m78 365.507v-49.587c0-4.418 3.582-8 8-8h49.587c4.418 0 8 3.582 8 8v49.587c0 4.418-3.582 8-8 8h-49.587c-4.418 0-8-3.582-8-8z" fill="#bed8fb"/><path d="m176.373 365.507v-49.587c0-4.418 3.582-8 8-8h49.587c4.418 0 8 3.582 8 8v49.587c0 4.418-3.582 8-8 8h-49.587c-4.418 0-8-3.582-8-8z" fill="#bed8fb"/><path d="m274.746 365.507v-49.587c0-4.418 3.582-8 8-8h49.587c4.418 0 8 3.582 8 8v49.587c0 4.418-3.582 8-8 8h-49.587c-4.418 0-8-3.582-8-8z" fill="#bed8fb"/><g fill="#bed8fb"><path d="m78 270.18v-49.587c0-4.418 3.582-8 8-8h49.587c4.418 0 8 3.582 8 8v49.587c0 4.418-3.582 8-8 8h-49.587c-4.418 0-8-3.582-8-8z"/><path d="m176.373 270.18v-49.587c0-4.418 3.582-8 8-8h49.587c4.418 0 8 3.582 8 8v49.587c0 4.418-3.582 8-8 8h-49.587c-4.418 0-8-3.582-8-8z"/><path d="m274.746 270.18v-49.587c0-4.418 3.582-8 8-8h49.587c4.418 0 8 3.582 8 8v49.587c0 4.418-3.582 8-8 8h-49.587c-4.418 0-8-3.582-8-8z"/></g><g fill="#9dc6fb"><path d="m135.587 401.913h-25.512c4.418 0 8 3.582 8 8v49.587c0 4.418-3.582 8-8 8h25.512c4.418 0 8-3.582 8-8v-49.587c0-4.419-3.581-8-8-8z"/><path d="m426 212.593h-25.512c4.418 0 8 3.582 8 8v238.907c0 4.418-3.582 8-8 8h25.512c4.418 0 8-3.582 8-8v-238.907c0-4.419-3.582-8-8-8z"/><path d="m233.96 401.913h-25.512c4.418 0 8 3.582 8 8v49.587c0 4.418-3.582 8-8 8h25.512c4.418 0 8-3.582 8-8v-49.587c0-4.419-3.581-8-8-8z"/><path d="m332.333 401.913h-25.512c4.418 0 8 3.582 8 8v49.587c0 4.418-3.582 8-8 8h25.512c4.418 0 8-3.582 8-8v-49.587c0-4.419-3.581-8-8-8z"/><path d="m135.587 307.919h-25.512c4.418 0 8 3.582 8 8v49.587c0 4.418-3.582 8-8 8h25.512c4.418 0 8-3.582 8-8v-49.587c0-4.418-3.581-8-8-8z"/><path d="m233.96 307.919h-25.512c4.418 0 8 3.582 8 8v49.587c0 4.418-3.582 8-8 8h25.512c4.418 0 8-3.582 8-8v-49.587c0-4.418-3.581-8-8-8z"/><path d="m332.333 307.919h-25.512c4.418 0 8 3.582 8 8v49.587c0 4.418-3.582 8-8 8h25.512c4.418 0 8-3.582 8-8v-49.587c0-4.418-3.581-8-8-8z"/><path d="m135.587 212.593h-25.512c4.418 0 8 3.582 8 8v49.587c0 4.418-3.582 8-8 8h25.512c4.418 0 8-3.582 8-8v-49.587c0-4.419-3.581-8-8-8z"/><path d="m233.96 212.593h-25.512c4.418 0 8 3.582 8 8v49.587c0 4.418-3.582 8-8 8h25.512c4.418 0 8-3.582 8-8v-49.587c0-4.419-3.581-8-8-8z"/><path d="m332.333 212.593h-25.512c4.418 0 8 3.582 8 8v49.587c0 4.418-3.582 8-8 8h25.512c4.418 0 8-3.582 8-8v-49.587c0-4.419-3.581-8-8-8z"/></g><path d="m426 44.5h-31.181c4.418 0 8 3.582 8 8v116.094c0 4.418-3.582 8-8 8h31.181c4.418 0 8-3.582 8-8v-116.094c0-4.418-3.582-8-8-8z" fill="#dd636e"/><path d="m436 7.5h-25.512c19.33 0 35 15.67 35 35v427c0 19.33-15.67 35-35 35h25.512c19.33 0 35-15.67 35-35v-427c0-19.33-15.67-35-35-35z" fill="#365e7d"/></g><g><path d="m41 406c4.142 0 7.5-3.358 7.5-7.5v-356c0-15.164 12.336-27.5 27.5-27.5h266c4.142 0 7.5-3.358 7.5-7.5s-3.358-7.5-7.5-7.5h-266c-23.435 0-42.5 19.065-42.5 42.5v356c0 4.142 3.358 7.5 7.5 7.5z"/><path d="m436 0h-59c-4.142 0-7.5 3.358-7.5 7.5s3.358 7.5 7.5 7.5h59c15.164 0 27.5 12.336 27.5 27.5v427c0 15.164-12.336 27.5-27.5 27.5h-360c-15.164 0-27.5-12.336-27.5-27.5v-36c0-4.142-3.358-7.5-7.5-7.5s-7.5 3.358-7.5 7.5v36c0 23.435 19.065 42.5 42.5 42.5h360c23.435 0 42.5-19.065 42.5-42.5v-427c0-23.435-19.065-42.5-42.5-42.5z"/><path d="m135.587 394.413h-49.587c-8.547 0-15.5 6.953-15.5 15.5v49.587c0 8.547 6.953 15.5 15.5 15.5h49.587c8.547 0 15.5-6.953 15.5-15.5v-49.587c0-8.547-6.953-15.5-15.5-15.5zm.5 65.087c0 .276-.224.5-.5.5h-49.587c-.276 0-.5-.224-.5-.5v-49.587c0-.276.224-.5.5-.5h49.587c.276 0 .5.224.5.5z"/><path d="m441.5 52.5c0-8.547-6.953-15.5-15.5-15.5h-340c-8.547 0-15.5 6.953-15.5 15.5v116.094c0 8.547 6.953 15.5 15.5 15.5h340c8.547 0 15.5-6.953 15.5-15.5zm-15 116.094c0 .276-.224.5-.5.5h-340c-.276 0-.5-.224-.5-.5v-116.094c0-.276.224-.5.5-.5h340c.276 0 .5.224.5.5z"/><path d="m426 205.093h-44.311c-8.547 0-15.5 6.953-15.5 15.5v238.907c0 8.547 6.953 15.5 15.5 15.5h44.311c8.547 0 15.5-6.953 15.5-15.5v-238.907c0-8.547-6.953-15.5-15.5-15.5zm.5 254.407c0 .276-.224.5-.5.5h-44.311c-.276 0-.5-.224-.5-.5v-238.907c0-.276.224-.5.5-.5h44.311c.276 0 .5.224.5.5z"/><path d="m233.96 394.413h-49.587c-8.547 0-15.5 6.953-15.5 15.5v49.587c0 8.547 6.953 15.5 15.5 15.5h49.587c8.547 0 15.5-6.953 15.5-15.5v-49.587c0-8.547-6.953-15.5-15.5-15.5zm.5 65.087c0 .276-.224.5-.5.5h-49.587c-.276 0-.5-.224-.5-.5v-49.587c0-.276.224-.5.5-.5h49.587c.276 0 .5.224.5.5z"/><path d="m332.333 394.413h-49.587c-8.547 0-15.5 6.953-15.5 15.5v49.587c0 8.547 6.953 15.5 15.5 15.5h49.587c8.547 0 15.5-6.953 15.5-15.5v-49.587c0-8.547-6.953-15.5-15.5-15.5zm.5 65.087c0 .276-.224.5-.5.5h-49.587c-.276 0-.5-.224-.5-.5v-49.587c0-.276.224-.5.5-.5h49.587c.276 0 .5.224.5.5z"/><path d="m151.087 315.919c0-8.547-6.953-15.5-15.5-15.5h-49.587c-8.547 0-15.5 6.953-15.5 15.5v49.587c0 8.547 6.953 15.5 15.5 15.5h49.587c8.547 0 15.5-6.953 15.5-15.5zm-15 49.588c0 .276-.224.5-.5.5h-49.587c-.276 0-.5-.224-.5-.5v-49.587c0-.276.224-.5.5-.5h49.587c.276 0 .5.224.5.5z"/><path d="m249.46 315.919c0-8.547-6.953-15.5-15.5-15.5h-49.587c-8.547 0-15.5 6.953-15.5 15.5v49.587c0 8.547 6.953 15.5 15.5 15.5h49.587c8.547 0 15.5-6.953 15.5-15.5zm-15 49.588c0 .276-.224.5-.5.5h-49.587c-.276 0-.5-.224-.5-.5v-49.587c0-.276.224-.5.5-.5h49.587c.276 0 .5.224.5.5z"/><path d="m347.833 315.919c0-8.547-6.953-15.5-15.5-15.5h-49.587c-8.547 0-15.5 6.953-15.5 15.5v49.587c0 8.547 6.953 15.5 15.5 15.5h49.587c8.547 0 15.5-6.953 15.5-15.5zm-15 49.588c0 .276-.224.5-.5.5h-49.587c-.276 0-.5-.224-.5-.5v-49.587c0-.276.224-.5.5-.5h49.587c.276 0 .5.224.5.5z"/><path d="m151.087 220.593c0-8.547-6.953-15.5-15.5-15.5h-49.587c-8.547 0-15.5 6.953-15.5 15.5v49.587c0 8.547 6.953 15.5 15.5 15.5h49.587c8.547 0 15.5-6.953 15.5-15.5zm-15 49.587c0 .276-.224.5-.5.5h-49.587c-.276 0-.5-.224-.5-.5v-49.587c0-.276.224-.5.5-.5h49.587c.276 0 .5.224.5.5z"/><path d="m249.46 220.593c0-8.547-6.953-15.5-15.5-15.5h-49.587c-8.547 0-15.5 6.953-15.5 15.5v49.587c0 8.547 6.953 15.5 15.5 15.5h49.587c8.547 0 15.5-6.953 15.5-15.5zm-15 49.587c0 .276-.224.5-.5.5h-49.587c-.276 0-.5-.224-.5-.5v-49.587c0-.276.224-.5.5-.5h49.587c.276 0 .5.224.5.5z"/><path d="m347.833 220.593c0-8.547-6.953-15.5-15.5-15.5h-49.587c-8.547 0-15.5 6.953-15.5 15.5v49.587c0 8.547 6.953 15.5 15.5 15.5h49.587c8.547 0 15.5-6.953 15.5-15.5zm-15 49.587c0 .276-.224.5-.5.5h-49.587c-.276 0-.5-.224-.5-.5v-49.587c0-.276.224-.5.5-.5h49.587c.276 0 .5.224.5.5z"/></g></g></svg>