<svg id="Capa_1" enable-background="new 0 0 512 512" height="512" viewBox="0 0 512 512" width="512" xmlns="http://www.w3.org/2000/svg"><g><g><path d="m371.751 444.5v-417c0-11.046-8.954-20-20-20h-317.751c-11.046 0-20 8.954-20 20v417c0 11.046 8.954 20 20 20h317.751c11.046 0 20-8.954 20-20z" fill="#e7ecf6"/><path d="m354.751 7.5h-28.346c11.046 0 20 8.954 20 20v417c0 11.046-8.954 20-20 20h28.346c11.046 0 20-8.954 20-20v-417c0-11.046-8.954-20-20-20z" fill="#d8e2f1"/><path d="m489 251.106c-3.157-2.084-6.934-3.305-11-3.305h-330c-11.046 0-20 8.954-20 20v216.699c0 11.046 8.954 20 20 20h330c4.066 0 7.843-1.221 11-3.305z" fill="#ecbe6b"/><path d="m469.654 267.801v204.56l7.68 17.638 15.159 8.257c3.405-3.586 5.508-8.421 5.508-13.757v-216.698c0-11.046-8.954-20-20-20h-28.346c11.044 0 19.999 8.955 19.999 20z" fill="#eab14d"/><path d="m474.919 490.716c1.328-5.998-.973-9.243-5.265-18.354l-156.654-177.608-179.493 203.502c3.644 3.838 8.782 6.244 14.493 6.244h301.654l13.659-2.554c10.459-1.956 11.891-12.517 11.606-11.23z" fill="#eab14d"/><path d="m492.492 498.257c.001 0 .001-.001 0 0l-22.839-25.895v12.138c0 11.046-8.954 20-20 20h28.347c5.448 0 10.689-2.238 14.492-6.243z" fill="#e7a52e"/><path d="m469.654 269.59 1.532-10.248c.637-4.264-2.252-8.254-6.502-8.979l-15.03-2.561h-301.654c-5.13 0-9.794 1.948-13.334 5.124l167.365 128.643c6.468 4.972 15.471 4.972 21.939 0z" fill="#ffd064"/><path d="m469.654 269.59 21.681-16.665c-3.749-3.364-8.581-5.124-13.334-5.124h-28.346c9.534 0 19.999 6.868 19.999 21.789z" fill="#ecbe6b"/></g><g><path d="m498 308.873c4.143 0 7.5-3.358 7.5-7.5v-33.571c0-15.283-12.481-27.5-27.5-27.5h-95.749v-212.802c0-15.164-12.336-27.5-27.5-27.5h-320.751c-15.164 0-27.5 12.336-27.5 27.5v317.911c0 4.142 3.358 7.5 7.5 7.5s7.5-3.358 7.5-7.5v-317.911c0-6.893 5.607-12.5 12.5-12.5h320.751c6.893 0 12.5 5.607 12.5 12.5v212.801c-9.893 0-209.343 0-219.251 0-15.023 0-27.5 12.222-27.5 27.5v189.199h-86.5c-6.893 0-12.5-5.607-12.5-12.5v-64.089c0-4.142-3.358-7.5-7.5-7.5s-7.5 3.358-7.5 7.5v64.089c0 15.164 12.336 27.5 27.5 27.5h86.5v12.5c0 7.7 3.196 14.762 8.475 19.828.067.065.135.13.203.194 5.14 4.836 11.76 7.478 18.822 7.478h330c7.928 0 15.08-3.378 19.965-8.618 4.665-4.93 7.535-11.575 7.535-18.882v-148.127c0-4.142-3.357-7.5-7.5-7.5s-7.5 3.358-7.5 7.5v148.127c0 .05-.007.099-.008.15l-116.493-132.077 115.758-88.977c.472 1.316.743 2.728.743 4.205v33.571c0 4.143 3.357 7.501 7.5 7.501zm-362.492 175.778c-.001-.051-.008-.1-.008-.151 0-8.177 0-206.097 0-216.699 0-1.477.271-2.888.743-4.205l115.758 88.977zm226.571-122.915 118.962 134.874c-.078.02-.155.042-.233.06-.888.205-1.885.33-2.808.33h-330c-.888 0-1.995-.126-3.041-.39l118.962-134.875 33.539 25.779c9.151 7.035 21.932 7.032 31.08 0zm-42.68 13.886c-3.769 2.896-9.029 2.897-12.799 0l-156.536-120.321h325.871z"/><path d="m70.875 77.5h247c4.143 0 7.5-3.358 7.5-7.5s-3.357-7.5-7.5-7.5h-247c-4.142 0-7.5 3.358-7.5 7.5s3.358 7.5 7.5 7.5z"/><path d="m70.875 138.734h247c4.143 0 7.5-3.358 7.5-7.5s-3.357-7.5-7.5-7.5h-247c-4.142 0-7.5 3.358-7.5 7.5s3.358 7.5 7.5 7.5z"/><path d="m70.875 199.968h247c4.143 0 7.5-3.358 7.5-7.5s-3.357-7.5-7.5-7.5h-247c-4.142 0-7.5 3.358-7.5 7.5s3.358 7.5 7.5 7.5z"/></g></g></svg>