<svg id="Capa_1" enable-background="new 0 0 512 512" height="512" viewBox="0 0 512 512" width="512" xmlns="http://www.w3.org/2000/svg"><g><g><path d="m401.052 482.5v-392.623h-376.961v392.623c0 12.15 9.85 22 22 22h332.961c12.15 0 22-9.85 22-22z" fill="#e7ecf6"/><path d="m372.177 89.877v392.623c0 12.15-9.85 22-22 22h3.568 24.779 3.568c12.15 0 22-9.85 22-22v-392.623c-14.526 0-16.265 0-31.915 0z" fill="#d8e2f1"/><path d="m383.052 50.754h-336.961c-12.15 0-22 9.85-22 22v56.246h376.961v-60.246c0-9.941-8.059-18-18-18z" fill="#95d6a4"/><path d="m419.412 446.024v-81.875c-9.719 2.886-20.288 3.075-30.642 0v81.875z" fill="#80b4fb"/><path d="m459.508 242.488v-15.153l-4.206-7.5 4.187-7.5c-.395-31.292-25.039-56.537-55.398-56.537-30.606 0-55.417 25.653-55.417 57.297l3.628 6.74-3.628 7.5v15.153l3.628 7.5-3.628 7.5v18.724h110.834v-18.724l-4.206-9.738z" fill="#bed8fb"/><path d="m459.489 212.335c-.395-31.292-25.039-56.537-55.398-56.537-3.888 0-7.681.418-11.343 1.206 24.934 5.36 43.72 28.043 44.064 55.331.003.254.019.505.019.76v29.484c0-.062 0 1.104 0 4.78v28.854h22.677c0-15.447 0-24.18 0-28.854 0-3.676 0-4.841 0-4.78 0-4.735 0-13.641 0-29.484 0-.255-.016-.506-.019-.76z" fill="#9dc6fb"/><path d="m402.673 366.348c29.949-.78 54-26.107 54-57.26v-32.876h-107.999v32.876c0 31.153 24.051 56.48 53.999 57.26z" fill="#365e7d"/><path d="m436.83 276.212v32.876c0 27.626-18.911 50.681-44.078 56.092 34.482 7.413 66.755-19.793 66.755-56.092v-32.876z" fill="#2b4d66"/><path d="m460.115 462.127v-.524c0-8.604-6.975-15.579-15.579-15.579h-83.726c-8.604 0-15.579 6.975-15.579 15.579v.524c0 8.604 6.975 15.579 15.579 15.579h83.726c8.605 0 15.579-6.975 15.579-15.579z" fill="#bed8fb"/><path d="m447.371 446.024h-28.347c8.604 0 15.579 6.975 15.579 15.579v.524c0 8.604-6.975 15.579-15.579 15.579h28.347c8.604 0 15.579-6.975 15.579-15.579v-.524c0-8.604-6.975-15.579-15.579-15.579z" fill="#9dc6fb"/><path d="m383.791 50.754h-31.967c11.211 0 20.299 8.059 20.299 18v60.246h31.967v-60.246c.001-9.941-9.088-18-20.299-18z" fill="#78c2a4"/><path d="m150.236 11.5v67.848c0 9.63 7.361 17.535 16.762 18.412 9.401-.877 16.762-8.782 16.762-18.412v-67.848c0-2.209-1.791-4-4-4h-25.524c-2.209 0-4 1.791-4 4z" fill="#407093"/><path d="m59.528 11.5v67.848c0 9.63 7.361 17.535 16.762 18.412 9.401-.877 16.762-8.782 16.762-18.412v-67.848c0-2.209-1.791-4-4-4h-25.524c-2.209 0-4 1.791-4 4z" fill="#407093"/><path d="m240.945 11.5v67.848c0 9.63 7.361 17.535 16.762 18.412 9.401-.877 16.762-8.782 16.762-18.412v-67.848c0-2.209-1.791-4-4-4h-25.524c-2.209 0-4 1.791-4 4z" fill="#407093"/><path d="m331.654 11.5v67.848c0 9.63 7.361 17.535 16.762 18.412 9.401-.877 16.762-8.782 16.762-18.412v-67.848c0-2.209-1.791-4-4-4h-25.524c-2.209 0-4 1.791-4 4z" fill="#407093"/><g fill="#365e7d"><path d="m183.236 7.5h-19.843c2.209 0 4 1.791 4 4v67.848c0 6.563-3.427 12.313-8.579 15.597 2.869 1.829 6.266 2.903 9.921 2.903 10.217 0 18.5-8.283 18.5-18.5v-67.848c.001-2.209-1.789-4-3.999-4z"/><path d="m92.528 7.5h-19.843c2.209 0 4 1.791 4 4v67.848c0 6.563-3.427 12.313-8.579 15.597 2.869 1.829 6.267 2.903 9.921 2.903 10.217 0 18.5-8.283 18.5-18.5v-67.848c.001-2.209-1.79-4-3.999-4z"/><path d="m273.945 7.5h-19.843c2.209 0 4 1.791 4 4v67.848c0 6.563-3.427 12.313-8.579 15.597 2.869 1.829 6.266 2.903 9.921 2.903 10.217 0 18.5-8.283 18.5-18.5v-67.848c.001-2.209-1.79-4-3.999-4z"/><path d="m364.654 7.5h-19.842c2.209 0 4 1.791 4 4v67.848c0 6.563-3.427 12.313-8.579 15.597 2.869 1.829 6.267 2.903 9.921 2.903 10.217 0 18.5-8.283 18.5-18.5v-67.848c0-2.209-1.791-4-4-4z"/></g></g><g><path d="m495.409 309.088s0-59.097 0-59.1c0-4.142-3.357-7.5-7.5-7.5s-7.5 3.358-7.5 7.5v18.724h-13.401v-55.617c0-33.114-24.25-60.488-55.417-64.32v-19.775-60.246c0-14.061-11.439-25.5-25.5-25.5h-9.938v-31.754c0-6.341-5.159-11.5-11.5-11.5h-29c-6.341 0-11.5 5.159-11.5 11.5v31.754h-38.708v-31.754c0-6.341-5.159-11.5-11.5-11.5h-29c-6.341 0-11.5 5.159-11.5 11.5v31.754h-38.709v-31.754c0-6.341-5.159-11.5-11.5-11.5h-29c-6.341 0-11.5 5.159-11.5 11.5v31.754h-38.709v-31.754c0-6.341-5.159-11.5-11.5-11.5h-29c-6.341 0-11.5 5.159-11.5 11.5v31.754h-5.937c-16.267 0-29.5 13.234-29.5 29.5v56.246 353.5c0 16.266 13.233 29.5 29.5 29.5h336c15.354 0 27.999-11.792 29.371-26.793h35.91c12.105 0 23.079-9.543 23.079-23.603 0-12.726-10.354-23.079-23.079-23.079h-20.459v-39.231c40.041-10.517 68.497-47.47 68.497-90.206zm-15 0c0 34.512-22.019 64.518-53.497 74.595v-14.219c13.472-5.407 24.977-15.523 32.224-28.968 1.965-3.646.603-8.195-3.044-10.161-3.646-1.966-8.195-.602-10.161 3.043-8.5 15.771-24.857 25.932-43.005 25.476-26.381-.659-46.752-23.317-46.752-49.766v-25.376h95.834v19.388c0 4.142 3.357 7.5 7.5 7.5s7.5-3.358 7.5-7.5v-19.388h13.401zm-152.637-25.376h13.401v25.376c0 27.012 16.348 50.841 40.096 60.381v14.214c-31.478-10.076-53.497-40.083-53.497-74.595zm124.217-71.377h-21.365c-4.143 0-7.5 3.358-7.5 7.5s3.357 7.5 7.5 7.5h21.384v15.154h-21.384c-4.143 0-7.5 3.358-7.5 7.5s3.357 7.5 7.5 7.5h21.384v11.223h-95.834v-11.223h21.384c4.143 0 7.5-3.358 7.5-7.5s-3.357-7.5-7.5-7.5h-21.384v-15.154h21.384c4.143 0 7.5-3.358 7.5-7.5s-3.357-7.5-7.5-7.5h-21.365c.394-27.107 21.722-49.037 47.898-49.037s47.504 21.93 47.898 49.037zm-112.836-197.335h22v64.348c0 6.065-4.935 11-11 11s-11-4.935-11-11c0-6.927 0-57.398 0-64.348zm-90.708 0h22v64.348c0 6.065-4.935 11-11 11s-11-4.935-11-11c0-6.927 0-57.398 0-64.348zm-90.709 0h22v64.348c0 6.065-4.935 11-11 11s-11-4.935-11-11c0-6.927 0-57.398 0-64.348zm-90.709 0h22v64.348c0 6.065-4.935 11-11 11s-11-4.935-11-11c0-6.927 0-57.398 0-64.348zm-35.436 57.754c0-7.995 6.505-14.5 14.5-14.5h5.937v21.094c0 16.358 11.207 26 26 26 14.336 0 25.999-11.664 25.999-26v-21.094h38.709v21.094c0 14.336 11.663 26 26 26s26-11.663 26-26v-21.094h38.709v21.094c0 .448.011.893.034 1.336.696 13.708 12.069 24.664 25.966 24.664 14.337 0 26-11.664 26-26v-21.094h38.708v21.094c0 14.336 11.663 26 26 26s26-11.664 26-26v-21.094h9.938c5.79 0 10.5 4.71 10.5 10.5v52.746h-365zm350.5 424.246h-336c-7.995 0-14.5-6.505-14.5-14.5v-346h365v12.255c-31.19 3.831-55.417 31.316-55.417 64.339v55.617h-13.401v-18.724c0-4.142-3.357-7.5-7.5-7.5-2.981 0-5.548 1.743-6.757 4.262h-239.425c-4.143 0-7.5 3.358-7.5 7.5s3.357 7.5 7.5 7.5h238.682v47.338c0 .054.003.108.004.162h-238.686c-4.143 0-7.5 3.358-7.5 7.5s3.357 7.5 7.5 7.5h239.911c5.816 36.098 32.054 65.795 67.268 75.043v39.231h-20.459c-12.897 0-23.766 10.64-23.049 24.789.619 12.177 10.721 21.893 23.049 21.893h35.527c-1.272 6.708-7.177 11.795-14.247 11.795zm65.28-26.793c-88.519 0 2.013 0-86.561 0-10.828 0-10.724-16.682 0-16.682h86.561c10.739-.001 10.81 16.682 0 16.682zm-51.101-31.683c0-6.156 0-57.304 0-65.144 4.754.614 9.867.681 15.017.07.208-.025.417-.044.625-.07v65.144z"/><path d="m74.091 199.25h246.182c4.143 0 7.5-3.358 7.5-7.5s-3.357-7.5-7.5-7.5h-246.182c-4.143 0-7.5 3.358-7.5 7.5s3.357 7.5 7.5 7.5z"/><path d="m74.091 386.75h244.956c4.143 0 7.5-3.358 7.5-7.5s-3.357-7.5-7.5-7.5h-244.956c-4.143 0-7.5 3.358-7.5 7.5s3.357 7.5 7.5 7.5z"/><path d="m320.272 434.25h-246.181c-4.143 0-7.5 3.358-7.5 7.5s3.357 7.5 7.5 7.5h246.182c4.143 0 7.5-3.358 7.5-7.5s-3.358-7.5-7.501-7.5z"/></g></g></svg>