<svg id="Capa_1" enable-background="new 0 0 512 512" height="512" viewBox="0 0 512 512" width="512" xmlns="http://www.w3.org/2000/svg"><g><g><path d="m395.722 484v-413.746c0-11.046-8.954-20-20-20h-322.354c-11.046 0-20 8.954-20 20v413.746c0 11.046 8.954 20 20 20h322.353c11.046 0 20.001-8.954 20.001-20z" fill="#407093"/><path d="m365.721 469v-383.746c0-2.761-2.239-5-5-5h-292.353c-2.761 0-5 2.239-5 5v383.746c0 2.761 2.239 5 5 5h292.353c2.762 0 5-2.239 5-5z" fill="#e7ecf6"/><path d="m378.556 50.254h-30c11.046 0 20 8.954 20 20v413.746c0 11.046-8.954 20-20 20h30c11.046 0 20-8.954 20-20v-413.746c0-11.046-8.954-20-20-20z" fill="#365e7d"/><path d="m363.556 80.254h-30c2.761 0 5 2.239 5 5v383.746c0 2.761-2.239 5-5 5h30c2.761 0 5-2.239 5-5v-383.746c0-2.761-2.239-5-5-5z" fill="#d8e2f1"/><path d="m170.962 68v-39.653c0-11.79 9.558-21.347 21.347-21.347h47.306c11.79 0 21.347 9.557 21.347 21.347v39.653z" fill="#eab14d"/><path d="m239.615 7h-25.512c11.79 0 21.347 9.557 21.347 21.347v39.653h25.512v-39.653c0-11.79-9.557-21.347-21.347-21.347z" fill="#e7a52e"/><path d="m305.069 115.005h-178.214c-4.971 0-9-4.029-9-9v-59.505c0-4.971 4.029-9 9-9h178.215c4.971 0 9 4.029 9 9v59.505c-.001 4.97-4.03 9-9.001 9z" fill="#ecbe6b"/><path d="m305.069 37.5h-25.512c4.971 0 9 4.029 9 9v59.505c0 4.971-4.029 9-9 9h25.512c4.971 0 9-4.029 9-9v-59.505c0-4.971-4.029-9-9-9z" fill="#eab14d"/><path d="m471.498 432.719c-8.495 8.495-22.269 8.495-30.764 0l-118.157-118.157 30.764-30.764 118.157 118.157c8.495 8.495 8.495 22.269 0 30.764z" fill="#9dc6fb"/><path d="m471.498 401.955-118.157-118.157-9.921 9.921 108.235 108.236c8.495 8.495 8.495 22.269 0 30.764-1.646 1.646-3.495 2.965-5.461 3.973 8.179 4.194 18.454 2.876 25.303-3.973 8.496-8.495 8.496-22.269.001-30.764z" fill="#80b4fb"/><circle cx="326.837" cy="288.058" fill="#e28086" r="96.498"/><path d="m374.426 335.647c-26.241 26.241-68.938 26.24-95.179-.001s-26.241-68.937 0-95.178 68.937-26.241 95.178 0c26.241 26.242 26.242 68.939.001 95.179z" fill="#dff6fd"/><path d="m395.071 219.824c-21.37-21.369-50.267-30.607-78.156-27.741 21.293 2.188 41.998 11.426 58.313 27.741 37.685 37.685 37.685 98.784 0 136.469-16.315 16.315-37.02 25.553-58.313 27.741 27.889 2.866 56.786-6.372 78.156-27.741 37.685-37.685 37.685-98.785 0-136.469z" fill="#dd636e"/><path d="m374.425 240.469c-15.646-15.646-37.141-21.957-57.51-18.946 13.794 2.039 27.073 8.351 37.668 18.946 26.241 26.241 26.242 68.938.001 95.179-10.595 10.595-23.873 16.906-37.667 18.946 20.37 3.011 41.865-3.3 57.51-18.946 26.24-26.241 26.239-68.938-.002-95.179z" fill="#c8effe"/></g><g><path d="m380.485 340.951c46.484-46.482 14.239-127.663-52.893-127.663-66.259 0-99.978 80.574-52.892 127.662 29.163 29.163 76.617 29.168 105.785.001zm-52.893-112.663c53.689 0 79.433 64.909 42.287 102.056-23.33 23.33-61.24 23.332-84.572-.001-37.602-37.602-10.738-102.055 42.285-102.055z"/><path d="m109.462 228.29h84.535c4.142 0 7.5-3.357 7.5-7.5s-3.358-7.5-7.5-7.5h-84.535c-4.142 0-7.5 3.357-7.5 7.5s3.358 7.5 7.5 7.5z"/><path d="m109.462 292.04h84.535c4.142 0 7.5-3.357 7.5-7.5s-3.358-7.5-7.5-7.5h-84.535c-4.142 0-7.5 3.357-7.5 7.5s3.358 7.5 7.5 7.5z"/><path d="m109.462 355.79h84.535c4.142 0 7.5-3.357 7.5-7.5s-3.358-7.5-7.5-7.5h-84.535c-4.142 0-7.5 3.357-7.5 7.5s3.358 7.5 7.5 7.5z"/><path d="m109.462 164.54h213c4.142 0 7.5-3.357 7.5-7.5s-3.358-7.5-7.5-7.5h-213c-4.142 0-7.5 3.357-7.5 7.5s3.358 7.5 7.5 7.5z"/><path d="m260.962 404.521h-151.5c-4.142 0-7.5 3.357-7.5 7.5s3.358 7.5 7.5 7.5h151.5c4.142 0 7.5-3.357 7.5-7.5s-3.358-7.5-7.5-7.5z"/><path d="m477.557 396.652-15.556-15.557c-2.928-2.929-7.677-2.93-10.606-.001-2.983 2.982-2.864 7.743 0 10.607l15.556 15.557c5.578 5.576 5.559 14.598 0 20.157-5.568 5.569-14.585 5.573-20.157-.001l-56.435-56.435c7.453-5.65 14.282-12.407 20.156-20.157l16.131 16.13c2.929 2.928 7.678 2.928 10.606 0 2.929-2.93 2.929-7.678 0-10.607l-18.403-18.402c20.766-38.029 15.921-85.23-12.793-118.143v-149.046c0-15.163-12.336-27.5-27.5-27.5h-57.432c-1.703-7.296-8.247-12.754-16.055-12.754h-36.607v-1.652c0-15.907-12.94-28.848-28.847-28.848h-47.306c-15.906 0-28.847 12.941-28.847 28.848v1.652h-36.607c-7.808 0-14.351 5.458-16.055 12.754h-57.432c-15.164 0-27.5 12.337-27.5 27.5v413.746c0 15.163 12.336 27.5 27.5 27.5h55.256c4.142 0 7.5-3.357 7.5-7.5s-3.358-7.5-7.5-7.5h-55.256c-6.893 0-12.5-5.607-12.5-12.5v-413.746c0-6.893 5.607-12.5 12.5-12.5h56.987v15h-41.986c-6.893 0-12.5 5.607-12.5 12.5v383.746c0 6.893 5.607 12.5 12.5 12.5h295.188c6.893 0 12.5-5.607 12.5-12.5v-89.417c.476-.25.949-.51 1.422-.769l13.578 13.578v91.608c0 6.893-5.607 12.5-12.5 12.5h-234.933c-4.142 0-7.5 3.357-7.5 7.5s3.358 7.5 7.5 7.5h234.932c15.164 0 27.5-12.337 27.5-27.5v-76.608l30.13 30.129c11.43 11.432 29.937 11.437 41.371.001 11.432-11.431 11.435-29.937 0-41.37zm-149.779-197.546c80.559.167 117.255 97.355 62.755 151.872 0 0-.001.001-.001.001-.004.004-.009.009-.013.013-5.268 5.268-11.654 10.216-18.442 14.14-55.42 31.98-108.492-11.979-91.221-1.355-77.054-47.396-41.654-164.706 46.922-164.671zm63.278-128.352v134.9c-4.743-3.668-9.76-6.896-15-9.662v-110.238c0-6.893-5.607-12.5-12.5-12.5h-41.987v-15h56.987c6.893 0 12.5 5.607 12.5 12.5zm-265.701-23.754c0-.827.673-1.5 1.5-1.5h44.107c4.142 0 7.5-3.357 7.5-7.5v-9.152c0-7.636 6.212-13.848 13.847-13.848h47.306c7.635 0 13.847 6.212 13.847 13.848v9.152c0 4.143 3.358 7.5 7.5 7.5h44.107c.827 0 1.5.673 1.5 1.5v59.505c0 .827-.673 1.5-1.5 1.5h-178.214c-.827 0-1.5-.673-1.5-1.5 0-10.818 0-46.349 0-59.505zm-54.486 420v-378.746h39.486v18.251c0 9.099 7.403 16.5 16.5 16.5h178.214c9.097 0 16.5-7.4 16.5-16.5v-18.251h39.487v101.288c-10.777-3.65-22.12-5.481-33.464-5.481-57.461 0-103.998 46.512-103.998 103.997s0 0 0 0c0 70.59 69.452 121.54 137.462 98.45v80.492z"/></g></g></svg>