<svg id="Capa_1" enable-background="new 0 0 512 512" height="512" viewBox="0 0 512 512" width="512" xmlns="http://www.w3.org/2000/svg"><g><g><path d="m164.964 446.103v-34.276l-5.464-7.5 5.464-7.5v-34.275l-7.464-10.052 7.464-4.949v-34.276l-4.464-7.5 4.464-7.5v-34.275l-4.464-8.498 4.464-6.502v-34.276l-7.464-10.724 7.464-4.277v-34.275l-4.964-9.948 4.964-5.053v-34.275l-4.964-10.672 4.964-4.328v-34.276l-7.464-7.5 7.464-7.5v-29.426c0-8.268-6.702-14.97-14.97-14.97h-79.934c-8.268 0-14.97 6.702-14.97 14.97v466.063c0 8.268 6.702 14.97 14.97 14.97h79.934c8.268 0 14.97-6.702 14.97-14.97v-27.43l-4.964-10.103z" fill="#ecbe6b"/><path d="m149.994 7.5h-28.214c8.268 0 14.97 6.702 14.97 14.97v466.063c0 8.268-6.702 14.97-14.97 14.97h28.214c8.268 0 14.97-6.702 14.97-14.97v-466.063c0-8.268-6.702-14.97-14.97-14.97z" fill="#eab14d"/><path d="m454.075 284.962v100.288h-112.427v-100.288c0-8.359 5.416-15.441 12.925-17.964h86.577c7.509 2.524 12.925 9.605 12.925 17.964z" fill="#407093"/><path d="m435.114 503.502h-74.504c-10.472 0-18.962-8.49-18.962-18.962v-99.29h112.428v99.29c-.001 10.472-8.49 18.962-18.962 18.962z" fill="#bed8fb"/><path d="m428.564 385.25v-100.288c0-8.359-5.416-15.441-12.925-17.964h28.346c7.509 2.523 12.925 9.604 12.925 17.964v100.288z" fill="#365e7d"/><path d="m437.948 503.502h-28.346c10.472 0 18.962-8.49 18.962-18.962v-99.29h28.346v99.29c0 10.472-8.489 18.962-18.962 18.962z" fill="#9dc6fb"/><path d="m234.417 61.238-27.019 48.656h88.981l-27.02-48.656z" fill="#e7ecf6"/><path d="m251.888 35.933c-2.279.412-4.423 1.809-5.764 4.223l-18.151 32.686h47.829l-18.151-32.686c-1.339-2.414-3.484-3.811-5.763-4.223z" fill="#407093"/><path d="m255.961 72.842h-.001l19.897 35.829h.679v1.223h22.677l-27.019-48.656h-22.677z" fill="#d8e2f1"/><path d="m255.961 72.842h22.677l-18.151-32.686c-3.233-5.822-11.129-5.822-14.362 0l-4.158 7.487z" fill="#365e7d"/><path d="m207.398 109.894h88.981v321.253h-88.981z" fill="#e28086"/><path d="m276.536 109.894v297.106h.087l12.627 8.75 9.963-8.674v-297.182z" fill="#dd636e"/><path d="m296.379 478.552v-62.874h-88.981v62.874c0 13.779 11.17 24.95 24.95 24.95h39.081c13.779 0 24.95-11.17 24.95-24.95z" fill="#407093"/><path d="m288.625 436.375-12.002 9.728h-.087v32.45c0 13.779-11.17 24.95-24.95 24.95h22.677c13.779 0 24.95-11.17 24.95-24.95v-32.529z" fill="#365e7d"/><path d="m207.3 407h89.165v39.103h-89.165z" fill="#bed8fb"/><path d="m276.623 407h22.677v39.103h-22.677z" fill="#9dc6fb"/></g><g><path d="m149.983 0h-80.095c-12.407 0-22.5 10.094-22.5 22.5v305.667c0 4.143 3.358 7.5 7.5 7.5s7.5-3.357 7.5-7.5v-305.667c0-4.136 3.365-7.5 7.5-7.5h80.095c4.136 0 7.5 3.364 7.5 7.5v29.5h-34.047c-4.142 0-7.5 3.357-7.5 7.5s3.358 7.5 7.5 7.5h34.047v34.375h-13.274c-4.142 0-7.5 3.357-7.5 7.5s3.358 7.5 7.5 7.5h13.274v34.375h-13.274c-4.142 0-7.5 3.357-7.5 7.5s3.358 7.5 7.5 7.5h13.274v34.375h-34.047c-4.142 0-7.5 3.357-7.5 7.5s3.358 7.5 7.5 7.5h34.047v34.375h-13.274c-4.142 0-7.5 3.357-7.5 7.5s3.358 7.5 7.5 7.5h13.274v34.375h-13.274c-4.142 0-7.5 3.357-7.5 7.5s3.358 7.5 7.5 7.5h13.274v34.375h-34.047c-4.142 0-7.5 3.357-7.5 7.5s3.358 7.5 7.5 7.5h34.047v34.375h-13.274c-4.142 0-7.5 3.357-7.5 7.5s3.358 7.5 7.5 7.5h13.274v34.375h-13.274c-4.142 0-7.5 3.357-7.5 7.5s3.358 7.5 7.5 7.5h13.274v27.5c0 4.136-3.364 7.5-7.5 7.5h-80.095c-4.135 0-7.5-3.364-7.5-7.5v-126.333c0-4.143-3.358-7.5-7.5-7.5s-7.5 3.357-7.5 7.5v126.333c0 12.406 10.093 22.5 22.5 22.5h80.095c12.407 0 22.5-10.094 22.5-22.5v-467c0-12.406-10.093-22.5-22.5-22.5z"/><path d="m457.112 319.958c4.142 0 7.5-3.357 7.5-7.5v-25.499c0-14.592-11.871-26.463-26.462-26.463h-77.339c-14.591 0-26.462 11.871-26.462 26.463v199.577c0 11.372 7.249 21.448 18.037 25.073.77.259 1.577.391 2.389.391h89.411c.812 0 1.619-.132 2.389-.391 10.788-3.625 18.037-13.701 18.037-25.073v-100.288-38.79c0-4.143-3.358-7.5-7.5-7.5s-7.5 3.357-7.5 7.5v31.29h-100.262v-91.789c0-6.32 5.142-11.463 11.462-11.463h77.339c6.32 0 11.462 5.143 11.462 11.463v25.499c-.001 4.143 3.357 7.5 7.499 7.5zm-7.5 73.79v92.788c0 4.56-2.696 8.64-6.81 10.464h-86.644c-4.114-1.824-6.81-5.904-6.81-10.464v-92.788z"/><path d="m306.067 106.475c-.003-.005-.005-.011-.008-.016-24.801-44.659-16.04-28.883-38.804-69.878-2.863-5.156-8.004-8.235-13.752-8.235s-10.889 3.079-13.752 8.235c-19.85 35.745-13.276 23.907-38.805 69.878-.003.005-.005.011-.008.016-.62 1.121-.936 2.434-.936 3.625v369.399c0 17.921 14.58 32.5 32.5 32.5h42c17.92 0 32.5-14.579 32.5-32.5 0-13.247 0-359.117 0-369.399 0-1.286-.361-2.588-.935-3.625zm-14.065 293.525h-77v-282.399h77zm-77 15h77v24.103h-77zm37.862-371.138c.287-.517.552-.517.639-.517s.352 0 .639.517l12 21.611h-25.278zm-20.33 36.612h41.938l12.288 22.127h-66.513zm59.468 399.026c0 9.649-7.851 17.5-17.5 17.5h-42c-9.649 0-17.5-7.851-17.5-17.5v-25.397h77z"/></g></g></svg>