<svg id="Capa_1" enable-background="new 0 0 512 512" height="512" viewBox="0 0 512 512" width="512" xmlns="http://www.w3.org/2000/svg"><g><g><path d="m349.685 456.915v-389.819c0-10.407-8.436-18.844-18.843-18.844h-303.548c-10.407 0-18.843 8.437-18.843 18.844v389.819c0 10.407 8.437 18.843 18.843 18.843h303.548c10.407 0 18.843-8.436 18.843-18.843z" fill="#e28086"/><path d="m321.42 442.782v-361.553c0-2.602-2.109-4.711-4.711-4.711h-275.282c-2.602 0-4.711 2.109-4.711 4.711v361.554c0 2.602 2.109 4.711 4.711 4.711h275.282c2.602-.001 4.711-2.11 4.711-4.712z" fill="#e7ecf6"/><path d="m333.677 48.252h-28.27c10.407 0 18.843 8.437 18.843 18.844v389.819c0 10.407-8.436 18.843-18.843 18.843h28.27c10.407 0 18.843-8.436 18.843-18.843v-389.819c0-10.407-8.437-18.844-18.843-18.844z" fill="#dd636e"/><path d="m319.544 76.518h-28.27c2.602 0 4.711 2.109 4.711 4.711v361.554c0 2.602-2.109 4.711-4.711 4.711h28.27c2.602 0 4.711-2.109 4.711-4.711v-361.554c0-2.602-2.109-4.711-4.711-4.711z" fill="#d8e2f1"/><path d="m138.088 64.972v-37.36c0-11.108 9.005-20.113 20.113-20.113h44.57c11.108 0 20.113 9.005 20.113 20.113v37.36z" fill="#365e7d"/><path d="m202.771 7.5h-25.512c11.108 0 20.113 9.005 20.113 20.113v37.36h25.512v-37.36c-.001-11.108-9.006-20.113-20.113-20.113z" fill="#2b4d66"/><path d="m409.686 253.351h-173.697c-5.102 0-9.238 4.136-9.238 9.239v160.867h192.174v-160.868c-.001-5.102-4.137-9.238-9.239-9.238z" fill="#bed8fb"/><path d="m264.44 109.259h-167.909c-4.683 0-8.48-3.796-8.48-8.48v-56.063c0-4.683 3.796-8.48 8.48-8.48h167.909c4.683 0 8.48 3.796 8.48 8.48v56.064c-.001 4.682-3.797 8.479-8.48 8.479z" fill="#407093"/><path d="m412.52 253.351h-28.346c5.102 0 9.238 4.136 9.238 9.239v160.867h28.346v-160.868c.001-5.102-4.135-9.238-9.238-9.238z" fill="#9dc6fb"/><path d="m500.715 473.705v-119.018c0-17.008-13.787-30.795-30.795-30.795h-294.165c-17.008 0-30.795 13.787-30.795 30.795v119.019c0 17.008 13.787 30.795 30.795 30.795h294.165c17.007-.001 30.795-13.788 30.795-30.796z" fill="#407093"/><path d="m472.754 323.892h-28.346c17.008 0 30.795 13.787 30.795 30.795v119.019c0 17.008-13.787 30.795-30.795 30.795h28.346c17.008 0 30.795-13.787 30.795-30.795v-119.019c0-17.008-13.787-30.795-30.795-30.795z" fill="#365e7d"/><path d="m458.384 504.5h-268.258v-78.51c0-6.803 5.515-12.318 12.318-12.318h243.622c6.803 0 12.318 5.515 12.318 12.318z" fill="#9dc6fb"/><path d="m218.868 463.44v-8.709c0-6.803 5.515-12.318 12.318-12.318h186.138c6.803 0 12.318 5.515 12.318 12.318v8.709c0 6.803-5.515 12.318-12.318 12.318h-186.138c-6.803 0-12.318-5.515-12.318-12.318z" fill="#407093"/><path d="m264.44 36.236h-25.512c4.683 0 8.48 3.796 8.48 8.48v56.063c0 4.683-3.796 8.479-8.48 8.479h25.512c4.683 0 8.479-3.796 8.479-8.479v-56.063c0-4.684-3.796-8.48-8.479-8.48z" fill="#365e7d"/></g><g><path d="m503.549 431.596c4.143 0 7.5-3.357 7.5-7.5v-69.409c0-21.116-17.179-38.295-38.295-38.295h-43.495v-53.803c0-9.229-7.509-16.738-16.738-16.738h-52.501v-178.755c0-14.526-11.817-26.344-26.343-26.344h-53.776c-1.77-6.896-8.021-12.016-15.462-12.016h-34.057c.001-17.569-13.24-28.736-27.611-28.736h-44.571c-14.277 0-27.612 11.056-27.612 28.736h-34.057c-7.441 0-13.692 5.119-15.462 12.016h-53.774c-14.526 0-26.344 11.817-26.344 26.344v67.638c0 4.143 3.358 7.5 7.5 7.5s7.5-3.357 7.5-7.5v-67.638c0-6.255 5.089-11.344 11.344-11.344h53.257v13.266h-39.125c-6.733 0-12.211 5.478-12.211 12.211v361.554c0 6.733 5.478 12.211 12.211 12.211h96.033v13.265h-110.165c-6.255 0-11.344-5.088-11.344-11.343v-287.183c0-4.143-3.358-7.5-7.5-7.5s-7.5 3.357-7.5 7.5v287.182c0 14.525 11.818 26.343 26.344 26.343h111.372c4.255 16.509 19.27 28.742 37.089 28.742h296.999c21.116 0 38.295-17.179 38.295-38.295v-14.609c0-4.143-3.357-7.5-7.5-7.5s-7.5 3.357-7.5 7.5v14.609c0 12.845-10.45 23.295-23.295 23.295h-6.871v-71.011c0-10.928-8.89-19.817-19.817-19.817h-243.623c-10.928 0-19.818 8.89-19.818 19.817v71.011h-6.871c-12.312 0-22.417-9.603-23.235-21.71-.001-.009 0-.018 0-.027-.017-.259-.028-.488-.038-.71-.01-.282-.022-.563-.022-.847v-26.212-92.807c0-12.849 10.461-23.295 23.295-23.295h296.999c12.845 0 23.295 10.45 23.295 23.295v69.409c0 4.142 3.357 7.5 7.5 7.5zm-305.923-5.607c0-2.656 2.162-4.817 4.818-4.817h243.622c2.656 0 4.817 2.161 4.817 4.817v71.011h-253.257zm147.394-358.893v178.755h-13.266v-164.622c0-6.733-5.478-12.211-12.21-12.211h-39.125v-13.266h53.258c6.255 0 11.343 5.089 11.343 11.344zm-249.468-22.38c0-.54.439-.979.979-.979h41.557c4.142 0 7.5-3.357 7.5-7.5v-8.624c0-6.954 5.658-12.612 12.612-12.612h44.57c6.955 0 12.612 5.658 12.612 12.612v8.624c0 4.143 3.358 7.5 7.5 7.5h41.557c.54 0 .979.439.979.979v56.063c0 .54-.439.979-.979.979h-167.908c-.54 0-.979-.439-.979-.979 0-23.306 0-27.948 0-56.063zm80.203 271.676c-20.945 0-38.295 16.991-38.295 38.295v85.307h-93.243v-355.976h36.335v16.762c0 8.812 7.168 15.979 15.979 15.979h167.909c8.812 0 15.979-7.168 15.979-15.979v-16.762h36.335v161.833h-80.765c-9.229 0-16.738 7.509-16.738 16.738v9.614h-131.199c-4.142 0-7.5 3.357-7.5 7.5s3.358 7.5 7.5 7.5h131.199v29.188c-6.195.001-37.31.001-43.496.001zm58.496 0v-53.803c0-.958.78-1.738 1.738-1.738h176.532c.959 0 1.738.78 1.738 1.738v53.803z"/><path d="m417.324 434.913h-186.138c-10.928 0-19.818 8.891-19.818 19.818v8.709c0 10.928 8.89 19.817 19.818 19.817h186.139c10.928 0 19.817-8.89 19.817-19.817v-8.709c0-10.927-8.89-19.818-19.818-19.818zm4.818 28.527c0 2.656-2.161 4.817-4.817 4.817h-186.139c-2.657 0-4.818-2.161-4.818-4.817v-8.709c0-2.657 2.161-4.818 4.818-4.818h186.139c2.656 0 4.817 2.161 4.817 4.818z"/><path d="m458.383 345.936h-15.396c-4.143 0-7.5 3.357-7.5 7.5s3.357 7.5 7.5 7.5h15.396c4.143 0 7.5-3.357 7.5-7.5s-3.357-7.5-7.5-7.5z"/><path d="m458.383 375.033h-15.396c-4.143 0-7.5 3.357-7.5 7.5s3.357 7.5 7.5 7.5h15.396c4.143 0 7.5-3.357 7.5-7.5s-3.357-7.5-7.5-7.5z"/><path d="m88.052 178.542h184.867c4.143 0 7.5-3.357 7.5-7.5s-3.357-7.5-7.5-7.5h-184.867c-4.142 0-7.5 3.357-7.5 7.5s3.358 7.5 7.5 7.5z"/><path d="m88.052 232.873h184.867c4.143 0 7.5-3.357 7.5-7.5s-3.357-7.5-7.5-7.5h-184.867c-4.142 0-7.5 3.357-7.5 7.5s3.358 7.5 7.5 7.5z"/></g></g></svg>