<svg id="Capa_1" enable-background="new 0 0 512 512" height="512" viewBox="0 0 512 512" width="512" xmlns="http://www.w3.org/2000/svg"><g><g><path d="m435.759 484.5v-413.746c0-11.046-8.954-20-20-20h-322.353c-11.046 0-20 8.954-20 20v413.746c0 11.046 8.954 20 20 20h322.353c11.046 0 20-8.954 20-20z" fill="#407093"/><path d="m405.759 469.5v-383.746c0-2.761-2.239-5-5-5h-292.353c-2.761 0-5 2.239-5 5v383.746c0 2.761 2.239 5 5 5h292.353c2.762 0 5-2.239 5-5z" fill="#e7ecf6"/><path d="m373.594 474.5h30c2.761 0 5-2.239 5-5v-383.746c0-2.761-2.239-5-5-5h-30c2.761 0 5 2.239 5 5v383.746c0 2.761-2.239 5-5 5z" fill="#d8e2f1"/><path d="m276.818 7.5h-44.471c-11.79 0-21.347 9.557-21.347 21.347v39.653h87.165v-39.653c0-11.79-9.557-21.347-21.347-21.347z" fill="#eab14d"/><path d="m279.653 7.5h-25.512c11.79 0 21.347 9.557 21.347 21.347v39.653h25.512v-39.653c0-11.79-9.557-21.347-21.347-21.347z" fill="#e7a52e"/><path d="m351.273 106.505v-59.505c0-4.971-4.029-9-9-9h-175.38c-4.971 0-9 4.029-9 9v59.505c0 4.971 4.029 9 9 9h175.38c4.97 0 9-4.03 9-9z" fill="#ecbe6b"/><path d="m243.5 169.254h25v83.333h-25z" fill="#fdd1d5"/><circle cx="256" cy="311.921" fill="#e28086" r="102"/><circle cx="256" cy="311.921" fill="#e7ecf6" r="74"/><path d="m345.107 38h-25.512c4.97 0 9 4.029 9 9v59.505c0 4.971-4.03 9-9 9h25.512c4.971 0 9-4.029 9-9v-59.505c0-4.971-4.029-9-9-9z" fill="#eab14d"/><path d="m256 209.921c-3.833 0-7.615.219-11.339.631 50.996 5.641 90.661 48.87 90.661 101.369 0 52.5-39.665 95.729-90.661 101.37 3.724.412 7.505.63 11.339.63 56.333 0 102-45.667 102-102s-45.667-102-102-102z" fill="#dd636e"/><path d="m256 237.921c-3.855 0-7.641.298-11.339.869 35.441 5.473 62.661 36.182 62.661 73.131s-27.221 67.658-62.661 73.131c3.698.571 7.484.869 11.339.869 40.804 0 74-33.196 74-74s-33.196-74-74-74z" fill="#d8e2f1"/><path d="m243.5 169.254h25v29.827h-25z" fill="#f6b2bb"/><path d="m214.333 169.908c0-8.284 6.716-15 15-15h53.333c8.284 0 15 6.716 15 15 0 8.284-6.716 15-15 15h-53.333c-8.284 0-15-6.716-15-15z" fill="#e28086"/><path d="m282.667 154.908h-22.677c8.284 0 15 6.716 15 15s-6.716 15-15 15h22.677c8.284 0 15-6.716 15-15s-6.716-15-15-15z" fill="#dd636e"/><path d="m418.594 50.754h-30c11.046 0 20 8.954 20 20v413.746c0 11.046-8.954 20-20 20h30c11.046 0 20-8.954 20-20v-413.746c0-11.046-8.954-20-20-20z" fill="#365e7d"/></g><g><path d="m276 204.258v-11.849h6.667c12.406 0 22.5-10.094 22.5-22.5s-10.094-22.5-22.5-22.5h-53.334c-12.406 0-22.5 10.094-22.5 22.5s10.094 22.5 22.5 22.5h6.667v11.849c-50.861 9.426-89.5 54.114-89.5 107.663 0 60.379 49.121 109.5 109.5 109.5 37.969 0 72.685-19.233 92.863-51.45 2.198-3.511 1.135-8.139-2.375-10.338-3.512-2.198-8.138-1.136-10.338 2.375-17.418 27.811-47.381 44.413-80.15 44.413-52.107 0-94.5-42.393-94.5-94.5 0-51.077 40.738-92.808 91.404-94.444.084-.003.168-.007.253-.01 53.273-1.582 97.343 41.296 97.343 94.453 0 6.821-.729 13.627-2.169 20.228-.882 4.047 1.684 8.043 5.73 8.926 4.046.882 8.043-1.684 8.926-5.73 1.667-7.648 2.513-15.528 2.513-23.423 0-53.549-38.639-98.238-89.5-107.663zm-54.167-34.35c0-4.136 3.364-7.5 7.5-7.5h53.334c4.136 0 7.5 3.364 7.5 7.5s-3.364 7.5-7.5 7.5c-32.899 0-20.908 0-53.334 0-4.136 0-7.5-3.364-7.5-7.5zm29.167 32.627v-10.127h10v10.127c-3.382-.154-6.76-.147-10 0z"/><path d="m256 230.421c-44.939 0-81.5 36.561-81.5 81.5s36.561 81.5 81.5 81.5 81.5-36.561 81.5-81.5-36.561-81.5-81.5-81.5zm0 148c-36.668 0-66.5-29.832-66.5-66.5s29.832-66.5 66.5-66.5 66.5 29.832 66.5 66.5-29.832 66.5-66.5 66.5z"/><path d="m256 264.088c-4.143 0-7.5 3.357-7.5 7.5v40.333c0 4.143 3.357 7.5 7.5 7.5s7.5-3.357 7.5-7.5v-40.333c0-4.143-3.357-7.5-7.5-7.5z"/><path d="m418.594 43.254h-57.432c-1.703-7.296-8.247-12.754-16.055-12.754h-36.607v-1.652c0-15.907-12.94-28.848-28.847-28.848h-47.307c-15.906 0-28.846 12.941-28.846 28.848v1.652h-36.607c-7.807 0-14.351 5.458-16.055 12.754h-57.432c-15.163 0-27.5 12.337-27.5 27.5v71.597c0 4.143 3.357 7.5 7.5 7.5s7.5-3.357 7.5-7.5v-71.597c0-6.893 5.607-12.5 12.5-12.5h56.986v15h-41.986c-6.893 0-12.5 5.607-12.5 12.5v383.746c0 6.893 5.607 12.5 12.5 12.5h295.188c6.893 0 12.5-5.607 12.5-12.5v-383.746c0-6.893-5.607-12.5-12.5-12.5h-41.986v-15h56.986c6.893 0 12.5 5.607 12.5 12.5v413.746c0 6.893-5.607 12.5-12.5 12.5h-325.188c-6.893 0-12.5-5.607-12.5-12.5v-307.149c0-4.143-3.357-7.5-7.5-7.5s-7.5 3.357-7.5 7.5v307.149c0 15.163 12.337 27.5 27.5 27.5h325.188c15.163 0 27.5-12.337 27.5-27.5v-413.746c0-15.163-12.337-27.5-27.5-27.5zm-253.201 3.746c0-.827.673-1.5 1.5-1.5h44.107c4.143 0 7.5-3.357 7.5-7.5v-9.152c0-7.636 6.212-13.848 13.847-13.848h47.307c7.635 0 13.847 6.212 13.847 13.848v9.152c0 4.143 3.357 7.5 7.5 7.5h44.107c.827 0 1.5.673 1.5 1.5v59.505c0 .827-.673 1.5-1.5 1.5h-178.215c-.827 0-1.5-.673-1.5-1.5 0-24.736 0-29.663 0-59.505zm235.701 41.254v378.746h-290.188v-378.746h39.486v18.251c0 9.1 7.403 16.5 16.5 16.5h178.215c9.096 0 16.5-7.4 16.5-16.5v-18.251z"/></g></g></svg>