<svg id="Capa_1" enable-background="new 0 0 512 512" height="512" viewBox="0 0 512 512" width="512" xmlns="http://www.w3.org/2000/svg"><g><g><path d="m387.604 456.915v-389.819c0-10.407-8.437-18.844-18.843-18.844h-303.548c-10.407 0-18.843 8.437-18.843 18.844v389.819c0 10.407 8.437 18.843 18.843 18.843h303.547c10.407 0 18.844-8.436 18.844-18.843z" fill="#e28086"/><path d="m74.635 442.782v-361.554c0-2.602 2.109-4.711 4.711-4.711h278.117c2.602 0 4.711 2.109 4.711 4.711v361.554c0 2.602-2.109 4.711-4.711 4.711h-278.117c-2.602 0-4.711-2.109-4.711-4.711z" fill="#e7ecf6"/><path d="m237.854 7.5h-41.736c-11.108 0-20.113 9.005-20.113 20.113v37.36h81.961v-37.36c.001-11.108-9.004-20.113-20.112-20.113z" fill="#365e7d"/><path d="m240.689 7.5h-28.271c11.108 0 20.113 9.005 20.113 20.113v37.36h28.271v-37.36c0-11.108-9.005-20.113-20.113-20.113z" fill="#2b4d66"/><path d="m308.003 100.779v-56.063c0-4.683-3.797-8.48-8.48-8.48h-165.073c-4.683 0-8.479 3.796-8.479 8.48v56.063c0 4.683 3.796 8.479 8.479 8.479h165.074c4.682.001 8.479-3.796 8.479-8.479z" fill="#407093"/><path d="m371.595 48.252h-28.271c10.407 0 18.843 8.437 18.843 18.844v389.819c0 10.407-8.437 18.843-18.843 18.843h28.271c10.407 0 18.844-8.436 18.844-18.843v-389.819c-.001-10.407-8.437-18.844-18.844-18.844z" fill="#dd636e"/><path d="m357.462 76.518h-28.271c2.602 0 4.711 2.109 4.711 4.711v361.554c0 2.602-2.109 4.711-4.711 4.711h28.271c2.602 0 4.711-2.109 4.711-4.711v-361.554c0-2.602-2.109-4.711-4.711-4.711z" fill="#d8e2f1"/><path d="m302.358 36.236h-28.271c4.683 0 8.479 3.796 8.479 8.48v56.063c0 4.683-3.796 8.479-8.479 8.479h28.271c4.683 0 8.479-3.796 8.479-8.479v-56.063c.001-4.684-3.796-8.48-8.479-8.48z" fill="#365e7d"/><ellipse cx="360.756" cy="401.083" fill="#ecbe6b" rx="101.999" ry="103.399"/><circle cx="308.49" cy="401.083" fill="#407093" r="23.151"/><circle cx="404.391" cy="358.07" fill="#407093" r="17.683"/><circle cx="404.391" cy="444.096" fill="#407093" r="17.683"/><path d="m362.173 297.667c-4.319 0-8.575.269-12.756.783 51.097 6.286 90.661 49.837 90.661 102.633s-39.564 96.347-90.661 102.633c4.18.514 8.437.783 12.756.783 57.115 0 103.417-46.301 103.417-103.417s-46.301-103.415-103.417-103.415z" fill="#eab14d"/><g fill="#365e7d"><path d="m308.49 377.932c-2.472 0-4.853.392-7.087 1.109 9.319 2.994 16.064 11.728 16.064 22.042s-6.746 19.048-16.064 22.042c2.234.718 4.614 1.109 7.087 1.109 12.786 0 23.151-10.365 23.151-23.151s-10.365-23.151-23.151-23.151z"/><path d="m404.391 426.413c-2.522 0-4.916.536-7.086 1.488 6.236 2.733 10.596 8.951 10.596 16.195s-4.361 13.462-10.596 16.195c2.171.951 4.565 1.488 7.086 1.488 9.766 0 17.683-7.917 17.683-17.683s-7.917-17.683-17.683-17.683z"/><path d="m404.391 340.387c-2.522 0-4.916.536-7.086 1.488 6.236 2.733 10.596 8.951 10.596 16.195s-4.361 13.462-10.596 16.195c11.669 5.114 24.77-3.457 24.77-16.195-.001-9.766-7.918-17.683-17.684-17.683z"/></g></g><g><path d="m125.97 178.542h184.868c4.143 0 7.5-3.357 7.5-7.5s-3.357-7.5-7.5-7.5h-184.868c-4.143 0-7.5 3.357-7.5 7.5s3.357 7.5 7.5 7.5z"/><path d="m125.97 232.873h184.868c4.143 0 7.5-3.357 7.5-7.5s-3.357-7.5-7.5-7.5h-184.868c-4.143 0-7.5 3.357-7.5 7.5s3.357 7.5 7.5 7.5z"/><path d="m318.338 279.703c0-4.143-3.357-7.5-7.5-7.5h-184.868c-4.143 0-7.5 3.357-7.5 7.5s3.357 7.5 7.5 7.5h184.868c4.143 0 7.5-3.357 7.5-7.5z"/><path d="m397.939 296.085v-228.989c0-14.526-11.817-26.344-26.344-26.344h-53.776c-1.77-6.896-8.02-12.016-15.461-12.016h-34.057v-1.124c.001-15.225-12.387-27.612-27.612-27.612h-44.57c-15.226 0-27.612 12.387-27.612 27.612v1.124h-34.057c-7.441 0-13.692 5.119-15.463 12.016h-53.774c-14.729 0-26.344 11.938-26.344 26.344v59.029c0 4.143 3.357 7.5 7.5 7.5s7.5-3.357 7.5-7.5v-59.029c0-1.211.188-2.399.559-3.532.001-.001.001-.003.002-.004 1.529-4.67 5.862-7.808 10.783-7.808h53.257v13.266h-39.124c-6.733 0-12.211 5.478-12.211 12.211v361.554c0 6.733 5.478 12.211 12.211 12.211h185.84c2.567 4.599 5.455 9.037 8.69 13.265h-208.663c-6.255 0-11.344-5.088-11.344-11.343v-295.79c0-4.143-3.357-7.5-7.5-7.5s-7.5 3.357-7.5 7.5v295.79c0 14.525 11.817 26.343 26.344 26.343h222.54c19.694 17.851 45.809 28.741 74.42 28.741 33.778-.001 65.303-15.116 86.49-41.471 2.595-3.229 2.082-7.949-1.146-10.545-3.229-2.595-7.948-2.082-10.545 1.146-18.324 22.795-45.588 35.868-74.799 35.869-53.874 0-97.713-44.711-95.851-99.272 1.191-34.138 20.333-64.201 49.009-80.318 20.54-11.544 44.917-15.25 68.664-9.737 55.14 12.878 87.707 71.16 68.69 125.24-1.374 3.908.68 8.189 4.587 9.563 3.909 1.373 8.189-.681 9.563-4.587 20.503-58.304-10.794-121.958-68.896-141.803zm-15-228.989v225.014c-4.139-.784-8.813-1.391-13.266-1.689v-209.192c0-6.733-5.478-12.211-12.211-12.211h-39.125v-13.266h53.258c6.255 0 11.344 5.089 11.344 11.344zm-249.469-22.38c0-.54.439-.979.98-.979h41.556c4.143 0 7.5-3.357 7.5-7.5v-8.624c0-6.954 5.658-12.612 12.612-12.612h44.57c6.955 0 12.613 5.658 12.613 12.612v8.624c0 4.143 3.357 7.5 7.5 7.5h41.557c.539 0 .979.439.979.979v56.063c0 .54-.439.979-.979.979h-167.908c-.541 0-.98-.439-.98-.979 0-6.912 0-49.239 0-56.063zm-51.335 395.277v-355.975h36.335v16.762c0 8.812 7.169 15.979 15.98 15.979h167.908c8.811 0 15.979-7.168 15.979-15.979v-16.762h36.336v206.399c-19.211 1.29-38.494 7.606-55.521 19.383-29.791 20.613-47.896 54.476-47.896 91.283 0 12.913 2.266 26.285 6.982 38.91z"/><path d="m338.68 395.763 46.861-21.018c4.617 5.214 11.354 8.51 18.85 8.51 13.887 0 25.184-11.297 25.184-25.184 0-13.886-11.297-25.183-25.184-25.183-13.886 0-25.183 11.297-25.183 25.183 0 1.013.067 2.011.184 2.993l-46.875 21.024c-5.619-7.092-14.298-11.654-24.028-11.654-16.901 0-30.651 13.75-30.651 30.65 0 16.901 13.75 30.651 30.651 30.651 9.73 0 18.41-4.563 24.028-11.655l46.875 21.024c-1.799 15.109 10.052 28.176 24.999 28.176 13.887 0 25.184-11.297 25.184-25.183 0-13.887-11.297-25.184-25.184-25.184-7.496 0-14.232 3.296-18.85 8.51l-46.861-21.019c.581-3.305.63-7.043 0-10.641zm65.711-47.875c5.615 0 10.184 4.568 10.184 10.183s-4.568 10.184-10.184 10.184c-4.127 0-7.681-2.473-9.278-6.01-.001-.003-.002-.007-.004-.01-.005-.012-.012-.022-.017-.033-.563-1.264-.883-2.659-.883-4.13-.001-5.616 4.568-10.184 10.182-10.184zm0 86.025c5.615 0 10.184 4.568 10.184 10.184 0 5.614-4.568 10.183-10.184 10.183-5.614 0-10.183-4.568-10.183-10.183 0-5.502 4.487-10.184 10.183-10.184zm-95.902-17.179c-8.63 0-15.651-7.021-15.651-15.651s7.021-15.65 15.651-15.65c8.089 0 14.752 6.182 15.567 14.028.949 9.22-6.307 17.273-15.567 17.273z"/></g></g></svg>