<svg id="Capa_1" enable-background="new 0 0 512 512" height="512" viewBox="0 0 512 512" width="512" xmlns="http://www.w3.org/2000/svg"><g><g><path d="m256.989 7.5h-44.471c-11.79 0-21.347 9.558-21.347 21.347v39.653h87.165v-39.653c0-11.789-9.558-21.347-21.347-21.347z" fill="#eab14d"/><path d="m415.93 484.5v-413.746c0-11.046-8.954-20-20-20h-322.354c-11.046 0-20 8.954-20 20v413.746c0 11.046 8.954 20 20 20h322.354c11.045 0 20-8.954 20-20z" fill="#407093"/><path d="m385.93 469.5v-383.746c0-2.761-2.239-5-5-5h-292.353c-2.761 0-5 2.239-5 5v383.746c0 2.761 2.239 5 5 5h292.353c2.761 0 5-2.239 5-5z" fill="#e7ecf6"/><path d="m259.823 7.5h-27.166c11.79 0 21.347 9.558 21.347 21.347v39.653h27.166v-39.653c0-11.789-9.557-21.347-21.347-21.347z" fill="#e7a52e"/><path d="m398.764 50.754h-30c11.046 0 20 8.954 20 20v413.746c0 11.046-8.954 20-20 20h30c11.046 0 20-8.954 20-20v-413.746c0-11.046-8.954-20-20-20z" fill="#365e7d"/><path d="m388.764 469.5v-383.746c0-2.761-2.239-5-5-5h-27.166c2.761 0 5 2.239 5 5v383.746c0 2.761-2.239 5-5 5h27.166c2.762 0 5-2.239 5-5z" fill="#d8e2f1"/><path d="m331.443 106.505v-59.505c0-4.971-4.029-9-9-9h-175.38c-4.971 0-9 4.029-9 9v59.505c0 4.97 4.029 9 9 9h175.38c4.971 0 9-4.03 9-9z" fill="#ecbe6b"/><path d="m325.278 38h-27.166c4.971 0 9 4.029 9 9v59.505c0 4.97-4.029 9-9 9h27.166c4.971 0 9-4.03 9-9v-59.505c0-4.971-4.03-9-9-9z" fill="#eab14d"/><path d="m451.348 266.433h-20.604c-2.078-10-5.837-19.384-10.973-27.841l14.174-14.174c2.763-2.763 2.763-7.243 0-10.006l-18.137-18.137c-2.763-2.763-7.243-2.763-10.006 0l-13.774 13.774c-8.52-5.515-18.045-9.61-28.241-11.948v-19.229c0-3.908-3.168-7.076-7.076-7.076h-25.649c-3.908 0-7.076 3.168-7.076 7.076v19.23c-10.196 2.337-19.721 6.432-28.241 11.947l-13.774-13.774c-2.763-2.763-7.243-2.763-10.006 0l-18.137 18.137c-2.763 2.763-2.763 7.243 0 10.006l14.174 14.174c-5.135 8.457-8.895 17.841-10.973 27.841h-20.604c-3.908 0-7.076 3.168-7.076 7.075v25.649c0 3.908 3.168 7.076 7.076 7.076h21.412c2.392 9.534 6.325 18.455 11.522 26.483l-15.531 15.531c-2.763 2.763-2.763 7.243 0 10.006l18.137 18.136c2.763 2.763 7.243 2.763 10.006 0l15.931-15.931c7.959 4.834 16.74 8.449 26.083 10.59v22.744c0 3.908 3.168 7.076 7.076 7.076h25.649c3.908 0 7.076-3.168 7.076-7.076v-22.742c9.343-2.141 18.124-5.756 26.083-10.59l15.931 15.931c2.763 2.763 7.243 2.763 10.006 0l18.137-18.136c2.763-2.763 2.763-7.243 0-10.006l-15.531-15.531c5.197-8.029 9.13-16.95 11.522-26.483h21.412c3.908 0 7.076-3.168 7.076-7.076v-25.649c.001-3.909-3.167-7.077-7.074-7.077z" fill="#e28086"/><circle cx="343.887" cy="284.54" fill="#dd636e" r="35.739"/><g><path d="m451.348 266.433h-20.604c-2.078-10-5.837-19.384-10.973-27.841l14.174-14.174c2.763-2.763 2.763-7.243 0-10.006l-18.137-18.137c-2.763-2.763-7.243-2.763-10.006 0l-7.753 7.753 10.384 10.384c2.763 2.763 2.763 7.243 0 10.006l-14.174 14.174c5.135 8.457 8.895 17.841 10.973 27.841h20.604c3.908 0 7.076 3.167 7.076 7.075v25.649c0 3.908-3.168 7.076-7.076 7.076h-21.412c-2.392 9.534-6.325 18.455-11.522 26.483l15.531 15.531c2.763 2.763 2.763 7.243 0 10.006l-10.384 10.384 7.753 7.753c2.763 2.763 7.243 2.763 10.006 0l18.137-18.136c2.763-2.763 2.763-7.243 0-10.006l-15.531-15.531c5.197-8.028 9.13-16.95 11.522-26.483h21.412c3.908 0 7.076-3.168 7.076-7.076v-25.649c-.001-3.908-3.169-7.076-7.076-7.076z" fill="#dd636e"/></g></g><g><path d="m116.504 228.29h85.333c4.142 0 7.5-3.357 7.5-7.5s-3.358-7.5-7.5-7.5h-85.333c-4.142 0-7.5 3.357-7.5 7.5s3.358 7.5 7.5 7.5z"/><path d="m116.504 292.04h85.333c4.142 0 7.5-3.357 7.5-7.5s-3.358-7.5-7.5-7.5h-85.333c-4.142 0-7.5 3.357-7.5 7.5s3.358 7.5 7.5 7.5z"/><path d="m116.504 355.79h85.333c4.142 0 7.5-3.357 7.5-7.5s-3.358-7.5-7.5-7.5h-85.333c-4.142 0-7.5 3.357-7.5 7.5s3.358 7.5 7.5 7.5z"/><path d="m294.682 149.54h-178.178c-4.142 0-7.5 3.357-7.5 7.5s3.358 7.5 7.5 7.5h178.178c4.142 0 7.5-3.357 7.5-7.5s-3.358-7.5-7.5-7.5z"/><path d="m109.004 412.021c0 4.143 3.358 7.5 7.5 7.5h178.178c4.142 0 7.5-3.357 7.5-7.5s-3.358-7.5-7.5-7.5h-178.178c-4.142 0-7.5 3.357-7.5 7.5z"/><path d="m343.887 241.301c-23.842 0-43.239 19.397-43.239 43.239s19.397 43.239 43.239 43.239 43.239-19.397 43.239-43.239-19.397-43.239-43.239-43.239zm0 71.478c-15.571 0-28.239-12.668-28.239-28.239s12.668-28.239 28.239-28.239 28.239 12.668 28.239 28.239-12.668 28.239-28.239 28.239z"/><path d="m451.348 258.934h-14.703c-1.822-6.613-4.345-12.993-7.541-19.068l10.144-10.143c2.753-2.753 4.269-6.414 4.269-10.308 0-3.893-1.516-7.552-4.269-10.307l-12.984-12.983v-125.371c0-15.163-12.336-27.5-27.5-27.5h-57.432c-1.703-7.296-8.247-12.754-16.055-12.754h-36.607c0-19.096-13.952-30.5-28.847-30.5h-47.306c-14.794 0-28.847 11.282-28.847 30.5h-36.607c-7.808 0-14.351 5.458-16.055 12.754h-57.431c-15.164 0-27.5 12.337-27.5 27.5v413.746c0 15.163 12.336 27.5 27.5 27.5h156.419c4.142 0 7.5-3.357 7.5-7.5s-3.358-7.5-7.5-7.5h-156.419c-6.893 0-12.5-5.607-12.5-12.5v-413.746c0-6.893 5.607-12.5 12.5-12.5h56.986v15h-41.986c-6.893 0-12.5 5.607-12.5 12.5v383.746c0 6.893 5.607 12.5 12.5 12.5h295.188c6.893 0 12.5-5.607 12.5-12.5v-92.04c4.027 4.027 7.611 8.747 15 8.496v98.544c0 6.893-5.607 12.5-12.5 12.5h-133.769c-4.142 0-7.5 3.357-7.5 7.5s3.358 7.5 7.5 7.5h133.768c15.164 0 27.5-12.337 27.5-27.5v-107.958c14.34-14.339 14.119-13.887 15.398-16.171 2.023-3.614.734-8.185-2.88-10.208-3.597-2.015-8.138-.748-10.177 2.825-10.18 10.179-16.734 16.732-17.801 17.799l-15.631-15.631c-2.5-2.501-6.33-2.844-9.196-1.107-7.233 4.392-15.33 7.72-23.866 9.69-3.41.782-5.825 3.816-5.825 7.311v22.319h-24.8v-22.319c0-3.497-2.417-6.529-5.825-7.311-8.426-1.931-16.456-5.19-23.866-9.69-2.954-1.794-6.751-1.336-9.196 1.107l-15.631 15.631-17.537-17.536 15.231-15.23c2.501-2.502 2.915-6.41.993-9.379-4.837-7.473-8.383-15.625-10.543-24.233-.836-3.336-3.835-5.675-7.274-5.675h-20.988v-24.8h20.18c3.554 0 6.62-2.494 7.343-5.974 1.874-9.02 5.252-17.59 10.04-25.475 1.794-2.954 1.337-6.752-1.107-9.196l-13.874-13.874 17.536-17.536 13.474 13.473c2.502 2.502 6.411 2.914 9.378.992 7.953-5.147 16.647-8.825 25.84-10.932 3.409-.781 5.825-3.813 5.825-7.311v-.001c0-6.238 0-11.476 0-18.805h24.8v18.805c0 3.497 2.416 6.529 5.824 7.311.015.003.029.008.044.011 8.706 2 17.658 5.653 25.797 10.922 2.968 1.924 6.878 1.509 9.378-.992l13.474-13.474s17.425 17.424 17.537 17.536l-13.875 13.874c-2.444 2.444-2.901 6.242-1.107 9.197 4.788 7.883 8.166 16.453 10.04 25.474.723 3.479 3.789 5.974 7.343 5.974h20.18v24.8h-20.988c-3.439 0-6.438 2.339-7.274 5.675-1.868 7.445-4.791 14.585-8.686 21.221-2.097 3.572-.901 8.168 2.671 10.265 3.573 2.097 8.168.9 10.265-2.671 3.62-6.166 6.531-12.7 8.688-19.489h15.749c8.037 0 14.576-6.538 14.576-14.575v-25.649c.002-8.038-6.536-14.576-14.573-14.576zm-305.785-211.934c0-.827.673-1.5 1.5-1.5h44.107c4.142 0 7.5-3.357 7.5-7.5v-9.152c0-7.636 6.212-13.848 13.847-13.848h47.306c7.635 0 13.847 6.212 13.847 13.848v9.152c0 4.143 3.358 7.5 7.5 7.5h44.107c.827 0 1.5.673 1.5 1.5v59.505c0 .827-.673 1.5-1.5 1.5h-178.214c-.827 0-1.5-.673-1.5-1.5 0-10.818 0-46.349 0-59.505zm184.011 117.372c-7.341.748-13.088 6.965-13.088 14.5v.001 13.446c-6.817 2.021-13.371 4.79-19.586 8.277l-9.625-9.625c-5.702-5.701-14.928-5.684-20.613 0-1.506 1.506-14.703 14.703-18.138 18.138-5.711 5.715-5.672 14.939.001 20.613l10.143 10.143c-3.195 6.076-5.718 12.456-7.54 19.068h-14.703c-8.037 0-14.576 6.538-14.576 14.575v25.649c0 8.037 6.539 14.575 14.576 14.575h15.748c1.908 6.01 4.462 11.994 7.734 17.828l-11.382 11.382-.001.001c-.077.077-.143.162-.218.24-5.525 5.77-5.36 14.795.218 20.374l18.136 18.135c5.682 5.683 14.905 5.71 20.614.001l11.901-11.9c5.534 2.91 11.324 5.263 17.311 7.038 0 18.436-.029 17.426.075 18.45.748 7.341 6.966 13.088 14.5 13.088h25.649c7.535 0 13.753-5.747 14.5-13.088.104-1.02.075.014.075-18.45 2.878-.853 6.701-2.198 9.977-3.582v93.751h-290.185v-378.746h39.486v18.251c0 7.961 5.667 14.623 13.179 16.164 2.497.512 182.162.553 184.857 0 7.512-1.541 13.179-8.203 13.179-16.164v-18.251h39.486v107.637c-3.254-1.373-6.583-2.566-9.977-3.572v-13.446-.001c0-8.038-6.54-14.575-14.576-14.575-28.056 0-26.118-.029-27.137.075zm66.69 30.834v-109.452c0-6.893-5.607-12.5-12.5-12.5h-41.986v-15h56.986c6.893 0 12.5 5.607 12.5 12.5v115.956c-7.301-.224-10.725 4.221-15 8.496z"/></g></g></svg>