<svg id="Capa_1" enable-background="new 0 0 512 512" height="512" viewBox="0 0 512 512" width="512" xmlns="http://www.w3.org/2000/svg"><g><g><path d="m487.5 448.695h-463c-9.389 0-17-7.611-17-17v-351.39c0-9.389 7.611-17 17-17h463c9.389 0 17 7.611 17 17v351.389c0 9.389-7.611 17.001-17 17.001z" fill="#ecbe6b"/><path d="m44.5 403.694v-295.388c0-4.418 3.582-8 8-8h407c4.418 0 8 3.582 8 8v295.389c0 4.418-3.582 8-8 8h-407c-4.418-.001-8-3.582-8-8.001z" fill="#407093"/><path d="m487.5 63.305h-25.512c9.389 0 17 7.611 17 17v351.389c0 9.389-7.611 17-17 17h25.512c9.389 0 17-7.611 17-17v-351.389c0-9.388-7.611-17-17-17z" fill="#eab14d"/><path d="m215.567 333.255h-127.333c-5.523 0-10-4.477-10-10v-177.843c0-5.523 4.477-10 10-10h127.333c5.523 0 10 4.477 10 10v177.843c0 5.523-4.477 10-10 10z" fill="#e7ecf6"/><path d="m426.766 305.722h-82c-3.866 0-7-3.134-7-7v-82c0-3.866 3.134-7 7-7h82c3.866 0 7 3.134 7 7v82c0 3.866-3.134 7-7 7z" fill="#e28086"/><g fill="#78c2a4"><circle cx="112.945" cy="184.092" r="7.5"/><circle cx="112.945" cy="218.107" r="7.5"/><circle cx="112.945" cy="252.123" r="7.5"/><circle cx="112.945" cy="286.139" r="7.5"/></g><path d="m355.9 376.588h-82c-3.866 0-7-3.134-7-7v-82c0-3.866 3.134-7 7-7h82c3.866 0 7 3.134 7 7v82c0 3.866-3.134 7-7 7z" fill="#b3e59f"/><path d="m459.5 100.306h-25.512c4.418 0 8 3.582 8 8v295.389c0 4.418-3.582 8-8 8h25.512c4.418 0 8-3.582 8-8v-295.389c0-4.419-3.582-8-8-8z" fill="#365e7d"/></g><g><path d="m487.5 55.806h-463c-13.509 0-24.5 10.99-24.5 24.5v256.103c0 4.143 3.358 7.5 7.5 7.5s7.5-3.357 7.5-7.5v-256.103c0-5.238 4.262-9.5 9.5-9.5h463c5.238 0 9.5 4.262 9.5 9.5v351.389c0 5.238-4.262 9.5-9.5 9.5h-463c-5.238 0-9.5-4.262-9.5-9.5v-60.286c0-4.143-3.358-7.5-7.5-7.5s-7.5 3.357-7.5 7.5v60.286c0 13.51 10.991 24.5 24.5 24.5h463c13.509 0 24.5-10.99 24.5-24.5v-351.389c0-13.51-10.991-24.5-24.5-24.5z"/><path d="m283.111 92.806h-238.611c-4.142 0-7.5 3.357-7.5 7.5v311.389c0 4.143 3.358 7.5 7.5 7.5h423c4.142 0 7.5-3.357 7.5-7.5v-311.389c0-4.143-3.358-7.5-7.5-7.5h-149.389c-4.142 0-7.5 3.357-7.5 7.5s3.358 7.5 7.5 7.5h141.889v296.389h-408v-296.389h231.111c4.142 0 7.5-3.357 7.5-7.5s-3.358-7.5-7.5-7.5z"/><path d="m88.233 127.911c-9.649 0-17.5 7.851-17.5 17.5v177.844c0 9.649 7.851 17.5 17.5 17.5h127.333c9.649 0 17.5-7.851 17.5-17.5v-177.844c0-9.649-7.851-17.5-17.5-17.5zm129.834 17.5v177.844c0 1.379-1.122 2.5-2.5 2.5h-127.334c-1.378 0-2.5-1.121-2.5-2.5v-177.844c0-1.379 1.122-2.5 2.5-2.5h127.333c1.379 0 2.501 1.121 2.501 2.5z"/><path d="m259.4 287.589v82c0 7.995 6.505 14.5 14.5 14.5h82c7.995 0 14.5-6.505 14.5-14.5v-56.366h56.366c7.995 0 14.5-6.505 14.5-14.5v-82c0-7.995-6.505-14.5-14.5-14.5h-82c-7.995 0-14.5 6.505-14.5 14.5v56.366h-56.366c-7.995 0-14.5 6.505-14.5 14.5zm85.867-70.366h81v81h-55.867v-10.634-.001c0-7.995-6.505-14.5-14.5-14.5h-10.634v-55.865zm-70.867 70.866h81v17.634 63.366h-81z"/><circle cx="314.9" cy="305.722" r="7.5"/><circle cx="385.766" cy="232.325" r="7.5"/><circle cx="112.945" cy="184.092" r="7.5"/><path d="m199.919 176.592h-55.135c-4.142 0-7.5 3.357-7.5 7.5s3.358 7.5 7.5 7.5h55.135c4.142 0 7.5-3.357 7.5-7.5s-3.357-7.5-7.5-7.5z"/><circle cx="112.945" cy="218.107" r="7.5"/><path d="m199.919 210.607h-55.135c-4.142 0-7.5 3.357-7.5 7.5s3.358 7.5 7.5 7.5h55.135c4.142 0 7.5-3.357 7.5-7.5s-3.357-7.5-7.5-7.5z"/><circle cx="112.945" cy="252.123" r="7.5"/><path d="m199.919 244.623h-55.135c-4.142 0-7.5 3.357-7.5 7.5s3.358 7.5 7.5 7.5h55.135c4.142 0 7.5-3.357 7.5-7.5s-3.357-7.5-7.5-7.5z"/><circle cx="112.945" cy="286.139" r="7.5"/><path d="m199.919 278.639h-55.135c-4.142 0-7.5 3.357-7.5 7.5s3.358 7.5 7.5 7.5h55.135c4.142 0 7.5-3.357 7.5-7.5s-3.357-7.5-7.5-7.5z"/></g></g></svg>