<svg id="Capa_1" enable-background="new 0 0 512 512" height="512" viewBox="0 0 512 512" width="512" xmlns="http://www.w3.org/2000/svg"><g><g><path d="m401.493 482.5v-392.623h-377.166v392.623c0 12.15 9.85 22 22 22h333.165c12.151 0 22.001-9.85 22.001-22z" fill="#dff6fd"/><path d="m375.981 89.877v392.623c0 12.15-9.85 22-22 22h28.346c12.15 0 22-9.85 22-22v-392.623z" fill="#c8effe"/><path d="m383.493 50.754h-337.166c-12.15 0-22 9.85-22 22v56.246h377.165v-60.246c.001-9.941-8.058-18-17.999-18z" fill="#95d6a4"/><path d="m386.327 50.754h-28.346c9.941 0 18 8.059 18 18v60.246h28.346v-60.246c0-9.941-8.059-18-18-18z" fill="#78c2a4"/><path d="m408.437 237.227 18.465 37.414c1.762 3.571 5.169 6.045 9.109 6.618l41.289 6c9.923 1.442 13.885 13.636 6.705 20.635l-29.877 29.123c-2.851 2.779-4.152 6.784-3.479 10.708l7.053 41.122c1.695 9.883-8.678 17.419-17.553 12.753l-36.93-19.415c-3.524-1.853-7.735-1.853-11.259 0l-36.93 19.415c-8.875 4.666-19.248-2.87-17.553-12.753l7.053-41.122c.673-3.924-.628-7.929-3.479-10.708l-29.877-29.123c-7.18-6.999-3.218-19.193 6.705-20.635l41.289-6c3.94-.573 7.347-3.047 9.109-6.618l18.465-37.414c4.436-8.992 17.258-8.992 21.695 0z" fill="#ecbe6b"/><g><path d="m484.005 307.894c7.18-6.999 3.218-19.193-6.705-20.635l-41.289-6c-3.94-.572-7.347-3.047-9.109-6.618l-18.465-37.415c-4.438-8.992-17.26-8.992-21.697 0l-3.324 6.736 15.14 30.678c1.762 3.57 5.168 6.045 9.109 6.618l41.289 6c9.923 1.442 13.885 13.636 6.705 20.635l-29.877 29.123c-2.851 2.779-4.152 6.784-3.479 10.708l7.053 41.122c.415 2.421.103 4.7-.731 6.695l11.524 6.059c8.875 4.666 19.248-2.871 17.553-12.753l-7.053-41.122c-.673-3.924.628-7.929 3.479-10.708z" fill="#eab14d"/></g><g fill="#407093"><path d="m150.473 11.5v67.848c0 9.739 7.53 17.702 17.083 18.428 9.553-.726 17.083-8.689 17.083-18.428v-67.848c0-2.209-1.791-4-4-4h-26.165c-2.21 0-4.001 1.791-4.001 4z"/><path d="m59.764 11.5v67.848c0 9.739 7.53 17.702 17.083 18.428 9.553-.726 17.083-8.689 17.083-18.428v-67.848c0-2.209-1.791-4-4-4h-26.166c-2.209 0-4 1.791-4 4z"/><path d="m241.182 11.5v67.848c0 9.739 7.53 17.702 17.083 18.428 9.553-.726 17.083-8.689 17.083-18.428v-67.848c0-2.209-1.791-4-4-4h-26.165c-2.211 0-4.001 1.791-4.001 4z"/><path d="m331.89 11.5v67.848c0 9.739 7.53 17.702 17.083 18.428 9.553-.726 17.083-8.689 17.083-18.428v-67.848c0-2.209-1.791-4-4-4h-26.166c-2.209 0-4 1.791-4 4z"/></g><path d="m183.473 7.5h-17.008c2.209 0 4 1.791 4 4v67.848c0 7.148-4.061 13.338-9.996 16.418 2.548 1.322 5.435 2.082 8.504 2.082 10.217 0 18.5-8.283 18.5-18.5v-67.848c0-2.209-1.791-4-4-4z" fill="#365e7d"/><path d="m92.764 7.5h-17.008c2.209 0 4 1.791 4 4v67.848c0 7.148-4.061 13.338-9.996 16.418 2.548 1.322 5.435 2.082 8.504 2.082 10.217 0 18.5-8.283 18.5-18.5v-67.848c0-2.209-1.791-4-4-4z" fill="#365e7d"/><path d="m274.182 7.5h-17.008c2.209 0 4 1.791 4 4v67.848c0 7.148-4.061 13.338-9.996 16.418 2.548 1.322 5.435 2.082 8.504 2.082 10.217 0 18.5-8.283 18.5-18.5v-67.848c0-2.209-1.791-4-4-4z" fill="#365e7d"/><path d="m364.89 7.5h-17.008c2.209 0 4 1.791 4 4v67.848c0 7.148-4.061 13.338-9.996 16.418 2.548 1.322 5.435 2.082 8.504 2.082 10.217 0 18.5-8.283 18.5-18.5v-67.848c0-2.209-1.791-4-4-4z" fill="#365e7d"/></g><g><path d="m84.011 199.25h260.632c4.143 0 7.5-3.357 7.5-7.5s-3.357-7.5-7.5-7.5h-260.632c-4.143 0-7.5 3.357-7.5 7.5s3.358 7.5 7.5 7.5z"/><path d="m84.011 261.75h260.632c4.143 0 7.5-3.357 7.5-7.5s-3.357-7.5-7.5-7.5h-260.632c-4.143 0-7.5 3.357-7.5 7.5s3.358 7.5 7.5 7.5z"/><path d="m84.011 386.75h210.078c4.143 0 7.5-3.357 7.5-7.5s-3.357-7.5-7.5-7.5h-210.078c-4.143 0-7.5 3.357-7.5 7.5s3.358 7.5 7.5 7.5z"/><path d="m84.011 449.25h211.129c4.143 0 7.5-3.357 7.5-7.5s-3.357-7.5-7.5-7.5h-211.129c-4.143 0-7.5 3.357-7.5 7.5s3.358 7.5 7.5 7.5z"/><path d="m489.24 313.265c11.516-11.222 5.396-31.067-10.861-33.428l-41.289-6c-1.498-.218-2.791-1.157-3.461-2.516l-18.466-37.414c-.885-1.793-2.017-3.398-3.335-4.799 0-4.816 0-156.2 0-160.354 0-14.061-11.439-25.5-25.5-25.5h-9.938v-31.754c0-6.341-5.159-11.5-11.5-11.5h-29c-6.341 0-11.5 5.159-11.5 11.5v31.754h-38.709v-31.754c0-6.341-5.159-11.5-11.5-11.5h-29c-6.341 0-11.5 5.159-11.5 11.5v31.754h-38.708v-31.754c0-6.341-5.159-11.5-11.5-11.5h-29c-6.341 0-11.5 5.159-11.5 11.5v31.754h-38.709v-31.754c0-6.341-5.159-11.5-11.5-11.5h-29c-6.341 0-11.5 5.159-11.5 11.5v31.754h-5.937c-16.267 0-29.5 13.233-29.5 29.5v409.746c0 16.267 13.233 29.5 29.5 29.5h55.429c4.143 0 7.5-3.357 7.5-7.5s-3.357-7.5-7.5-7.5h-55.428c-7.995 0-14.5-6.505-14.5-14.5v-346h365v86.51c-7.332.277-13.673 4.534-16.813 10.897l-18.466 37.415c-.66 1.341-1.95 2.295-3.46 2.515-45.759 6.649-41.838 6.025-43.521 6.469-12.754 3.357-18.373 17.982-11.787 28.944h-218.77c-4.143 0-7.5 3.357-7.5 7.5s3.357 7.5 7.5 7.5h233.195l18.609 18.139c1.054 1.028 1.581 2.55 1.32 4.068l-5.251 30.62-1.802 10.503c-2.745 16.069 14.062 28.217 28.436 20.659 39.835-20.942 37.228-19.691 38.309-19.866v94.127c0 7.995-6.505 14.5-14.5 14.5h-245.571c-4.143 0-7.5 3.357-7.5 7.5s3.357 7.5 7.5 7.5h245.571c16.267 0 29.5-13.233 29.5-29.5v-87.315l24.835 13.056c2.877 1.511 5.945 2.276 9.118 2.276 10.81 0 19.604-8.766 19.604-19.541 0-2.179-.238-3.09-1.35-9.571-.701-4.082-4.582-6.82-8.66-6.125-4.082.7-6.824 4.577-6.125 8.66 1.073 6.255 1.135 6.38 1.135 7.036 0 3.212-3.54 5.671-6.746 3.985l-35.816-18.829c-.004-.002-.007-.005-.011-.007-7.22-3.789-13.878-3.455-19.343-.579l-36.931 19.415c-3.357 1.767-7.324-1.026-6.67-4.847l7.052-41.12c1.116-6.479-1.146-12.975-5.636-17.35l-29.878-29.123c-2.569-2.504-1.362-6.563 1.6-7.61.294-.104.61-.182.949-.232l41.289-6c6.386-.927 11.902-4.936 14.756-10.721l18.465-37.414c1.717-3.477 6.6-3.334 8.246 0l18.465 37.413c2.854 5.786 8.371 9.795 14.757 10.722l41.289 6c3.809.554 5.277 5.184 2.548 7.842l-29.877 29.123c-3.761 3.666-5.918 8.781-5.918 14.034 0 8.585 5.338 10.517 9.015 9.889 3.73-.638 6.909-4.065 6.053-9.104-.266-1.542.278-3.06 1.321-4.076zm-149.85-298.265h22v64.348c0 6.065-4.935 11-11 11s-11-4.935-11-11c0-6.923 0-57.4 0-64.348zm-90.709 0h22v64.348c0 6.065-4.935 11-11 11s-11-4.935-11-11c0-6.923 0-57.4 0-64.348zm-90.708 0h22v64.348c0 6.065-4.935 11-11 11s-11-4.935-11-11c0-6.923 0-57.4 0-64.348zm-90.709 0h22v64.348c0 6.065-4.935 11-11 11s-11-4.935-11-11c0-6.923 0-57.4 0-64.348zm-35.436 106.5v-48.746c0-7.995 6.505-14.5 14.5-14.5h5.937v21.094.001c0 14.337 11.663 26 26 26s26-11.663 26-26v-.001-21.094h38.709v21.094.001c0 14.337 11.663 26 26 26s26-11.663 26-26v-.001-21.094h38.708v21.094.001c0 14.337 11.663 26 26 26s26-11.663 26-26v-.001-21.094h38.709v21.094.001c0 14.337 11.663 26 26 26s26-11.663 26-26v-.001-21.094h9.938c5.79 0 10.5 4.71 10.5 10.5v52.746c-9.749 0-356.811 0-365.001 0z"/></g></g></svg>