<svg id="Capa_1" enable-background="new 0 0 512 512" height="512" viewBox="0 0 512 512" width="512" xmlns="http://www.w3.org/2000/svg"><g><g><path d="m386.194 190.453h-254.834c-6.627 0-12-5.373-12-12v-145.997c0-6.627 5.373-12 12-12h254.834c6.627 0 12 5.373 12 12v145.997c0 6.628-5.372 12-12 12z" fill="#e7ecf6"/><path d="m386.194 20.456h-25.512c6.627 0 12 5.373 12 12v145.997c0 6.627-5.373 12-12 12h25.512c6.627 0 12-5.373 12-12v-145.997c0-6.627-5.372-12-12-12z" fill="#d8e2f1"/><path d="m74.568 292.455v-150.477c0-4.971 4.029-9 9-9h128.045c3.988 0 7.5 2.624 8.631 6.448l5.293 17.905c1.131 3.824 4.643 6.448 8.631 6.448h194.265c4.971 0 9 4.029 9 9v213.754c0 4.971-4.029 9-9 9h-344.865c-4.971 0-9-4.029-9-9z" fill="#ecbe6b"/><g fill="#eab14d"><path d="m194.731 139.426 5.293 17.905c1.131 3.824 4.643 6.448 8.631 6.448h25.512c-3.988 0-7.5-2.624-8.631-6.448l-5.293-17.905c-1.131-3.824-4.643-6.448-8.631-6.448h-25.512c3.988 0 7.501 2.624 8.631 6.448z"/><path d="m428.433 163.779h-25.512c4.97 0 9 4.03 9 9v213.754c0 4.971-4.03 9-9 9h25.512c4.97 0 9-4.029 9-9v-213.754c0-4.971-4.03-9-9-9z"/></g><path d="m483.5 491.544h-455c-11.598 0-21-9.402-21-21v-235.766c0-11.598 9.402-21 21-21h455c11.598 0 21 9.402 21 21v235.766c0 11.598-9.402 21-21 21z" fill="#407093"/><path d="m44.5 446.544v-187.766c0-4.418 3.582-8 8-8h407c4.418 0 8 3.582 8 8v187.766c0 4.418-3.582 8-8 8h-407c-4.418 0-8-3.582-8-8z" fill="#2b4d66"/><path d="m307.505 345.88h-103.01c-4.418 0-8-3.582-8-8v-20.328c0-4.418 3.582-8 8-8h103.01c4.418 0 8 3.582 8 8v20.328c0 4.418-3.582 8-8 8z" fill="#bed8fb"/><path d="m483.5 213.778h-25.512c11.598 0 21 9.402 21 21v235.766c0 11.598-9.402 21-21 21h25.512c11.598 0 21-9.402 21-21v-235.766c0-11.598-9.402-21-21-21z" fill="#365e7d"/><path d="m307.505 309.552h-28.346c4.418 0 8 3.582 8 8v20.328c0 4.418-3.582 8-8 8h28.346c4.418 0 8-3.582 8-8v-20.328c0-4.419-3.582-8-8-8z" fill="#9dc6fb"/></g><g><path d="m483.5 206.278h-38.567v-33.499c0-9.098-7.402-16.5-16.5-16.5h-22.738v-123.823c0-10.752-8.748-19.5-19.5-19.5h-144.018c-4.143 0-7.5 3.357-7.5 7.5s3.357 7.5 7.5 7.5h144.018c2.481 0 4.5 2.019 4.5 4.5v123.823h-156.528c-.659 0-1.25-.441-1.438-1.076l-5.294-17.904c-2.059-6.96-8.565-11.821-15.823-11.821h-84.753v-93.022c0-2.481 2.019-4.5 4.5-4.5h75.817c4.143 0 7.5-3.357 7.5-7.5s-3.357-7.5-7.5-7.5h-75.817c-10.752 0-19.5 8.748-19.5 19.5v93.021h-28.292c-9.098 0-16.5 7.402-16.5 16.5v64.301h-38.567c-15.715 0-28.5 12.785-28.5 28.5v235.766c0 15.715 12.785 28.5 28.5 28.5h330c4.143 0 7.5-3.357 7.5-7.5s-3.357-7.5-7.5-7.5h-330c-7.444 0-13.5-6.056-13.5-13.5v-235.766c0-7.444 6.056-13.5 13.5-13.5h455c7.444 0 13.5 6.056 13.5 13.5v235.766c0 7.444-6.056 13.5-13.5 13.5h-90c-4.143 0-7.5 3.357-7.5 7.5s3.357 7.5 7.5 7.5h90c15.715 0 28.5-12.785 28.5-28.5v-235.766c0-15.715-12.785-28.5-28.5-28.5zm-401.433 0v-64.301c0-.827.673-1.5 1.5-1.5h128.045c.66 0 1.252.442 1.438 1.075l5.294 17.902c2.057 6.962 8.563 11.824 15.822 11.824h164.027 30.238c.827 0 1.5.673 1.5 1.5v33.499c-10.424.001-332.547.001-347.864.001z"/><path d="m475 454.544v-203.766c0-4.143-3.357-7.5-7.5-7.5h-423c-4.143 0-7.5 3.357-7.5 7.5v203.766c0 4.143 3.357 7.5 7.5 7.5h423c4.143 0 7.5-3.357 7.5-7.5zm-15-7.5h-408v-188.766h408z"/><path d="m204.495 353.38h103.01c8.547 0 15.5-6.953 15.5-15.5v-20.328c0-8.547-6.953-15.5-15.5-15.5h-103.01c-8.547 0-15.5 6.953-15.5 15.5v20.328c0 8.547 6.953 15.5 15.5 15.5zm-.5-35.828c0-.275.225-.5.5-.5h103.01c.275 0 .5.225.5.5v20.328c0 .275-.225.5-.5.5h-103.01c-.275 0-.5-.225-.5-.5z"/><path d="m340.777 55.896h-164c-4.143 0-7.5 3.357-7.5 7.5s3.357 7.5 7.5 7.5h164c4.143 0 7.5-3.357 7.5-7.5s-3.357-7.5-7.5-7.5z"/><path d="m340.777 92.747h-164c-4.143 0-7.5 3.357-7.5 7.5s3.357 7.5 7.5 7.5h164c4.143 0 7.5-3.357 7.5-7.5s-3.357-7.5-7.5-7.5z"/></g></g></svg>