<svg id="Capa_1" enable-background="new 0 0 512 512" height="512" viewBox="0 0 512 512" width="512" xmlns="http://www.w3.org/2000/svg"><g><g><path d="m172.899 68.5v-39.653c0-11.79 9.557-21.347 21.347-21.347h47.306c11.79 0 21.347 9.557 21.347 21.347v39.653z" fill="#365e7d"/><path d="m241.552 7.5h-25.512c11.79 0 21.347 9.558 21.347 21.347v39.653h25.512v-39.653c0-11.789-9.558-21.347-21.347-21.347z" fill="#2b4d66"/><path d="m380.493 504.5h-325.188c-11.046 0-20-8.954-20-20v-413.746c0-11.046 8.954-20 20-20h325.188c11.046 0 20 8.954 20 20v413.746c0 11.046-8.955 20-20 20z" fill="#e28086"/><path d="m65.305 469.5v-383.746c0-2.761 2.239-5 5-5h295.188c2.761 0 5 2.239 5 5v383.746c0 2.761-2.239 5-5 5h-295.188c-2.761 0-5-2.239-5-5z" fill="#e7ecf6"/><path d="m307.006 115.505h-178.215c-4.971 0-9-4.029-9-9v-59.505c0-4.971 4.029-9 9-9h178.215c4.971 0 9 4.029 9 9v59.505c0 4.97-4.029 9-9 9z" fill="#407093"/><path d="m380.493 50.754h-30c11.046 0 20 8.954 20 20v413.746c0 11.046-8.954 20-20 20h30c11.046 0 20-8.954 20-20v-413.746c0-11.046-8.955-20-20-20z" fill="#dd636e"/><path d="m365.492 80.754h-30c2.761 0 5 2.239 5 5v383.746c0 2.761-2.239 5-5 5h30c2.761 0 5-2.239 5-5v-383.746c0-2.761-2.238-5-5-5z" fill="#d8e2f1"/><circle cx="400.493" cy="291.993" fill="#90d8f9" r="76.203"/><path d="m307.006 38h-25.512c4.971 0 9 4.029 9 9v59.505c0 4.97-4.029 9-9 9h25.512c4.971 0 9-4.03 9-9v-59.505c0-4.971-4.029-9-9-9z" fill="#365e7d"/><path d="m400.493 215.79c-3.854 0-7.639.292-11.339.845 36.707 5.477 64.864 37.126 64.864 75.358s-28.157 69.882-64.864 75.358c3.7.552 7.485.844 11.339.844 42.086 0 76.203-34.117 76.203-76.203s-34.118-76.202-76.203-76.202z" fill="#75cef9"/></g><g><path d="m400.493 341.243c4.142 0 7.5-3.357 7.5-7.5v-34.25h34.25c4.142 0 7.5-3.357 7.5-7.5s-3.358-7.5-7.5-7.5h-34.25v-34.25c0-4.143-3.358-7.5-7.5-7.5s-7.5 3.357-7.5 7.5v34.25h-34.25c-4.142 0-7.5 3.357-7.5 7.5s3.358 7.5 7.5 7.5h34.25v34.25c0 4.143 3.358 7.5 7.5 7.5z"/><path d="m114.899 172.328h206c4.142 0 7.5-3.357 7.5-7.5s-3.358-7.5-7.5-7.5h-206c-4.142 0-7.5 3.357-7.5 7.5s3.358 7.5 7.5 7.5z"/><path d="m114.899 236.078h206c4.142 0 7.5-3.357 7.5-7.5s-3.358-7.5-7.5-7.5h-206c-4.142 0-7.5 3.357-7.5 7.5s3.358 7.5 7.5 7.5z"/><path d="m320.899 348.578h-206c-4.142 0-7.5 3.357-7.5 7.5s3.358 7.5 7.5 7.5h206c4.142 0 7.5-3.357 7.5-7.5s-3.358-7.5-7.5-7.5z"/><path d="m320.899 412.328h-206c-4.142 0-7.5 3.357-7.5 7.5s3.358 7.5 7.5 7.5h206c4.142 0 7.5-3.357 7.5-7.5s-3.358-7.5-7.5-7.5z"/><path d="m484.195 291.993c0-14.652-3.844-29.072-11.114-41.702-2.067-3.59-6.652-4.826-10.242-2.759-3.59 2.066-4.825 6.651-2.758 10.241 5.962 10.357 9.113 22.19 9.114 34.22 0 37.883-30.82 68.702-68.703 68.702-37.879 0-68.7-30.818-68.703-68.699 0-.001 0-.002 0-.003 0-54.933 61.591-87.529 106.939-57.088 3.438 2.31 8.099 1.393 10.407-2.046 2.309-3.439 1.393-8.099-2.047-10.407-11.719-7.868-25.108-12.571-39.097-13.815v-137.883c0-15.163-12.336-27.5-27.5-27.5h-57.431c-1.703-7.296-8.247-12.754-16.055-12.754h-36.607c0-19.096-13.952-30.5-28.847-30.5h-47.306c-14.794 0-28.847 11.282-28.847 30.5h-36.607c-7.808 0-14.351 5.458-16.055 12.754h-57.431c-15.164 0-27.5 12.337-27.5 27.5v413.746c0 15.163 12.336 27.5 27.5 27.5h49.21c4.142 0 7.5-3.357 7.5-7.5s-3.358-7.5-7.5-7.5h-49.21c-6.893 0-12.5-5.607-12.5-12.5v-413.746c0-6.893 5.607-12.5 12.5-12.5h56.987v15h-41.987c-6.893 0-12.5 5.607-12.5 12.5v383.746c0 6.893 5.607 12.5 12.5 12.5h295.188c6.893 0 12.5-5.607 12.5-12.5v-96.867c5.111 1.417 10.43 2.325 15 2.732v109.135c0 6.893-5.607 12.5-12.5 12.5h-240.978c-4.142 0-7.5 3.357-7.5 7.5s3.358 7.5 7.5 7.5h240.978c15.164 0 27.5-12.337 27.5-27.5v-109.158c42.651-3.808 76.202-39.725 76.202-83.349zm-91.202-221.239v137.869c-4.514.404-9.582 1.286-14.381 2.588-.206.056-.414.104-.619.162v-125.619c0-6.893-5.607-12.5-12.5-12.5h-41.987c0-5.225 0-9.526 0-15h56.987c6.892 0 12.5 5.607 12.5 12.5zm-265.701-23.754c0-.827.673-1.5 1.5-1.5h44.107c4.142 0 7.5-3.357 7.5-7.5v-9.152c0-7.636 6.211-13.848 13.847-13.848h47.306c7.635 0 13.847 6.212 13.847 13.848v9.152c0 4.143 3.358 7.5 7.5 7.5h44.107c.827 0 1.5.673 1.5 1.5v59.505c0 .827-.673 1.5-1.5 1.5h-178.214c-.827 0-1.5-.673-1.5-1.5 0-24.736 0-29.663 0-59.505zm235.701 420h-290.188v-378.746h39.486v18.251c0 7.961 5.667 14.623 13.179 16.164 2.497.512 182.161.553 184.857 0 7.512-1.541 13.179-8.203 13.179-16.164 0-7.068 0-11.394 0-18.251h39.487v128.895c-25.904 12.975-43.401 38.525-45.885 67.68h-202.209c-4.142 0-7.5 3.357-7.5 7.5s3.358 7.5 7.5 7.5h202.258c2.587 27.775 19.122 53.697 45.836 67.042z"/></g></g></svg>