<svg id="Capa_1" enable-background="new 0 0 512 512" height="512" viewBox="0 0 512 512" width="512" xmlns="http://www.w3.org/2000/svg"><g><g><path d="m349.125 504.5h-244c-18.225 0-33-14.775-33-33v-431c0-18.225 14.775-33 33-33h244c18.225 0 33 14.775 33 33v431c0 18.225-14.775 33-33 33z" fill="#bed8fb"/><path d="m349.125 7.5h-25.512c18.225 0 33 14.775 33 33v431c0 18.225-14.775 33-33 33h25.512c18.225 0 33-14.775 33-33v-431c0-18.225-14.775-33-33-33z" fill="#9dc6fb"/><path d="m111.125 418v-361.5c0-5.523 4.477-10 10-10h212c5.523 0 10 4.477 10 10v361.5c0 5.523-4.477 10-10 10h-212c-5.523 0-10-4.477-10-10z" fill="#407093"/><path d="m333.125 46.5h-25.512c5.523 0 10 4.477 10 10v361.5c0 5.523-4.477 10-10 10h25.512c5.523 0 10-4.477 10-10v-361.5c0-5.523-4.477-10-10-10z" fill="#365e7d"/><path d="m403.792 152.167v23.899c0 4.143-3.357 7.5-7.5 7.5s-7.5-3.357-7.5-7.5v-23.899c0-.056.007-.111.008-.167h-38.017c.001.056.008.111.008.167v23.899c0 4.143-3.357 7.5-7.5 7.5s-7.5-3.357-7.5-7.5v-23.899c0-.056.007-.111.008-.167h-38.017c.001.056.008.111.008.167v23.899c0 4.143-3.357 7.5-7.5 7.5s-7.5-3.357-7.5-7.5v-23.899c0-.056.007-.111.008-.167h-25.425c-6.075 0-11 4.925-11 11v171.5c0 6.075 4.925 11 11 11h143.75l7.734-.793 22.143-8.332v-178.125z" fill="#f6e266"/><g><path d="m428.875 152h-25.091c.001.056.008.111.008.167v.326c4.482 1.391 7.737 5.569 7.737 10.507v171.5c0 6.075-4.925 11-11 11h28.346c6.075 0 11-4.925 11-11v-171.5c0-6.075-4.925-11-11-11z" fill="#ffd064"/></g><path d="m403.784 152c.001.056.008.111.008.167l.117-.167z" fill="#f6e266"/></g><g><path d="m259.625 472.5c4.143 0 7.5-3.357 7.5-7.5s-3.357-7.5-7.5-7.5h-65c-4.142 0-7.5 3.357-7.5 7.5s3.358 7.5 7.5 7.5z"/><path d="m439.875 287.144c4.143 0 7.5-3.357 7.5-7.5v-116.644c0-10.201-8.299-18.5-18.5-18.5h-39.25v-104c0-22.332-18.168-40.5-40.5-40.5h-178.821c-4.142 0-7.5 3.357-7.5 7.5s3.358 7.5 7.5 7.5h178.821c14.061 0 25.5 11.439 25.5 25.5v104h-24v-98c0-4.143-3.357-7.5-7.5-7.5h-232c-4.142 0-7.5 3.357-7.5 7.5v381.5c0 4.143 3.358 7.5 7.5 7.5h232c4.143 0 7.5-3.357 7.5-7.5v-75h24v118.5c0 14.061-11.439 25.5-25.5 25.5h-244c-14.061 0-25.5-11.439-25.5-25.5v-431c0-14.061 11.439-25.5 25.5-25.5h30.179c4.142 0 7.5-3.357 7.5-7.5s-3.358-7.5-7.5-7.5h-30.179c-22.332 0-40.5 18.168-40.5 40.5v431c0 22.332 18.168 40.5 40.5 40.5h244c22.332 0 40.5-18.168 40.5-40.5v-118.5h39.25c10.201 0 18.5-8.299 18.5-18.5v-19.856c0-4.143-3.357-7.5-7.5-7.5s-7.5 3.357-7.5 7.5v19.856c0 1.93-1.57 3.5-3.5 3.5h-46.75-39-85.75c-1.688 0-3.102-1.202-3.429-2.796-.047-.228-.071-.463-.071-.704v-171.5c0-.241.025-.477.071-.704.327-1.593 1.74-2.796 3.429-2.796h25.417v16.566c0 4.143 3.357 7.5 7.5 7.5s7.5-3.357 7.5-7.5v-16.566h38v16.566c0 4.143 3.357 7.5 7.5 7.5s7.5-3.357 7.5-7.5v-16.566h31.333 6.667v16.566c0 4.143 3.357 7.5 7.5 7.5s7.5-3.357 7.5-7.5v-16.566h25.083c1.93 0 3.5 1.57 3.5 3.5v116.644c0 4.142 3.357 7.5 7.5 7.5zm-182.5-142.644c-10.202 0-18.5 8.3-18.5 18.5v171.5c0 10.2 8.298 18.5 18.5 18.5h78.25v67.5h-217v-366.5h217v90.5z"/><path d="m396.125 224.667h-106c-4.143 0-7.5 3.357-7.5 7.5s3.357 7.5 7.5 7.5h106c4.143 0 7.5-3.357 7.5-7.5s-3.357-7.5-7.5-7.5z"/><path d="m396.125 272.667h-106c-4.143 0-7.5 3.357-7.5 7.5s3.357 7.5 7.5 7.5h106c4.143 0 7.5-3.357 7.5-7.5s-3.357-7.5-7.5-7.5z"/></g></g></svg>