<svg id="Capa_1" enable-background="new 0 0 512 512" height="512" viewBox="0 0 512 512" width="512" xmlns="http://www.w3.org/2000/svg"><g><g><path d="m253.165 438v-364c0-11.046-8.954-20-20-20h-210.665c-8.284 0-15 6.716-15 15v374c0 8.284 6.716 15 15 15h210.665c11.046 0 20-8.954 20-20z" fill="#e28086"/><path d="m501.665 443v-374c0-8.284-6.716-15-15-15h-210.665c-11.046 0-20 8.954-20 20v364c0 11.046 8.954 20 20 20h210.665c8.285 0 15-6.716 15-15z" fill="#e28086"/><path d="m236 54h-28.346c11.046 0 20 8.954 20 20v364c0 11.046-8.954 20-20 20h28.346c11.046 0 20-8.954 20-20v-364c0-11.046-8.954-20-20-20z" fill="#dd636e"/><path d="m489.5 54h-34.5c8.284 0 15 6.716 15 15v374c0 8.284-6.716 15-15 15h34.5c8.284 0 15-6.716 15-15v-374c0-8.284-6.716-15-15-15z" fill="#dd636e"/><path d="m455 421.726h-184c-8.284 0-15-6.716-15-15v-301.246c0-8.284 6.716-15 15-15h184c8.284 0 15 6.716 15 15v301.246c0 8.284-6.716 15-15 15z" fill="#e7ecf6"/><path d="m241 421.623h-184c-8.284 0-15-6.716-15-15v-301.246c0-8.284 6.716-15 15-15h184c8.284 0 15 6.716 15 15v301.246c0 8.284-6.716 15-15 15z" fill="#ecbe6b"/><path d="m188.677 175.65h-107.677c-3.314 0-6-2.686-6-6v-41.4c0-3.314 2.686-6 6-6h107.677c3.314 0 6 2.686 6 6v41.4c0 3.314-2.686 6-6 6z" fill="#ffefd2"/><path d="m188.677 389.25h-107.677c-3.314 0-6-2.686-6-6v-29.167c0-3.314 2.686-6 6-6h107.677c3.314 0 6 2.686 6 6v29.167c0 3.314-2.686 6-6 6z" fill="#ffefd2"/><path d="m455 90.377h-22.665c8.284 0 15 6.716 15 15v301.246c0 8.284-6.716 15-15 15h22.665c8.284 0 15-6.716 15-15v-301.246c0-8.284-6.716-15-15-15z" fill="#d8e2f1"/><path d="m488.417 164.083h-64.417c-1.657 0-3-1.343-3-3v-35.833c0-1.657 1.343-3 3-3h64.417c8.883 0 16.083 7.201 16.083 16.083v9.667c0 8.883-7.201 16.083-16.083 16.083z" fill="#90d8f9"/><path d="m241 90.377h-28.346c8.284 0 15 6.716 15 15v301.246c0 8.284-6.716 15-15 15h28.346c8.284 0 15-6.716 15-15v-301.246c0-8.284-6.716-15-15-15z" fill="#eab14d"/><path d="m488.417 122.25h-28.347c8.883 0 16.083 7.201 16.083 16.083v9.667c0 8.883-7.201 16.083-16.083 16.083h28.347c8.883 0 16.083-7.201 16.083-16.083v-9.667c0-8.882-7.201-16.083-16.083-16.083z" fill="#75cef9"/></g><g><path d="m489.5 46.5h-213.5c-7.875 0-14.982 3.333-20 8.655-5.018-5.323-12.125-8.655-20-8.655h-213.5c-12.406 0-22.5 10.094-22.5 22.5v26.071c0 4.143 3.357 7.5 7.5 7.5s7.5-3.357 7.5-7.5v-26.071c0-4.136 3.364-7.5 7.5-7.5h213.5c6.893 0 12.5 5.607 12.5 12.5v10.167c-2.347-.833-4.871-1.29-7.5-1.29h-184c-12.406 0-22.5 10.094-22.5 22.5v301.246c0 12.406 10.094 22.5 22.5 22.5h184c2.629 0 5.153-.458 7.5-1.29v10.167c0 6.893-5.607 12.5-12.5 12.5h-213.5c-4.136 0-7.5-3.364-7.5-7.5v-312.929c0-4.143-3.357-7.5-7.5-7.5s-7.5 3.357-7.5 7.5v312.929c0 12.406 10.094 22.5 22.5 22.5h213.5c7.875 0 14.982-3.333 20-8.655 5.018 5.323 12.125 8.655 20 8.655h213.5c12.406 0 22.5-10.094 22.5-22.5 0-76.542 0-297.151 0-374 0-12.406-10.094-22.5-22.5-22.5zm-241 68.25h-19c-4.143 0-7.5 3.357-7.5 7.5s3.357 7.5 7.5 7.5h19v38.4h-19c-4.143 0-7.5 3.357-7.5 7.5s3.357 7.5 7.5 7.5h19v38.399h-19c-4.143 0-7.5 3.357-7.5 7.5s3.357 7.5 7.5 7.5h19v38.4h-19c-4.143 0-7.5 3.357-7.5 7.5s3.357 7.5 7.5 7.5h19v38.399h-19c-4.143 0-7.5 3.357-7.5 7.5s3.357 7.5 7.5 7.5h19v38.4h-19c-4.143 0-7.5 3.357-7.5 7.5s3.357 7.5 7.5 7.5h19v9.873c0 4.136-3.364 7.5-7.5 7.5h-184c-4.136 0-7.5-3.364-7.5-7.5v-301.244c0-4.136 3.364-7.5 7.5-7.5h184c4.136 0 7.5 3.364 7.5 7.5zm248.5 328.25c0 4.136-3.364 7.5-7.5 7.5h-213.5c-6.893 0-12.5-5.607-12.5-12.5v-10.167c2.347.833 4.871 1.29 7.5 1.29h120.904c4.143 0 7.5-3.357 7.5-7.5s-3.357-7.5-7.5-7.5h-120.904c-4.136 0-7.5-3.364-7.5-7.5v-9.873h19c4.143 0 7.5-3.357 7.5-7.5s-3.357-7.5-7.5-7.5h-19v-38.4h19c4.143 0 7.5-3.357 7.5-7.5s-3.357-7.5-7.5-7.5h-19v-38.4h19c4.143 0 7.5-3.357 7.5-7.5s-3.357-7.5-7.5-7.5h-19v-38.4h19c4.143 0 7.5-3.357 7.5-7.5s-3.357-7.5-7.5-7.5h-19v-38.4h19c4.143 0 7.5-3.357 7.5-7.5s-3.357-7.5-7.5-7.5h-19c0-15.327 0-23.088 0-38.4h19c4.143 0 7.5-3.357 7.5-7.5s-3.357-7.5-7.5-7.5h-19v-9.373c0-4.136 3.364-7.5 7.5-7.5h184c4.136 0 7.5 3.364 7.5 7.5v9.373h-38.5c-5.79 0-10.5 4.71-10.5 10.5v35.833.001c0 5.79 4.71 10.5 10.5 10.5h38.5v235.039c0 4.136-3.364 7.5-7.5 7.5h-28.096c-4.143 0-7.5 3.357-7.5 7.5s3.357 7.5 7.5 7.5h28.096c12.406 0 22.5-10.094 22.5-22.5v-235.04h10.917c3.028 0 5.921-.58 8.583-1.624zm0-295c0 4.732-3.851 8.583-8.583 8.583h-59.917v-26.833h59.917c4.732 0 8.583 3.851 8.583 8.583zm0-31.626c-2.662-1.044-5.555-1.624-8.583-1.624h-10.917v-9.373c0-12.406-10.094-22.5-22.5-22.5h-184c-2.629 0-5.153.458-7.5 1.29v-10.167c0-6.893 5.607-12.5 12.5-12.5h213.5c4.136 0 7.5 3.364 7.5 7.5z"/><path d="m188.677 114.75h-107.677c-7.444 0-13.5 6.056-13.5 13.5v41.4c0 7.444 6.056 13.5 13.5 13.5h107.677c7.444 0 13.5-6.056 13.5-13.5v-41.4c0-7.444-6.056-13.5-13.5-13.5zm-1.5 53.4h-104.677v-38.4h104.677z"/><path d="m75 220.586h49.333c4.143 0 7.5-3.357 7.5-7.5s-3.357-7.5-7.5-7.5h-49.333c-4.143 0-7.5 3.357-7.5 7.5s3.357 7.5 7.5 7.5z"/><path d="m194.677 239.602h-119.677c-4.143 0-7.5 3.357-7.5 7.5s3.357 7.5 7.5 7.5h119.677c4.143 0 7.5-3.357 7.5-7.5s-3.358-7.5-7.5-7.5z"/><path d="m194.677 273.617h-119.677c-4.143 0-7.5 3.357-7.5 7.5s3.357 7.5 7.5 7.5h119.677c4.143 0 7.5-3.357 7.5-7.5s-3.358-7.5-7.5-7.5z"/><path d="m194.677 307.633h-119.677c-4.143 0-7.5 3.357-7.5 7.5s3.357 7.5 7.5 7.5h119.677c4.143 0 7.5-3.357 7.5-7.5s-3.358-7.5-7.5-7.5z"/><path d="m188.677 340.583h-107.677c-7.444 0-13.5 6.056-13.5 13.5v29.167c0 7.444 6.056 13.5 13.5 13.5h107.677c7.444 0 13.5-6.056 13.5-13.5v-29.167c0-7.444-6.056-13.5-13.5-13.5zm-1.5 41.167h-104.677v-26.167h104.677z"/><path d="m326.501 216.418h113.334c4.143 0 7.5-3.357 7.5-7.5s-3.357-7.5-7.5-7.5h-113.334c-4.143 0-7.5 3.357-7.5 7.5s3.357 7.5 7.5 7.5z"/><path d="m326.501 256.103h113.334c4.143 0 7.5-3.357 7.5-7.5s-3.357-7.5-7.5-7.5h-113.334c-4.143 0-7.5 3.357-7.5 7.5s3.357 7.5 7.5 7.5z"/><path d="m447.335 288.288c0-4.143-3.357-7.5-7.5-7.5h-113.334c-4.143 0-7.5 3.357-7.5 7.5s3.357 7.5 7.5 7.5h113.334c4.143 0 7.5-3.357 7.5-7.5z"/></g></g></svg>