<svg id="Capa_1" enable-background="new 0 0 512 512" height="512" viewBox="0 0 512 512" width="512" xmlns="http://www.w3.org/2000/svg"><g><g><path d="m236.517 7.5h-2.834-44.471-2.835c-11.79 0-21.347 9.558-21.347 21.347v39.653h2.835 87.165 2.835v-39.653c-.001-11.789-9.559-21.347-21.348-21.347z" fill="#365e7d"/><path d="m236.517 7.5h-28.347c11.79 0 21.347 9.558 21.347 21.347v39.653h28.347v-39.653c0-11.789-9.558-21.347-21.347-21.347z" fill="#2b4d66"/><path d="m392.623 484.5v-413.746c0-11.046-8.954-20-20-20h-322.353c-11.046 0-20 8.954-20 20v413.746c0 11.046 8.954 20 20 20h322.353c11.046 0 20-8.954 20-20z" fill="#e28086"/><path d="m362.623 469.5v-383.746c0-2.761-2.239-5-5-5h-292.353c-2.761 0-5 2.239-5 5v383.746c0 2.761 2.239 5 5 5h292.353c2.761 0 5-2.239 5-5z" fill="#e7ecf6"/><path d="m308.136 106.505v-59.505c0-4.971-4.029-9-9-9h-175.38c-4.97 0-9 4.029-9 9v59.505c0 4.97 4.03 9 9 9h175.38c4.971 0 9-4.03 9-9z" fill="#407093"/><path d="m375.458 50.754h-30c11.046 0 20 8.954 20 20v413.746c0 11.046-8.954 20-20 20h30c11.046 0 20-8.954 20-20v-413.746c0-11.046-8.955-20-20-20z" fill="#dd636e"/><path d="m360.458 80.754h-28.347c2.761 0 5 2.239 5 5v383.746c0 2.761-2.239 5-5 5h28.347c2.761 0 5-2.239 5-5v-383.746c0-2.761-2.239-5-5-5z" fill="#d8e2f1"/><path d="m301.971 38h-28.346c4.97 0 9 4.029 9 9v59.505c0 4.97-4.03 9-9 9h28.346c4.97 0 9-4.03 9-9v-59.505c0-4.971-4.03-9-9-9z" fill="#365e7d"/><path d="m479.818 227.239-48.315-65.956c-3.917-5.347-11.902-5.347-15.819 0l-48.314 65.956c-4.744 6.477-.119 15.599 7.909 15.599 0 0 1.21.03 19.373.03h.841v99.916c0 4.418 3.582 8 8 8h40.2c4.418 0 8-3.582 8-8v-99.916h.842c18.245 0 19.32-.03 19.373-.03 8.029-.001 12.655-9.122 7.91-15.599z" fill="#ecbe6b"/><path d="m479.818 227.239-48.315-65.956c-3.917-5.347-11.902-5.347-15.819 0l-6.264 8.551 42.051 57.405c4.744 6.477.119 15.599-7.909 15.599-.053 0-1.128.03-19.373.03h-.842v99.916c0 4.418-3.582 8-8 8h28.346c4.418 0 8-3.582 8-8v-99.916h.842c18.245 0 19.32-.03 19.373-.03 8.029-.001 12.655-9.122 7.91-15.599z" fill="#eab14d"/></g><g><path d="m315.864 157.328h-206c-4.143 0-7.5 3.357-7.5 7.5s3.357 7.5 7.5 7.5h206c4.143 0 7.5-3.357 7.5-7.5s-3.358-7.5-7.5-7.5z"/><path d="m315.864 221.078h-206c-4.143 0-7.5 3.357-7.5 7.5s3.357 7.5 7.5 7.5h206c4.143 0 7.5-3.357 7.5-7.5s-3.358-7.5-7.5-7.5z"/><path d="m315.864 284.828h-206c-4.143 0-7.5 3.357-7.5 7.5s3.357 7.5 7.5 7.5h206c4.143 0 7.5-3.357 7.5-7.5s-3.358-7.5-7.5-7.5z"/><path d="m315.864 348.578h-206c-4.143 0-7.5 3.357-7.5 7.5s3.357 7.5 7.5 7.5h206c4.143 0 7.5-3.357 7.5-7.5s-3.358-7.5-7.5-7.5z"/><path d="m315.864 412.328h-206c-4.143 0-7.5 3.357-7.5 7.5s3.357 7.5 7.5 7.5h206c4.143 0 7.5-3.357 7.5-7.5s-3.358-7.5-7.5-7.5z"/><path d="m485.869 222.807-14.773-20.168c-2.449-3.342-7.142-4.066-10.482-1.619-3.342 2.448-4.066 7.142-1.619 10.482l14.773 20.168c1.128 1.538.036 3.668-1.858 3.668-.035 0-.09.001-.125.001-1.973.029-18.163.028-20.09.028-4.143 0-7.5 3.357-7.5 7.5v99.916c0 .275-.225.5-.5.5h-40.2c-.275 0-.5-.225-.5-.5v-99.916c0-4.076-3.277-7.5-7.536-7.5-14.733 0-20.814-.029-20.178-.029-1.878 0-2.999-2.111-1.858-3.668l48.314-65.956c.922-1.258 2.795-1.258 3.717.001l12.857 17.553c2.448 3.341 7.144 4.067 10.482 1.619 3.342-2.448 4.066-7.142 1.619-10.482l-12.858-17.554c-6.922-9.447-20.999-9.448-27.919.001l-6.677 9.115v-95.213c0-15.163-12.337-27.5-27.5-27.5h-57.432c-1.703-7.296-8.247-12.754-16.055-12.754h-36.607v-1.652c0-15.907-12.941-28.848-28.847-28.848h-47.307c-15.906 0-28.847 12.941-28.847 28.848v1.652h-36.607c-7.807 0-14.351 5.458-16.055 12.754h-57.431c-15.163 0-27.5 12.337-27.5 27.5v413.746c0 15.163 12.337 27.5 27.5 27.5h53.29c4.143 0 7.5-3.357 7.5-7.5s-3.357-7.5-7.5-7.5h-53.29c-6.893 0-12.5-5.607-12.5-12.5v-413.746c0-6.893 5.607-12.5 12.5-12.5h56.986v15h-41.986c-6.893 0-12.5 5.607-12.5 12.5v383.746c0 6.893 5.607 12.5 12.5 12.5h295.188c6.893 0 12.5-5.607 12.5-12.5v-219.335c.856.115 1.986.172 2.265.173.516.007 2.786.022 12.735.027v234.135c0 6.893-5.607 12.5-12.5 12.5h-236.898c-4.143 0-7.5 3.357-7.5 7.5s3.357 7.5 7.5 7.5h236.897c15.163 0 27.5-12.337 27.5-27.5v-126.244c.179.006.355.027.536.027h40.2c8.547 0 15.5-6.953 15.5-15.5v-92.418c10.295-.005 12.376-.021 12.715-.027 9.551 0 17.321-7.78 17.321-17.343.001-3.663-1.161-7.185-3.36-10.188zm-97.911-152.053v115.688l-15 20.477v-121.165c0-6.893-5.607-12.5-12.5-12.5h-41.986v-15h56.986c6.892 0 12.5 5.607 12.5 12.5zm-265.702-23.754c0-.827.673-1.5 1.5-1.5h44.107c4.143 0 7.5-3.357 7.5-7.5v-9.152c0-7.636 6.212-13.848 13.847-13.848h47.307c7.635 0 13.847 6.212 13.847 13.848v9.152c0 4.143 3.357 7.5 7.5 7.5h44.107c.827 0 1.5.673 1.5 1.5v59.505c0 .827-.673 1.5-1.5 1.5-5.407 0-156.756 0-178.215 0-.827 0-1.5-.673-1.5-1.5 0-24.736 0-29.663 0-59.505zm235.702 420h-290.188v-378.746h39.486v18.251c0 9.1 7.404 16.5 16.5 16.5h178.215c9.098 0 16.5-7.402 16.5-16.5 0-6.667 0-11.583 0-18.251h39.486v378.746z"/></g></g></svg>