<svg id="Capa_1" enable-background="new 0 0 512 512" height="512" viewBox="0 0 512 512" width="512" xmlns="http://www.w3.org/2000/svg"><g><g><path d="m233.692 7.5h-44.471c-11.79 0-21.347 9.558-21.347 21.347v39.653h87.165v-39.653c0-11.789-9.557-21.347-21.347-21.347z" fill="#eab14d"/><path d="m236.527 7.5h-25.512c11.79 0 21.347 9.558 21.347 21.347v39.653h25.512v-39.653c0-11.789-9.557-21.347-21.347-21.347z" fill="#e7a52e"/><path d="m392.633 484.5v-413.746c0-11.046-8.954-20-20-20h-322.353c-11.046 0-20 8.954-20 20v413.746c0 11.046 8.954 20 20 20h322.353c11.046 0 20-8.954 20-20z" fill="#407093"/><path d="m362.633 469.5v-383.746c0-2.761-2.239-5-5-5h-292.353c-2.761 0-5 2.239-5 5v383.746c0 2.761 2.239 5 5 5h292.353c2.762 0 5-2.239 5-5z" fill="#e7ecf6"/><path d="m308.147 106.505v-59.505c0-4.971-4.029-9-9-9h-175.38c-4.97 0-9 4.029-9 9v59.505c0 4.97 4.03 9 9 9h175.38c4.97 0 9-4.03 9-9z" fill="#ecbe6b"/><path d="m375.468 50.754h-30c11.046 0 20 8.954 20 20v413.746c0 11.046-8.954 20-20 20h30c11.046 0 20-8.954 20-20v-413.746c0-11.046-8.954-20-20-20z" fill="#365e7d"/><path d="m360.468 80.754h-25.512c2.761 0 5 2.239 5 5v383.746c0 2.761-2.239 5-5 5h25.512c2.761 0 5-2.239 5-5v-383.746c0-2.761-2.239-5-5-5z" fill="#d8e2f1"/><path d="m301.981 38h-25.512c4.971 0 9 4.029 9 9v59.505c0 4.97-4.029 9-9 9h25.512c4.97 0 9-4.03 9-9v-59.505c0-4.971-4.029-9-9-9z" fill="#eab14d"/><path d="m367.38 280.817 48.315 65.956c3.917 5.347 11.902 5.347 15.819 0l48.314-65.956c4.744-6.477.119-15.599-7.909-15.599 0 0-1.21-.03-19.373-.03h-.841v-99.916c0-4.418-3.582-8-8-8h-40.2c-4.418 0-8 3.582-8 8v99.916h-.842c-18.245 0-19.32.03-19.373.03-8.029.001-12.654 9.122-7.91 15.599z" fill="#e28086"/><path d="m471.919 265.219s-1.21-.03-19.373-.03h-.841v-99.916c0-4.418-3.582-8-8-8h-25.512c4.418 0 8 3.582 8 8v99.916h.841c18.164 0 19.374.03 19.374.03 8.028 0 12.654 9.122 7.909 15.599l-43.468 59.34 4.846 6.616c3.917 5.347 11.902 5.347 15.819 0l48.314-65.956c4.745-6.478.12-15.599-7.909-15.599z" fill="#dd636e"/></g><g><path d="m109.874 172.328h206c4.142 0 7.5-3.357 7.5-7.5s-3.358-7.5-7.5-7.5h-206c-4.142 0-7.5 3.357-7.5 7.5s3.358 7.5 7.5 7.5z"/><path d="m109.874 236.078h206c4.142 0 7.5-3.357 7.5-7.5s-3.358-7.5-7.5-7.5h-206c-4.142 0-7.5 3.357-7.5 7.5s3.358 7.5 7.5 7.5z"/><path d="m109.874 299.828h206c4.142 0 7.5-3.357 7.5-7.5s-3.358-7.5-7.5-7.5h-206c-4.142 0-7.5 3.357-7.5 7.5s3.358 7.5 7.5 7.5z"/><path d="m109.874 363.578h206c4.142 0 7.5-3.357 7.5-7.5s-3.358-7.5-7.5-7.5h-206c-4.142 0-7.5 3.357-7.5 7.5s3.358 7.5 7.5 7.5z"/><path d="m109.874 427.328h206c4.142 0 7.5-3.357 7.5-7.5s-3.358-7.5-7.5-7.5h-206c-4.142 0-7.5 3.357-7.5 7.5s3.358 7.5 7.5 7.5z"/><path d="m471.981 257.72c-.415-.007-2.511-.024-12.807-.029v-92.418c0-8.547-6.953-15.5-15.5-15.5h-40.2c-.171 0-.337.02-.507.026v-79.045c0-15.163-12.336-27.5-27.5-27.5h-57.432c-1.703-7.296-8.247-12.754-16.055-12.754h-36.607v-1.652c.001-15.907-12.94-28.848-28.846-28.848h-47.306c-15.906 0-28.847 12.941-28.847 28.848v1.652h-36.607c-7.808 0-14.351 5.458-16.055 12.754h-57.432c-15.164 0-27.5 12.337-27.5 27.5v413.746c0 15.163 12.336 27.5 27.5 27.5h325.188c15.164 0 27.5-12.337 27.5-27.5v-142.369l6.647 9.075c6.92 9.445 20.999 9.447 27.919-.001l12.858-17.553c2.448-3.341 1.723-8.034-1.618-10.482-3.341-2.447-8.035-1.724-10.482 1.619l-12.858 17.553c-.919 1.256-2.795 1.259-3.718 0l-48.314-65.957c-.001-.002-.002-.004-.004-.006-1.068-1.468-.053-3.66 1.862-3.66.041 0 .102-.001.143-.001 1.035-.029 18.994-.029 20.065-.029h.007c4.142 0 7.5-3.357 7.5-7.5v-99.916c0-.275.224-.5.5-.5h40.2c.276 0 .5.225.5.5v99.916c0 4.14 3.358 7.5 7.5 7.5 1.927 0 18.042-.001 20.086.029.037 0 .092.001.128.001 1.875 0 2.999 2.109 1.859 3.667l-14.773 20.168c-2.448 3.341-1.723 8.034 1.618 10.482 3.342 2.447 8.035 1.723 10.482-1.619l14.773-20.167c8.414-11.485.068-27.532-13.867-27.53zm-84.013-186.966v186.936c-13.45.009-13.531-.012-15 .184v-172.12c0-6.893-5.607-12.5-12.5-12.5h-41.986v-15h56.986c6.892 0 12.5 5.607 12.5 12.5zm-280.701 35.751c0 7.961 5.667 14.623 13.179 16.164 2.495.512 182.158.554 184.857 0 7.512-1.541 13.179-8.203 13.179-16.164v-18.251h39.486v378.746h-290.188v-378.746h39.486v18.251zm15-59.505c0-.827.673-1.5 1.5-1.5h44.107c4.142 0 7.5-3.357 7.5-7.5v-9.152c0-7.636 6.211-13.848 13.847-13.848h47.306c7.635 0 13.847 6.212 13.847 13.848v9.152c0 4.143 3.358 7.5 7.5 7.5h44.107c.827 0 1.5.673 1.5 1.5v59.505c0 .827-.673 1.5-1.5 1.5h-178.214c-.827 0-1.5-.673-1.5-1.5 0-10.818 0-46.349 0-59.505zm265.701 437.5c0 6.893-5.607 12.5-12.5 12.5h-325.188c-6.893 0-12.5-5.607-12.5-12.5v-413.746c0-6.893 5.607-12.5 12.5-12.5h56.986v15h-41.986c-6.893 0-12.5 5.607-12.5 12.5v383.746c0 6.893 5.607 12.5 12.5 12.5h295.188c6.893 0 12.5-5.607 12.5-12.5v-168.323l15 20.477z"/></g></g></svg>