<svg id="Capa_1" enable-background="new 0 0 512 512" height="512" viewBox="0 0 512 512" width="512" xmlns="http://www.w3.org/2000/svg"><g><g><path d="m435.759 484.5v-413.746c0-11.046-8.954-20-20-20h-322.353c-11.046 0-20 8.954-20 20v413.746c0 11.046 8.954 20 20 20h322.353c11.046 0 20-8.954 20-20z" fill="#407093"/><path d="m276.818 7.5h-44.471c-11.79 0-21.347 9.558-21.347 21.347v39.653h87.165v-39.653c0-11.789-9.557-21.347-21.347-21.347z" fill="#eab14d"/><path d="m103.406 469.5v-383.746c0-2.761 2.239-5 5-5h295.188c2.761 0 5 2.239 5 5v383.746c0 2.761-2.239 5-5 5h-295.188c-2.761 0-5-2.239-5-5z" fill="#e7ecf6"/><path d="m279.653 7.5h-25.512c11.79 0 21.347 9.558 21.347 21.347v39.653h25.512v-39.653c0-11.789-9.558-21.347-21.347-21.347z" fill="#e7a52e"/><path d="m418.594 50.754h-30c11.046 0 20 8.954 20 20v413.746c0 11.046-8.954 20-20 20h30c11.046 0 20-8.954 20-20v-413.746c0-11.046-8.955-20-20-20z" fill="#365e7d"/><path d="m403.594 80.754h-25.512c2.761 0 5 2.239 5 5v383.746c0 2.761-2.239 5-5 5h25.512c2.761 0 5-2.239 5-5v-383.746c0-2.761-2.239-5-5-5z" fill="#d8e2f1"/><path d="m351.272 106.505v-59.505c0-4.971-4.029-9-9-9h-175.38c-4.971 0-9 4.029-9 9v59.505c0 4.97 4.029 9 9 9h175.38c4.971 0 9-4.03 9-9z" fill="#ecbe6b"/><path d="m345.107 38h-25.512c4.97 0 9 4.029 9 9v59.505c0 4.97-4.03 9-9 9h25.512c4.971 0 9-4.03 9-9v-59.505c0-4.971-4.029-9-9-9z" fill="#eab14d"/><circle cx="256" cy="411.656" fill="#dd636e" r="92.844"/><g fill="#c4e2ff"><path d="m256 345.319c12.607 0 24.403 3.537 34.45 9.668l-91.119 91.119c-6.131-10.048-9.668-21.843-9.668-34.45 0-36.579 29.758-66.337 66.337-66.337z"/><path d="m256 477.992c-12.607 0-24.403-3.537-34.45-9.668l91.119-91.119c6.131 10.048 9.668 21.843 9.668 34.45-.001 36.579-29.759 66.337-66.337 66.337z"/></g></g><g><path d="m294.357 348.585c-11.542-7.043-24.806-10.766-38.357-10.766-40.713 0-73.836 33.123-73.836 73.837 0 13.551 3.723 26.814 10.766 38.356 2.521 4.132 8.262 4.84 11.706 1.397l91.119-91.119c3.431-3.433 2.742-9.177-1.398-11.705zm-92.995 84.885c-2.763-6.902-4.198-14.303-4.198-21.813 0-32.442 26.394-58.837 58.836-58.837 7.511 0 14.911 1.436 21.813 4.198z"/><path d="m319.071 373.299c-2.534-4.151-8.282-4.818-11.706-1.396l-91.119 91.118c-3.439 3.441-2.735 9.184 1.396 11.706 11.542 7.043 24.806 10.766 38.357 10.766 40.713 0 73.836-33.123 73.836-73.836.001-13.553-3.721-26.816-10.764-38.358zm-63.071 97.193c-7.511 0-14.911-1.436-21.813-4.198l76.452-76.451c2.762 6.902 4.198 14.302 4.198 21.813-.001 32.443-26.395 58.836-58.837 58.836z"/><path d="m438.594 184.195c4.142 0 7.5-3.357 7.5-7.5v-105.941c0-15.163-12.336-27.5-27.5-27.5h-57.432c-1.703-7.296-8.247-12.754-16.055-12.754h-36.607v-1.652c0-15.907-12.941-28.848-28.847-28.848h-47.306c-15.906 0-28.847 12.941-28.847 28.848v1.652h-36.607c-8.264 0-15.108 6.113-16.298 14.05-1.201-.818-2.652-1.296-4.214-1.296h-52.975c-15.164 0-27.5 12.337-27.5 27.5v413.746c0 15.163 12.336 27.5 27.5 27.5h325.188c15.164 0 27.5-12.337 27.5-27.5v-272.805c0-4.143-3.358-7.5-7.5-7.5s-7.5 3.357-7.5 7.5v272.805c0 6.893-5.607 12.5-12.5 12.5h-109.877c6.846-4.244 13.145-9.287 18.767-15h76.109c6.893 0 12.5-5.607 12.5-12.5v-383.746c0-6.893-5.607-12.5-12.5-12.5h-41.986v-15h56.987c6.893 0 12.5 5.607 12.5 12.5v105.941c0 4.143 3.358 7.5 7.5 7.5zm-273.201-137.195c0-.827.673-1.5 1.5-1.5h44.107c4.142 0 7.5-3.357 7.5-7.5v-9.152c0-7.636 6.212-13.848 13.847-13.848h47.306c7.635 0 13.847 6.212 13.847 13.848v9.152c0 4.143 3.358 7.5 7.5 7.5h44.107c.827 0 1.5.673 1.5 1.5v59.505c0 .827-.673 1.5-1.5 1.5h-178.214c-.827 0-1.5-.673-1.5-1.5 0-5.936 0-52.878 0-59.505zm90.607 450c-46.878 0-85.211-38.053-85.338-85.111 0-.078-.005-.155-.005-.233 0-47.059 38.285-85.344 85.344-85.344s85.344 38.285 85.344 85.344c0 .078-.005.155-.005.233-.13 47.079-38.483 85.111-85.34 85.111zm145.094-408.746v378.746h-61.384c10.616-16.025 16.634-35.295 16.634-55.344 0-55.33-45.014-100.345-100.344-100.345s-100.344 45.015-100.344 100.345c0 19.923 5.947 39.212 16.634 55.344h-61.384v-120.078c0-4.143-3.358-7.5-7.5-7.5s-7.5 3.357-7.5 7.5v122.578c0 6.893 5.607 12.5 12.5 12.5h76.109c5.623 5.713 11.922 10.756 18.767 15h-109.876c-6.893 0-12.5-5.607-12.5-12.5v-413.746c0-6.893 5.607-12.5 12.5-12.5h52.975c1.477 0 2.851-.433 4.012-1.17v16.17h-41.987c-6.893 0-12.5 5.607-12.5 12.5v226.168c0 4.143 3.358 7.5 7.5 7.5s7.5-3.357 7.5-7.5v-223.668h39.486v18.251c0 9.098 7.402 16.5 16.5 16.5 190.512 0 179.101.164 181.536-.336 7.512-1.541 13.179-8.203 13.179-16.164v-18.251z"/><path d="m352.69 163.542h-193.38c-4.142 0-7.5 3.357-7.5 7.5s3.358 7.5 7.5 7.5h193.38c4.142 0 7.5-3.357 7.5-7.5s-3.358-7.5-7.5-7.5z"/><path d="m352.69 217.873h-193.38c-4.142 0-7.5 3.357-7.5 7.5s3.358 7.5 7.5 7.5h193.38c4.142 0 7.5-3.357 7.5-7.5s-3.358-7.5-7.5-7.5z"/><path d="m352.69 272.203h-193.38c-4.142 0-7.5 3.357-7.5 7.5s3.358 7.5 7.5 7.5h193.38c4.142 0 7.5-3.357 7.5-7.5s-3.358-7.5-7.5-7.5z"/></g></g></svg>