<svg id="Capa_1" enable-background="new 0 0 512 512" height="512" viewBox="0 0 512 512" width="512" xmlns="http://www.w3.org/2000/svg"><g><g><path d="m387.232 484.5v-413.746c0-11.046-8.954-20-20-20h-322.353c-11.046 0-20 8.954-20 20v413.746c0 11.046 8.954 20 20 20h322.353c11.046 0 20-8.954 20-20z" fill="#e28086"/><path d="m357.232 469.5v-383.746c0-2.761-2.239-5-5-5h-292.353c-2.761 0-5 2.239-5 5v383.746c0 2.761 2.239 5 5 5h292.353c2.761 0 5-2.239 5-5z" fill="#e7ecf6"/><path d="m228.291 7.5h-44.471c-11.79 0-21.347 9.558-21.347 21.347v39.653h87.166v-39.653c-.001-11.789-9.558-21.347-21.348-21.347z" fill="#365e7d"/><path d="m231.126 7.5h-25.512c11.79 0 21.347 9.558 21.347 21.347v39.653h25.512v-39.653c0-11.789-9.557-21.347-21.347-21.347z" fill="#2b4d66"/><path d="m355.067 80.754h-25.512c2.761 0 5 2.239 5 5v383.746c0 2.761-2.239 5-5 5h25.512c2.762 0 5-2.239 5-5v-383.746c0-2.761-2.239-5-5-5z" fill="#d8e2f1"/><path d="m370.067 50.754h-30c11.046 0 20 8.954 20 20v413.746c0 11.046-8.954 20-20 20h30c11.045 0 20-8.954 20-20v-413.746c0-11.046-8.954-20-20-20z" fill="#dd636e"/><path d="m481.502 318.863c-27.836-29.254-24.739-59.511-24.739-81.657 0-37.143-30.008-65.657-63.44-59.92 26.3 4.513 46.433 29.617 46.433 59.92 0 22.146-3.098 52.403 24.739 81.657 2.917 3.065.636 7.978-3.705 7.978h17.008c4.34 0 6.621-4.912 3.704-7.978z" fill="#ffc344"/><path d="m485.812 318.863c-27.836-29.254-24.739-59.511-24.739-81.657 0-33.497-24.599-60.646-54.937-60.646-30.341 0-54.936 27.152-54.936 60.646 0 21.65 3.252 52.24-24.739 81.657-2.917 3.066-.636 7.977 3.705 7.977h151.942c4.34.001 6.621-4.911 3.704-7.977z" fill="#ecbe6b"/><path d="m422.179 179.195v-14.216c0-8.86-7.182-16.042-16.042-16.042s-16.042 7.182-16.042 16.042v14.216c10.302-3.468 21.516-3.557 32.084 0z" fill="#eab14d"/><path d="m385.577 326.841v15.663c0 11.355 9.205 20.56 20.56 20.56s20.56-9.205 20.56-20.56v-15.663z" fill="#eab14d"/><g><path d="m397.633 151.394c4.522 2.837 7.538 7.853 7.538 13.585v11.602c5.697-.111 11.441.741 17.008 2.615v-14.217c0-12.585-13.88-20.277-24.546-13.585z" fill="#e7a52e"/></g><path d="m426.696 326.841h-41.119c0 17.964-.026 15.581.068 17.008h40.983c.094-1.452.068.985.068-17.008z" fill="#e7a52e"/><path d="m485.812 318.863c-27.836-29.254-24.739-59.511-24.739-81.657 0-37.695-30.908-66.478-64.858-59.641 25.6 5.158 45.015 29.886 45.015 59.641 0 22.146-3.097 52.403 24.739 81.657 2.917 3.065.636 7.978-3.704 7.978h19.842c4.341 0 6.622-4.912 3.705-7.978z" fill="#eab14d"/><path d="m302.746 106.505v-59.505c0-4.971-4.03-9-9-9h-175.38c-4.971 0-9 4.029-9 9v59.505c0 4.97 4.029 9 9 9h175.38c4.97 0 9-4.03 9-9z" fill="#407093"/><path d="m296.58 38h-25.512c4.97 0 9 4.029 9 9v59.505c0 4.97-4.03 9-9 9h25.512c4.971 0 9-4.03 9-9v-59.505c0-4.971-4.029-9-9-9z" fill="#365e7d"/></g><g><path d="m491.246 313.693c-19.293-20.275-22.313-40.972-22.722-58.543-.095-4.081-3.434-7.325-7.495-7.325-.059 0-.118.001-.178.002-4.141.097-7.42 3.532-7.323 7.673.419 17.995 3.472 41.184 22.638 63.841-7.293 0-132.721 0-140.053 0 33.264-39.238 17.489-76.359 25.554-100.625 6.58-19.798 23.727-34.655 44.47-34.655 20.987-.001 39.726 15.76 45.567 38.327 1.038 4.01 5.124 6.42 9.141 5.381 4.01-1.038 6.419-5.131 5.381-9.141-5.317-20.538-19.134-36.704-36.547-44.488v-9.161c0-12.981-10.561-23.542-23.542-23.542-3.023 0-5.912.579-8.569 1.622v-72.305c0-15.163-12.337-27.5-27.5-27.5h-57.432c-1.703-7.296-8.247-12.754-16.055-12.754h-36.607v-1.652c-.001-15.907-12.942-28.848-28.848-28.848h-47.306c-15.906 0-28.847 12.941-28.847 28.848v1.652h-36.607c-7.808 0-14.351 5.458-16.055 12.754h-57.432c-15.164 0-27.5 12.337-27.5 27.5v293.834c0 4.143 3.358 7.5 7.5 7.5s7.5-3.357 7.5-7.5v-293.834c0-6.893 5.607-12.5 12.5-12.5h56.987v15h-41.987c-6.893 0-12.5 5.607-12.5 12.5v383.746c0 6.893 5.607 12.5 12.5 12.5h295.188c6.893 0 12.5-5.607 12.5-12.5v-135.159h10.51c0 8.263-.877 15.009 4.444 23.287.016.025.03.052.046.078v126.794c0 6.893-5.607 12.5-12.5 12.5h-325.188c-6.893 0-12.5-5.607-12.5-12.5v-84.912c0-4.143-3.358-7.5-7.5-7.5s-7.5 3.357-7.5 7.5v84.912c0 15.163 12.336 27.5 27.5 27.5h325.188c15.163 0 27.5-12.337 27.5-27.5v-115.28c2.703.869 5.581 1.343 8.569 1.343 15.472 0 28.06-12.588 28.06-28.06v-8.163h47.912c6.899 0 12.513-5.519 12.513-12.301 0-3.097-1.201-6.062-3.375-8.346zm-93.652-148.714c0-4.71 3.832-8.542 8.542-8.542s8.542 3.832 8.542 8.542v4.708c-2.836-.43-5.689-.645-8.542-.645-2.854 0-5.706.215-8.542.645zm-15.027-94.225v103.334c-.229.102-.451.218-.679.323-.035.016-.07.034-.106.05-5.119 2.365-9.895 5.447-14.215 9.151v-97.858c0-6.893-5.607-12.5-12.5-12.5h-41.986v-15h56.986c6.892 0 12.5 5.607 12.5 12.5zm-265.701-23.754c0-.827.673-1.5 1.5-1.5h44.107c4.142 0 7.5-3.357 7.5-7.5v-9.152c0-7.636 6.212-13.848 13.847-13.848h47.306c7.635 0 13.847 6.212 13.847 13.848v9.152c0 4.143 3.358 7.5 7.5 7.5h44.107c.827 0 1.5.673 1.5 1.5v59.505c0 .827-.673 1.5-1.5 1.5h-178.214c-.827 0-1.5-.673-1.5-1.5 0-24.736 0-29.663 0-59.505zm235.701 420h-290.188v-378.746h39.487v18.251c0 9.101 7.405 16.5 16.5 16.5h178.214c9.095 0 16.5-7.399 16.5-16.5v-18.251h39.486v113.94c-5.899 10.732-8.867 22.926-8.867 35.013 0 20.116 2.725 46.152-18.437 71.716-.064.078-.126.155-.191.233-2.971 3.566-11.832 10.328-5.261 19.781 2.352 3.424 6.268 5.405 10.355 5.405h22.401v132.658zm66.629-124.496c0 7.201-5.858 13.06-13.06 13.06-7.275 0-13.06-5.974-13.06-13.06v-8.163h26.119v8.163z"/><path d="m104.473 172.328h206c4.143 0 7.5-3.357 7.5-7.5s-3.357-7.5-7.5-7.5h-206c-4.142 0-7.5 3.357-7.5 7.5s3.358 7.5 7.5 7.5z"/><path d="m104.473 236.078h206c4.143 0 7.5-3.357 7.5-7.5s-3.357-7.5-7.5-7.5h-206c-4.142 0-7.5 3.357-7.5 7.5s3.358 7.5 7.5 7.5z"/><path d="m104.473 299.828h206c4.143 0 7.5-3.357 7.5-7.5s-3.357-7.5-7.5-7.5h-206c-4.142 0-7.5 3.357-7.5 7.5s3.358 7.5 7.5 7.5z"/><path d="m310.473 348.578h-206c-4.142 0-7.5 3.357-7.5 7.5s3.358 7.5 7.5 7.5h206c4.143 0 7.5-3.357 7.5-7.5s-3.357-7.5-7.5-7.5z"/><path d="m310.473 412.328h-206c-4.142 0-7.5 3.357-7.5 7.5s3.358 7.5 7.5 7.5h206c4.143 0 7.5-3.357 7.5-7.5s-3.357-7.5-7.5-7.5z"/></g></g></svg>