<svg id="Capa_1" enable-background="new 0 0 512 512" height="512" viewBox="0 0 512 512" width="512" xmlns="http://www.w3.org/2000/svg"><g><g><path d="m435.759 484.5v-413.746c0-11.046-8.954-20-20-20h-322.353c-11.046 0-20 8.954-20 20v413.746c0 11.046 8.954 20 20 20h322.353c11.046 0 20-8.954 20-20z" fill="#407093"/><path d="m276.818 7.5h-44.471c-11.79 0-21.347 9.558-21.347 21.347v39.653h87.165v-39.653c0-11.789-9.557-21.347-21.347-21.347z" fill="#eab14d"/><path d="m103.406 469.5v-383.746c0-2.761 2.239-5 5-5h295.188c2.761 0 5 2.239 5 5v383.746c0 2.761-2.239 5-5 5h-295.188c-2.761 0-5-2.239-5-5z" fill="#e7ecf6"/><path d="m279.653 7.5h-25.512c11.79 0 21.347 9.558 21.347 21.347v39.653h25.512v-39.653c0-11.789-9.557-21.347-21.347-21.347z" fill="#e7a52e"/><path d="m418.594 50.754h-30c11.046 0 20 8.954 20 20v413.746c0 11.046-8.954 20-20 20h30c11.046 0 20-8.954 20-20v-413.746c0-11.046-8.954-20-20-20z" fill="#365e7d"/><path d="m403.594 80.754h-25.512c2.761 0 5 2.239 5 5v383.746c0 2.761-2.239 5-5 5h25.512c2.761 0 5-2.239 5-5v-383.746c0-2.761-2.239-5-5-5z" fill="#d8e2f1"/><path d="m351.272 106.505v-59.505c0-4.971-4.029-9-9-9h-175.38c-4.971 0-9 4.029-9 9v59.505c0 4.97 4.029 9 9 9h175.38c4.971 0 9-4.03 9-9z" fill="#ecbe6b"/><path d="m345.107 38h-25.512c4.97 0 9 4.029 9 9v59.505c0 4.97-4.03 9-9 9h25.512c4.971 0 9-4.03 9-9v-59.505c0-4.971-4.029-9-9-9z" fill="#eab14d"/><path d="m246.102 286.51-16.847 34.137c-1.608 3.258-4.716 5.516-8.311 6.038l-37.672 5.474c-9.054 1.316-12.669 12.442-6.117 18.828l27.26 26.572c2.602 2.536 3.789 6.189 3.175 9.77l-6.435 37.52c-1.547 9.017 7.918 15.893 16.016 11.636l33.695-17.714c3.216-1.691 7.057-1.691 10.273 0l33.695 17.714c8.098 4.257 17.562-2.619 16.016-11.636l-6.435-37.52c-.614-3.581.573-7.234 3.175-9.77l27.26-26.572c6.551-6.386 2.936-17.512-6.117-18.828l-37.672-5.474c-3.595-.522-6.703-2.78-8.311-6.038l-16.847-34.137c-4.054-8.204-15.752-8.204-19.801 0z" fill="#ecbe6b"/><g><path d="m334.846 350.986c6.551-6.386 2.936-17.512-6.118-18.828l-37.672-5.474c-3.595-.522-6.703-2.781-8.311-6.038l-16.848-34.137c-4.049-8.204-15.748-8.204-19.797 0l-2.858 5.79 13.99 28.346c1.608 3.258 4.716 5.516 8.311 6.038l37.672 5.474c9.054 1.315 12.669 12.442 6.117 18.828l-27.26 26.572c-2.601 2.536-3.789 6.189-3.174 9.77l6.435 37.52c.389 2.271.079 4.405-.73 6.26l10.226 5.376c8.098 4.257 17.562-2.619 16.016-11.636l-6.435-37.52c-.614-3.581.573-7.234 3.175-9.77z" fill="#eab14d"/></g></g><g><path d="m329.807 324.736-37.671-5.474c-1.153-.168-2.148-.891-2.664-1.936l-16.848-34.137c-6.799-13.773-26.456-13.77-33.248 0l-16.848 34.138c-.516 1.044-1.511 1.767-2.663 1.935l-37.673 5.474c-15.377 2.235-21.163 21.003-10.274 31.621l27.26 26.57c.68.663 1.069 1.587 1.069 2.534 0 .198-.018.4-.051.599l-6.436 37.519c-.184 1.067-.276 2.147-.276 3.211 0 13.769 14.725 22.871 27.175 16.333l33.696-17.716c1.006-.53 2.279-.531 3.291.001l33.694 17.715c12.451 6.543 27.175-2.568 27.175-16.333 0-1.062-.093-2.142-.276-3.21l-6.435-37.517c-.034-.201-.052-.403-.052-.603 0-.947.39-1.87 1.069-2.532l27.26-26.572c10.892-10.617 5.104-29.388-10.274-31.62zm-.196 20.879-27.259 26.571c-3.559 3.468-5.6 8.307-5.6 13.274 0 1.044.09 2.099.268 3.135l6.435 37.519c.04.233.061.461.061.676 0 2.055-1.869 3.486-3.546 3.486-.551 0-1.105-.145-1.648-.431l-33.694-17.715c-2.648-1.393-5.632-2.129-8.626-2.129-2.997 0-5.981.736-8.628 2.129l-33.692 17.714c-.545.286-1.101.432-1.65.432-1.677 0-3.546-1.432-3.546-3.486 0-.216.021-.442.06-.675l6.437-37.522c.177-1.033.267-2.087.267-3.131 0-4.967-2.04-9.806-5.599-13.275l-27.26-26.57c-2.129-2.077-.92-5.617 1.961-6.036l37.673-5.474c6.039-.878 11.257-4.669 13.957-10.141l16.848-34.137c0-.001.001-.001.001-.002 1.298-2.632 5.044-2.633 6.345.002l16.848 34.136c2.7 5.473 7.918 9.264 13.958 10.142l37.672 5.474c2.883.418 4.086 3.963 1.957 6.034z"/><path d="m418.594 43.254h-57.432c-1.703-7.296-8.247-12.754-16.055-12.754h-36.607v-1.652c0-15.907-12.941-28.848-28.848-28.848h-47.305c-15.906 0-28.847 12.941-28.847 28.848v1.652h-36.607c-7.807 0-14.351 5.458-16.055 12.754h-57.432c-15.163 0-27.5 12.337-27.5 27.5v413.746c0 15.163 12.337 27.5 27.5 27.5h91.423c4.143 0 7.5-3.357 7.5-7.5s-3.357-7.5-7.5-7.5h-91.423c-6.893 0-12.5-5.607-12.5-12.5v-413.746c0-6.893 5.607-12.5 12.5-12.5h56.986v15h-41.986c-6.893 0-12.5 5.607-12.5 12.5v383.746c0 6.893 5.607 12.5 12.5 12.5h295.188c6.893 0 12.5-5.607 12.5-12.5v-383.746c0-6.893-5.607-12.5-12.5-12.5h-41.986v-15h56.986c6.893 0 12.5 5.607 12.5 12.5v413.746c0 6.893-5.607 12.5-12.5 12.5h-198.765c-4.143 0-7.5 3.357-7.5 7.5s3.357 7.5 7.5 7.5h198.765c15.163 0 27.5-12.337 27.5-27.5v-413.746c0-15.163-12.337-27.5-27.5-27.5zm-253.201 3.746c0-.827.673-1.5 1.5-1.5h44.107c4.143 0 7.5-3.357 7.5-7.5v-9.152c0-7.636 6.212-13.848 13.848-13.848h47.305c7.636 0 13.848 6.212 13.848 13.848v9.152c0 4.143 3.357 7.5 7.5 7.5h44.107c.827 0 1.5.673 1.5 1.5 0 62.389.262 59.761-.377 60.489-.214.246-.426.358-.655.434-.139.046-.29.082-.468.082h-178.215c-.827 0-1.5-.673-1.5-1.5 0-24.736 0-29.663 0-59.505zm235.701 420h-290.188v-378.746h39.486v18.251c0 7.961 5.667 14.623 13.179 16.164 1.073.22 2.184.336 3.321.336h178.215c5.789 0 11.285-3.121 14.241-8.165.056-.096.101-.195.152-.292 2.702-4.816 2.107-7.004 2.107-26.294h39.486v378.746z"/><path d="m153.446 171.695c-4.143 0-7.5 3.357-7.5 7.5s3.357 7.5 7.5 7.5h205.107c4.143 0 7.5-3.357 7.5-7.5s-3.357-7.5-7.5-7.5z"/><path d="m358.554 228.388h-205.108c-4.143 0-7.5 3.357-7.5 7.5s3.357 7.5 7.5 7.5h205.107c4.143 0 7.5-3.357 7.5-7.5s-3.357-7.5-7.499-7.5z"/></g></g></svg>