<svg id="Capa_1" enable-background="new 0 0 512 512" height="512" viewBox="0 0 512 512" width="512" xmlns="http://www.w3.org/2000/svg"><g><g><path d="m335.105 488.736c-8.077 2.164-16.38-2.629-18.544-10.707l-64.531-240.832c-2.164-8.077 2.629-16.38 10.707-18.544 8.077-2.164 16.38 2.629 18.544 10.707l64.531 240.832c2.163 8.077-2.63 16.379-10.707 18.544z" fill="#eab14d"/><path d="m176.895 488.736c8.077 2.164 16.38-2.629 18.544-10.707l64.531-240.832c2.164-8.077-2.629-16.38-10.707-18.544-8.077-2.164-16.38 2.629-18.544 10.707l-64.531 240.832c-2.164 8.077 2.63 16.379 10.707 18.544z" fill="#eab14d"/><path d="m213.909 409.102 10.986-41h-31.351l-10.986 41z" fill="#e7a52e"/><path d="m298.091 409.102h31.351l-10.986-41h-31.351z" fill="#e7a52e"/><path d="m489 356.755h-469c-7.732 0-14-6.268-14-14v-306c0-7.732 6.268-14 14-14h469c7.732 0 14 6.268 14 14v306c0 7.732-6.268 14-14 14z" fill="#407093"/><g fill="#e28086"><path d="m105.365 294.755h-36.01c-2.713 0-4.912-2.199-4.912-4.912v-172.227c0-2.713 2.199-4.912 4.912-4.912h36.01c2.713 0 4.912 2.199 4.912 4.912v172.227c0 2.713-2.199 4.912-4.912 4.912z"/><path d="m186.206 294.755h-36.01c-2.713 0-4.912-2.199-4.912-4.912v-131.008c0-2.713 2.199-4.912 4.912-4.912h36.01c2.713 0 4.912 2.199 4.912 4.912v131.008c-.001 2.713-2.2 4.912-4.912 4.912z"/><path d="m267.046 294.755h-36.01c-2.713 0-4.912-2.199-4.912-4.912v-81.202c0-2.713 2.199-4.912 4.912-4.912h36.01c2.713 0 4.912 2.199 4.912 4.912v81.202c0 2.713-2.199 4.912-4.912 4.912z"/></g><path d="m442.645 294.755h-95.287c-2.713 0-4.912-2.199-4.912-4.912v-60.592c0-2.713 2.199-4.912 4.912-4.912h95.287c2.713 0 4.912 2.199 4.912 4.912v60.592c0 2.713-2.199 4.912-4.912 4.912z" fill="#e7a52e"/><path d="m489 22.755h-28.346c7.732 0 14 6.268 14 14v306c0 7.732-6.268 14-14 14h28.346c7.732 0 14-6.268 14-14v-306c0-7.732-6.268-14-14-14z" fill="#365e7d"/><g><path d="m490.5 364.255h-469c-11.855 0-21.5-9.645-21.5-21.5v-306c0-11.855 9.645-21.5 21.5-21.5h469c11.855 0 21.5 9.645 21.5 21.5v306c0 11.856-9.645 21.5-21.5 21.5zm-469-334c-3.584 0-6.5 2.916-6.5 6.5v306c0 3.584 2.916 6.5 6.5 6.5h469c3.584 0 6.5-2.916 6.5-6.5v-306c0-3.584-2.916-6.5-6.5-6.5z" fill="#ecbe6b"/></g><g><path d="m490.5 15.255h-28.346c9.59 0 17.728 6.313 20.49 15h7.856c3.584 0 6.5 2.916 6.5 6.5v306c0 3.584-2.916 6.5-6.5 6.5h-7.856c-2.762 8.687-10.9 15-20.49 15h28.346c11.855 0 21.5-9.645 21.5-21.5v-306c0-11.855-9.645-21.5-21.5-21.5z" fill="#eab14d"/></g><path d="m336.5 380.755h-161c-3.314 0-6-2.686-6-6v-29c0-3.314 2.686-6 6-6h161c3.314 0 6 2.686 6 6v29c0 3.314-2.686 6-6 6z" fill="#eab14d"/><path d="m336.5 339.755h-22.677c3.314 0 6 2.686 6 6v29c0 3.314-2.686 6-6 6h22.677c3.314 0 6-2.686 6-6v-29c0-3.313-2.686-6-6-6z" fill="#e7a52e"/></g><g><path d="m105.365 105.198h-36.011c-6.844 0-12.411 5.568-12.411 12.412v172.227c0 6.844 5.567 12.412 12.411 12.412h36.011c6.844 0 12.412-5.568 12.412-12.412v-172.227c0-6.844-5.568-12.412-12.412-12.412zm-2.588 182.05h-30.834v-167.05h30.834z"/><path d="m186.206 146.416h-36.011c-6.844 0-12.411 5.568-12.411 12.412v131.008c0 6.844 5.567 12.412 12.411 12.412h36.011c6.844 0 12.411-5.568 12.411-12.412v-131.007c0-6.844-5.567-12.413-12.411-12.413zm-2.589 140.832h-30.833v-125.832h30.833z"/><path d="m267.046 196.223h-36.01c-6.844 0-12.412 5.568-12.412 12.412v81.201c0 6.844 5.568 12.412 12.412 12.412h36.01c6.844 0 12.412-5.568 12.412-12.412v-81.201c0-6.844-5.568-12.412-12.412-12.412zm-2.588 91.025h-30.834v-76.025h30.834z"/><path d="m447.557 55.075h-182.971c-4.143 0-7.5 3.357-7.5 7.5s3.357 7.5 7.5 7.5h182.971c4.143 0 7.5-3.357 7.5-7.5s-3.358-7.5-7.5-7.5z"/><path d="m447.557 94.059h-182.971c-4.143 0-7.5 3.357-7.5 7.5s3.357 7.5 7.5 7.5h182.971c4.143 0 7.5-3.357 7.5-7.5s-3.358-7.5-7.5-7.5z"/><path d="m447.557 133.043h-140.475c-4.143 0-7.5 3.357-7.5 7.5s3.357 7.5 7.5 7.5h140.475c4.143 0 7.5-3.357 7.5-7.5s-3.358-7.5-7.5-7.5z"/><path d="m447.557 172.028h-140.475c-4.143 0-7.5 3.357-7.5 7.5s3.357 7.5 7.5 7.5h140.475c4.143 0 7.5-3.357 7.5-7.5s-3.358-7.5-7.5-7.5z"/><path d="m442.646 216.832h-95.288c-6.844 0-12.411 5.568-12.411 12.412v60.592c0 6.844 5.567 12.412 12.411 12.412h95.288c6.844 0 12.411-5.568 12.411-12.412v-60.592c0-6.843-5.568-12.412-12.411-12.412zm-2.589 70.416h-90.11v-55.416h90.11z"/><path d="m490.5 15.248h-469c-11.855 0-21.5 9.645-21.5 21.5v306c0 11.855 9.645 21.5 21.5 21.5h142v10.5c0 7.444 6.056 13.5 13.5 13.5h4.879l-21.434 79.994c-3.232 12.059 3.949 24.498 16.009 27.73 12.055 3.234 24.485-3.897 27.729-16.01l24.575-91.715h57.483l24.575 91.715c3.236 12.082 15.64 19.249 27.729 16.01 12.06-3.232 19.241-15.672 16.009-27.73l-21.434-79.994h4.88c7.444 0 13.5-6.056 13.5-13.5v-10.5h139c11.855 0 21.5-9.645 21.5-21.5v-306c0-11.855-9.645-21.5-21.5-21.5zm-300.805 460.832c-1.092 4.075-5.268 6.494-9.358 5.404-4.07-1.091-6.494-5.29-5.403-9.359l22.475-83.877h15.821zm150.371-3.955c1.091 4.069-1.333 8.269-5.403 9.359-4.069 1.091-8.263-1.316-9.358-5.404l-23.534-87.832h15.821zm-3.566-98.877h-13.153-31.351c-23.787 0-88.82 0-113.496 0v-16.5-9.5h158v9.5zm160.5-30.5c0 3.584-2.916 6.5-6.5 6.5h-139v-3.5c0-7.444-6.056-13.5-13.5-13.5h-161c-7.444 0-13.5 6.056-13.5 13.5v3.5h-142c-3.584 0-6.5-2.916-6.5-6.5v-306c0-3.584 2.916-6.5 6.5-6.5h469c3.584 0 6.5 2.916 6.5 6.5z"/></g></g></svg>