<svg id="Capa_1" enable-background="new 0 0 512 512" height="512" viewBox="0 0 512 512" width="512" xmlns="http://www.w3.org/2000/svg"><g><g><path d="m414.825 484.5v-413.746c0-11.046-8.954-20-20-20h-322.353c-11.046 0-20 8.954-20 20v413.746c0 11.046 8.954 20 20 20h322.353c11.046 0 20-8.954 20-20z" fill="#407093"/><path d="m384.825 469.5v-383.746c0-2.761-2.239-5-5-5h-292.353c-2.761 0-5 2.239-5 5v383.746c0 2.761 2.239 5 5 5h292.353c2.761 0 5-2.239 5-5z" fill="#e7ecf6"/><path d="m397.659 50.754h-30c11.046 0 20 8.954 20 20v413.746c0 11.046-8.954 20-20 20h30c11.046 0 20-8.954 20-20v-413.746c0-11.046-8.954-20-20-20z" fill="#365e7d"/><path d="m382.659 80.754h-28.347c2.762 0 5 2.239 5 5v383.746c0 2.761-2.238 5-5 5h28.347c2.761 0 5-2.239 5-5v-383.746c0-2.761-2.239-5-5-5z" fill="#d8e2f1"/><path d="m252.886 377.916 42.643-12.192-51.738-51.737-12.192 42.642z" fill="#bed8fb"/><path d="m234.409 383.199 28.647-8.19-28.549-28.549-8.19 28.647c-1.459 5.102 2.99 9.551 8.092 8.092z" fill="#365e7d"/><path d="m272.852 362.89-27.212 7.78 7.246 7.246 42.643-12.192-12.756-12.756z" fill="#9dc6fb"/><path d="m240.379 372.174-14.284 4.084c-.543 4.592 3.602 8.288 8.314 6.941l28.647-8.19-7.247-7.247z" fill="#365e7d"/><path d="m454.232 181.447-26.163-26.163c-7.062-7.062-18.512-7.062-25.575 0l-19.436 19.436 10.64 28.073 18.05 18.05 23.048 5.615 19.436-19.436c7.062-7.063 7.062-18.513 0-25.575z" fill="#90d8f9"/><path d="m454.232 181.447-26.163-26.163c-6.076-6.076-15.392-6.91-22.375-2.532l25.861 25.86c7.062 7.063 7.062 18.513 0 25.575l-17.273 17.272 20.514 4.998 19.436-19.436c7.062-7.062 7.062-18.512 0-25.574z" fill="#75cef9"/><path d="m355.503 202.275-111.712 111.712 51.738 51.737 111.711-111.711 27.556-27.556-51.737-51.738" fill="#e28086"/><path d="m260.308 280.693h196.954v18.04h-196.954z" fill="#dd636e" transform="matrix(.707 -.707 .707 .707 -99.772 338.554)"/><path d="m255.884 7.5h-44.471c-11.79 0-21.347 9.558-21.347 21.347v39.653h87.165v-39.653c0-11.789-9.558-21.347-21.347-21.347z" fill="#eab14d"/><path d="m258.718 7.5h-25.512c11.79 0 21.347 9.558 21.347 21.347v39.653h25.512v-39.653c0-11.789-9.557-21.347-21.347-21.347z" fill="#e7a52e"/><path d="m330.338 106.505v-59.505c0-4.971-4.029-9-9-9h-175.38c-4.971 0-9 4.029-9 9v59.505c0 4.97 4.029 9 9 9h175.38c4.971 0 9-4.03 9-9z" fill="#ecbe6b"/><path d="m324.173 38h-25.512c4.97 0 9 4.029 9 9v59.505c0 4.97-4.03 9-9 9h25.512c4.971 0 9-4.03 9-9v-59.505c0-4.971-4.03-9-9-9z" fill="#eab14d"/></g><g><path d="m459.535 176.143-26.162-26.162c-2.427-2.427-5.226-4.258-8.214-5.504v-24.729c0-4.143-3.357-7.5-7.5-7.5s-7.5 3.357-7.5 7.5v23.263c-8.122 1.639-12.396 6.397-15 9.001v-66.258c0-6.893-5.607-12.5-12.5-12.5h-41.986v-15h56.986c6.893 0 12.5 5.607 12.5 12.5v13.994c0 4.143 3.357 7.5 7.5 7.5s7.5-3.357 7.5-7.5v-13.994c0-15.163-12.337-27.5-27.5-27.5h-57.432c-1.703-7.296-8.247-12.754-16.055-12.754h-36.607c0-19.096-13.952-30.5-28.848-30.5h-47.305c-14.794 0-28.847 11.282-28.847 30.5h-36.607c-7.808 0-14.351 5.458-16.055 12.754h-57.431c-15.164 0-27.5 12.337-27.5 27.5v323.174c0 4.143 3.358 7.5 7.5 7.5s7.5-3.357 7.5-7.5v-323.174c0-6.893 5.607-12.5 12.5-12.5h56.986v15h-41.986c-6.893 0-12.5 5.607-12.5 12.5v383.746c0 6.893 5.607 12.5 12.5 12.5h295.188c6.893 0 12.5-5.607 12.5-12.5v-192.799l15-15v222.799c0 6.893-5.607 12.5-12.5 12.5h-325.188c-6.893 0-12.5-5.607-12.5-12.5v-55.572c0-4.143-3.358-7.5-7.5-7.5s-7.5 3.357-7.5 7.5v55.572c0 15.163 12.336 27.5 27.5 27.5h325.188c15.163 0 27.5-12.337 27.5-27.5v-237.799c4.807-4.807 29.552-29.553 34.376-34.376 4.832-4.833 7.493-11.258 7.493-18.091-.001-6.834-2.662-13.258-7.494-18.091zm-164.005 178.975-41.132-41.132c8.023-8.023 49.224-49.223 56.91-56.909.001-.001.001-.002.002-.002l44.192-44.192 41.13 41.13c-3.543 3.543-75.376 75.377-101.102 101.105zm-30.292 11.466-22.307-22.307 2.715-9.497 1.852-6.478 33.715 33.715zm-27.023-5.809 10.526 10.526-14.741 4.215zm169.025-117.37-41.13-41.13 16.948-16.948 41.13 41.13c-11.284 11.286-12.598 12.598-16.948 16.948zm-262.782-196.405c0-.827.673-1.5 1.5-1.5h44.107c4.142 0 7.5-3.357 7.5-7.5v-9.152c0-7.636 6.212-13.848 13.847-13.848h47.305c7.636 0 13.848 6.212 13.848 13.848v9.152c0 4.143 3.357 7.5 7.5 7.5h44.107c.827 0 1.5.673 1.5 1.5v59.505c0 .827-.673 1.5-1.5 1.5h-178.214c-.827 0-1.5-.673-1.5-1.5 0-24.736 0-29.663 0-59.505zm235.701 420h-290.187v-378.746h39.486v18.251c0 9.101 7.405 16.5 16.5 16.5h178.215c9.095 0 16.5-7.399 16.5-16.5v-18.251h39.486v78.758l-77.261 77.261h-159.833c-4.142 0-7.5 3.357-7.5 7.5s3.358 7.5 7.5 7.5h144.832c-52.323 52.323-49.862 49.767-50.482 50.774h-94.35c-4.142 0-7.5 3.357-7.5 7.5s3.358 7.5 7.5 7.5h89.763c-.044.155-5.533 19.352-5.533 19.352l-8.189 28.641c-.243.851-.448 1.912-.527 2.864h-75.514c-4.142 0-7.5 3.357-7.5 7.5s3.358 7.5 7.5 7.5h87.844c.014.001.028.002.041.003 1.759.182 3.679.028 5.52-.498l61.12-17.475c.016-.005.031-.012.048-.017 1.263-.37 2.364-1.06 3.194-1.89l7.24-7.241c.001 0 72.085-72.086 72.086-72.086v175.3zm68.769-265.282-14.131 14.132c-4.875-4.875-36.27-36.27-41.13-41.13l14.132-14.132c4.086-4.09 10.843-4.124 14.968 0l26.162 26.162c4.126 4.126 4.126 10.842-.001 14.968z"/><path d="m143.065 193.497h184c4.143 0 7.5-3.357 7.5-7.5s-3.357-7.5-7.5-7.5h-184c-4.142 0-7.5 3.357-7.5 7.5s3.358 7.5 7.5 7.5z"/></g></g></svg>