<svg id="Capa_1" enable-background="new 0 0 512 512" height="512" viewBox="0 0 512 512" width="512" xmlns="http://www.w3.org/2000/svg"><g><g><path d="m387.624 456.915v-389.819c0-10.407-8.437-18.844-18.843-18.844h-303.548c-10.407 0-18.843 8.437-18.843 18.844v389.819c0 10.407 8.437 18.843 18.843 18.843h303.547c10.408 0 18.844-8.436 18.844-18.843z" fill="#e28086"/><path d="m74.655 442.782v-361.554c0-2.602 2.109-4.711 4.711-4.711h278.117c2.602 0 4.711 2.109 4.711 4.711v361.554c0 2.602-2.109 4.711-4.711 4.711h-278.117c-2.602 0-4.711-2.109-4.711-4.711z" fill="#e7ecf6"/><path d="m237.875 7.5h-41.736c-11.108 0-20.113 9.005-20.113 20.113v37.36h81.961v-37.36c0-11.108-9.004-20.113-20.112-20.113z" fill="#365e7d"/><path d="m240.709 7.5h-28.271c11.108 0 20.113 9.005 20.113 20.113v37.36h28.271v-37.36c0-11.108-9.005-20.113-20.113-20.113z" fill="#2b4d66"/><path d="m308.023 100.779v-56.063c0-4.683-3.797-8.48-8.48-8.48h-165.073c-4.683 0-8.479 3.796-8.479 8.48v56.063c0 4.683 3.796 8.479 8.479 8.479h165.073c4.684.001 8.48-3.796 8.48-8.479z" fill="#407093"/><path d="m371.615 48.252h-28.271c10.407 0 18.843 8.437 18.843 18.844v389.819c0 10.407-8.437 18.843-18.843 18.843h28.271c10.407 0 18.844-8.436 18.844-18.843v-389.819c0-10.407-8.437-18.844-18.844-18.844z" fill="#dd636e"/><path d="m357.483 76.518h-28.271c2.602 0 4.711 2.109 4.711 4.711v361.554c0 2.602-2.109 4.711-4.711 4.711h28.271c2.602 0 4.711-2.109 4.711-4.711v-361.554c-.001-2.602-2.11-4.711-4.711-4.711z" fill="#d8e2f1"/><path d="m302.378 36.236h-28.271c4.683 0 8.479 3.796 8.479 8.48v56.063c0 4.683-3.796 8.479-8.479 8.479h28.271c4.683 0 8.479-3.796 8.479-8.479v-56.063c.001-4.684-3.795-8.48-8.479-8.48z" fill="#365e7d"/><ellipse cx="360.776" cy="401.083" fill="#ecbe6b" rx="101.999" ry="103.399"/><path d="m362.193 297.667c-4.319 0-8.575.269-12.756.783 51.097 6.286 90.661 49.837 90.661 102.633s-39.564 96.347-90.661 102.633c4.18.514 8.437.783 12.756.783 57.115 0 103.417-46.301 103.417-103.417s-46.301-103.415-103.417-103.415z" fill="#eab14d"/></g><g><path d="m125.99 178.542h184.868c4.143 0 7.5-3.357 7.5-7.5s-3.357-7.5-7.5-7.5h-184.868c-4.143 0-7.5 3.357-7.5 7.5s3.358 7.5 7.5 7.5z"/><path d="m125.99 232.873h184.868c4.143 0 7.5-3.357 7.5-7.5s-3.357-7.5-7.5-7.5h-184.868c-4.143 0-7.5 3.357-7.5 7.5s3.358 7.5 7.5 7.5z"/><path d="m318.358 279.703c0-4.143-3.357-7.5-7.5-7.5h-184.868c-4.143 0-7.5 3.357-7.5 7.5s3.357 7.5 7.5 7.5h184.868c4.143 0 7.5-3.357 7.5-7.5z"/><path d="m397.959 296.085v-228.989c0-14.525-11.817-26.343-26.344-26.343h-53.775c-1.77-6.897-8.021-12.017-15.462-12.017h-34.056v-1.124c0-15.225-12.387-27.612-27.613-27.612h-44.57c-15.226 0-27.612 12.387-27.612 27.612v1.124h-34.057c-7.441 0-13.692 5.12-15.462 12.017h-53.775c-14.751 0-26.349 11.965-26.344 26.343v59.032c0 4.143 3.357 7.5 7.5 7.5s7.5-3.357 7.5-7.5v-59.036c-.005-6.223 5.019-11.339 11.344-11.339h53.257v13.265h-39.124c-6.733 0-12.211 5.478-12.211 12.211v361.554c0 6.733 5.478 12.211 12.211 12.211h185.839c2.568 4.599 5.455 9.037 8.69 13.265h-208.662c-6.255 0-11.344-5.089-11.344-11.343v-295.788c0-4.143-3.357-7.5-7.5-7.5s-7.5 3.357-7.5 7.5v295.787c0 14.525 11.817 26.343 26.344 26.343h222.54c19.694 17.852 45.809 28.742 74.42 28.742 33.778-.001 65.303-15.116 86.49-41.471 2.595-3.229 2.082-7.949-1.146-10.545-3.229-2.594-7.947-2.081-10.545 1.146-18.324 22.795-45.588 35.868-74.799 35.869-53.615 0-97.723-44.449-95.852-99.272.01-.298.021-.595.034-.892 2.211-51.092 44.554-91.669 95.818-91.669 52.811 0 95.917 42.956 95.917 95.916 0 10.921-1.818 21.63-5.405 31.83-1.374 3.908.68 8.189 4.587 9.563 3.911 1.374 8.189-.681 9.563-4.587 4.15-11.803 6.255-24.187 6.255-36.807 0-48.649-31.486-90.082-75.151-104.996zm-15-228.989v225.014c-4.059-.769-8.692-1.381-13.266-1.689v-209.192c0-6.733-5.478-12.211-12.211-12.211h-39.125v-13.265h53.258c6.255 0 11.344 5.088 11.344 11.343zm-249.469-22.38c0-.54.439-.979.979-.979h41.557c4.143 0 7.5-3.357 7.5-7.5v-8.624c0-6.954 5.658-12.612 12.612-12.612h44.57c6.955 0 12.613 5.658 12.613 12.612v8.624c0 4.143 3.357 7.5 7.5 7.5h41.556c.54 0 .979.439.979.979v56.063c0 .54-.439.979-.979.979h-167.907c-1.412.001-.98 2.751-.98-57.042zm-51.335 395.277v-355.975h36.335v16.762c0 8.812 7.168 15.979 15.979 15.979h167.908c8.812 0 15.979-7.168 15.979-15.979v-16.762h36.336v206.4c-53.162 3.604-98.192 45.416-102.997 101.061-1.453 17.049.982 33.58 6.56 48.515h-176.1z"/><path d="m354.5 370.667v81.5c0 4.143 3.357 7.5 7.5 7.5s7.5-3.357 7.5-7.5v-81.5c0-4.143-3.357-7.5-7.5-7.5s-7.5 3.357-7.5 7.5z"/><circle cx="362" cy="343.921" r="7.5"/></g></g></svg>